<?xml version="1.0" standalone="no"?><!DOCTYPE svg PUBLIC "-//W3C//DTD SVG 1.1//EN" "http://www.w3.org/Graphics/SVG/1.1/DTD/svg11.dtd"><svg t="1633940374950" class="icon" viewBox="0 0 1024 1024" version="1.1" xmlns="http://www.w3.org/2000/svg" p-id="2031" xmlns:xlink="http://www.w3.org/1999/xlink" width="200" height="200"><defs><style type="text/css"></style></defs><path d="M452.923077 535.630769h7.876923c3.938462-53.169231 23.630769-100.430769 53.169231-137.846154-15.753846-15.753846-35.446154-25.6-61.046154-25.6-47.261538 0-82.707692 35.446154-82.707692 82.707693 0 45.292308 35.446154 80.738462 82.707692 80.738461z m23.630769 157.538462c9.846154 0 19.692308-1.969231 23.630769-1.969231-15.753846-25.6-27.569231-53.169231-33.476923-78.769231H452.923077c-88.615385 0-165.415385-70.892308-165.415385-165.415384 0-88.615385 70.892308-165.415385 165.415385-165.415385 49.230769 0 96.492308 21.661538 126.030769 57.107692 23.630769-13.784615 49.230769-21.661538 76.8-25.6-45.292308-64.984615-120.123077-106.338462-204.8-106.338461-141.784615 0-248.123077 112.246154-248.123077 248.123077S315.076923 703.015385 456.861538 697.107692c7.876923-1.969231 13.784615-1.969231 19.692308-3.938461z m506.092308 202.830769v27.569231c0 31.507692-27.569231 59.076923-59.076923 59.076923H448.984615c-31.507692 0-59.076923-27.569231-59.076923-59.076923v-27.569231c0-70.892308 84.676923-116.184615 163.446154-151.630769l7.876923-3.938462c5.907692-1.969231 11.815385-1.969231 17.723077 1.969231 31.507692 21.661538 68.923077 31.507692 106.338462 31.507692 37.415385 0 74.830769-11.815385 106.338461-31.507692 5.907692-3.938462 11.815385-3.938462 17.723077-1.969231l7.876923 3.938462c82.707692 35.446154 165.415385 78.769231 165.415385 151.630769zM685.292308 389.907692c82.707692 0 147.692308 72.861538 147.692307 163.446154s-64.984615 163.446154-147.692307 163.446154-147.692308-72.861538-147.692308-163.446154 66.953846-163.446154 147.692308-163.446154zM364.307692 771.938462c-135.876923-39.384615-240.246154-167.384615-240.246154-317.046154 0-183.138462 147.692308-330.830769 330.83077-330.83077 135.876923 0 257.969231 80.738462 307.2 200.861539 39.384615 15.753846 74.830769 41.353846 100.430769 74.830769C832.984615 192.984615 661.661538 41.353846 452.923077 41.353846 222.523077 41.353846 41.353846 222.523077 41.353846 452.923077c0 181.169231 114.215385 334.769231 279.630769 387.938461 7.876923-27.569231 23.630769-49.230769 43.323077-68.923076z" p-id="2032"></path></svg>