<svg t="1624608720248" class="icon" viewBox="0 0 1024 1024" version="1.1" xmlns="http://www.w3.org/2000/svg" p-id="2770" width="200" height="200"><path d="M157.241498 214.266084v236.652092a433.648969 433.648969 0 0 0 174.610868 349.221737l178.44847 132.397251 178.448469-132.397251a433.009369 433.009369 0 0 0 173.971268-349.221737v-236.652092L510.300836 77.39163zM86.88547 164.377264L510.300836 0l423.415365 164.377264v286.540912a505.284197 505.284197 0 0 1-203.392879 407.425359l-220.022486 165.016865-220.022486-165.016865A505.284197 505.284197 0 0 1 86.88547 450.918176z"  p-id="2771"></path><path d="M510.300836 543.660212a141.351655 141.351655 0 1 1 141.351655-141.351655 141.351655 141.351655 0 0 1-141.351655 141.351655z m0-70.356027a70.356027 70.356027 0 1 0-70.356028-70.356028 70.356027 70.356027 0 0 0 70.356028 70.356028z"  p-id="2772"></path><path d="M510.300836 511.6802a31.340412 31.340412 0 0 1 35.178013 26.86321 21.106808 21.106808 0 0 1 0 8.954404v181.006871a34.538413 34.538413 0 0 1-31.980012 37.736414 35.817614 35.817614 0 0 1-38.376015-31.980012V550.056215a31.980012 31.980012 0 0 1 26.86321-38.376015z"  p-id="2773"></path><path d="M615.834877 639.60025a30.061212 30.061212 0 0 1-26.22361 35.178014H513.498837a34.538413 34.538413 0 0 1-37.736415-31.980013 35.817614 35.817614 0 0 1 31.980013-38.376015h72.914428a31.340412 31.340412 0 0 1 35.178014 26.863211 21.106808 21.106808 0 0 1 0 8.954403z" p-id="2774"></path></svg>