<?xml version="1.0" standalone="no"?><!DOCTYPE svg PUBLIC "-//W3C//DTD SVG 1.1//EN" "http://www.w3.org/Graphics/SVG/1.1/DTD/svg11.dtd"><svg t="1632726019454" class="icon" viewBox="0 0 1129 1024" version="1.1" xmlns="http://www.w3.org/2000/svg" p-id="15597" xmlns:xlink="http://www.w3.org/1999/xlink" width="220.5078125" height="200"><defs><style type="text/css"></style></defs><path d="M334.953271 679.476636H124.411215V133.981308h813.457944v200.971963l66.990654 9.570093v-287.102803H47.850467v698.616822h287.102804zM248.82243 861.308411h210.542056v66.990654H248.82243zM775.17757 535.925234c-66.990654 0-114.841121 47.850467-114.841121 114.841121S708.186916 765.607477 775.17757 765.607477s114.841121-47.850467 114.841122-114.841122-47.850467-114.841121-114.841122-114.841121z m66.990654 114.841121c0 38.280374-28.71028 66.990654-66.990654 66.990654-38.280374 0-66.990654-28.71028-66.990654-66.990654-9.570093-38.280374 28.71028-76.560748 66.990654-76.560748 38.280374 0 66.990654 38.280374 66.990654 76.560748z" p-id="15598"></path><path d="M1062.280374 593.345794c9.570093 0 9.570093-9.570093 19.140187-19.140187v-19.140186l-76.560748-124.411215c-9.570093-19.140187-28.71028-19.140187-38.280374-9.570094l-57.42056 38.280374c-9.570093-9.570093-28.71028-19.140187-38.280374-19.140187v-66.990654c0-19.140187-9.570093-28.71028-28.710281-28.710281H698.616822c-19.140187 0-28.71028 9.570093-28.71028 28.710281v66.990654c-9.570093 0-19.140187 9.570093-28.71028 19.140187l-57.420561-38.280374h-19.140187c-9.570093 0-9.570093 9.570093-9.570093 9.570094L478.504673 555.065421c-9.570093 9.570093-9.570093 19.140187-9.570094 28.71028 9.570093 9.570093 9.570093 9.570093 19.140187 9.570093l57.420561 38.280374V669.906542l-57.420561 28.71028c-9.570093 0-9.570093 9.570093-19.140187 19.140187v19.140187L545.495327 861.308411c9.570093 19.140187 28.71028 19.140187 38.280374 9.570094l57.420561-38.280374c9.570093 19.140187 19.140187 19.140187 28.71028 28.71028v66.990654c0 19.140187 9.570093 28.71028 28.71028 28.710281h143.551402c19.140187 0 28.71028-9.570093 28.710281-28.710281V861.308411c9.570093 0 19.140187-9.570093 28.71028-19.140187l57.420561 38.280374c19.140187 9.570093 28.71028 0 38.280374-9.570093l76.560747-133.981309c9.570093-19.140187 0-28.71028-9.570093-38.280374l-57.420561-28.71028v-38.280374l57.420561-38.280374zM708.186916 813.457944c-19.140187-9.570093-28.71028-19.140187-47.850467-28.71028h-28.710281l-47.850467 28.71028-47.850467-86.130841 47.850467-28.710281c9.570093-9.570093 19.140187-19.140187 9.570093-28.71028v-28.71028-9.570094-19.140187c0-9.570093 0-19.140187-9.570093-28.71028l-47.850467-19.140187 47.850467-86.130841 47.850467 28.71028c9.570093 9.570093 19.140187 9.570093 28.710281 0 19.140187-9.570093 28.71028-19.140187 47.850467-28.71028 9.570093 0 19.140187-9.570093 19.140187-28.71028v-47.850468h95.700934v57.420561c0 9.570093 0 19.140187 9.570094 28.71028 19.140187 9.570093 38.280374 19.140187 47.850467 28.710281 9.570093 9.570093 19.140187 0 28.710281 0l57.42056-38.280374 47.850468 86.130841-57.420561 28.71028c0 9.570093-9.570093 19.140187-9.570094 28.710281V679.476636c0 9.570093 0 19.140187 9.570094 28.71028l47.850467 28.71028-47.850467 86.130841-38.280374-38.280373c-9.570093-9.570093-19.140187-9.570093-28.71028 0-19.140187 19.140187-38.280374 28.71028-57.420561 28.71028-9.570093 9.570093-9.570093 19.140187-9.570094 28.71028v57.420561h-95.700934v-57.420561c0-9.570093-9.570093-19.140187-19.140187-28.71028z" p-id="15599"></path></svg>