<?xml version="1.0" encoding="UTF-8"?>
<svg width="44px" height="44px" viewBox="0 0 44 44" version="1.1" xmlns="http://www.w3.org/2000/svg" xmlns:xlink="http://www.w3.org/1999/xlink">
    <title>ckzsp</title>

        <path d="M34,7.9 C36.2643675,7.9 38.1,9.73563253 38.1,12 L38.1,12 L38.1,32 C38.1,34.2643675 36.2643675,36.1 34,36.1 L34,36.1 L10,36.1 C7.73563253,36.1 5.9,34.2643675 5.9,32 L5.9,32 L5.9,12 C5.9,9.73563253 7.73563253,7.9 10,7.9 L10,7.9 Z M35.9,19.1 L8.1,19.1 L8.1,32 C8.1,32.9993724 8.87157277,33.8185343 9.85151612,33.8942836 L10,33.9 L34,33.9 C35.049341,33.9 35.9,33.049341 35.9,32 L35.9,32 L35.9,19.1 Z M17.9,10.099 L10,10.1 C8.95065898,10.1 8.1,10.950659 8.1,12 L8.1,12 L8.1,16.9 L17.9,16.899 L17.9,10.099 Z M23.9,10.1 L20.1,10.1 L20.1,16.899 L23.9,16.899 L23.9,10.1 Z M34,10.1 L26.1,10.099 L26.1,16.899 L35.9,16.9 L35.9,12 L35.9,12 L35.8936701,11.8437841 C35.8898086,11.7963332 35.8842036,11.7493756 35.8769191,11.7029752 C35.8648571,11.6261023 35.8481446,11.5506163 35.8270983,11.476959 C35.820778,11.4548557 35.8141822,11.4332697 35.8072163,11.4118507 L35.8270983,11.476959 C35.8159721,11.4380198 35.8036347,11.3995916 35.7901295,11.3617179 L35.8072163,11.4118507 C35.7913859,11.3631754 35.7736438,11.3153627 35.7540785,11.268501 L35.7901295,11.3617179 C35.7731571,11.3141209 35.7543403,11.2673995 35.733765,11.2216399 L35.7540785,11.268501 C35.7367742,11.2270548 35.7180439,11.1863526 35.6979487,11.1464558 L35.733765,11.2216399 C35.7121271,11.1735167 35.6885444,11.1264572 35.6631171,11.0805614 L35.6979487,11.1464558 C35.6764887,11.1038492 35.6534722,11.0621611 35.6289739,11.0214661 L35.6631171,11.0805614 C35.6398566,11.0385765 35.6150525,10.9975655 35.5887812,10.9576049 L35.6289739,11.0214661 C35.603974,10.979938 35.5774311,10.939444 35.5494244,10.9000636 L35.5887812,10.9576049 C35.5641022,10.9200662 35.5381287,10.8834545 35.510924,10.8478332 L35.5494244,10.9000636 C35.5199662,10.8586421 35.4888885,10.8184526 35.4562838,10.7795873 L35.510924,10.8478332 C35.4823166,10.8103754 35.452348,10.7740128 35.4210919,10.7388193 L35.4562838,10.7795873 C35.4275441,10.7453293 35.397618,10.7121002 35.3665686,10.6799632 L35.4210919,10.7388193 C35.3869402,10.7003654 35.3512513,10.6633072 35.3141218,10.6277411 L35.3665686,10.6799632 C35.3349916,10.6472802 35.3022529,10.6157268 35.268419,10.5853696 L35.3141218,10.6277411 C35.2795858,10.5946594 35.2438034,10.5628686 35.206852,10.5324462 L35.268419,10.5853696 C35.2338485,10.5543514 35.1981346,10.524582 35.1613482,10.4961323 L35.206852,10.5324462 C35.1694077,10.501618 35.1307631,10.472195 35.0909987,10.4442579 L35.1613482,10.4961323 C35.1216031,10.4653945 35.0806062,10.4361972 35.0384468,10.4086301 L35.0909987,10.4442579 C35.0546894,10.418748 35.0174464,10.3944771 34.9793313,10.3715065 L35.0384468,10.4086301 C35.0000368,10.3835145 34.9606619,10.359752 34.9203898,10.3374102 L34.9793313,10.3715065 C34.9359236,10.3453461 34.8913846,10.3208722 34.8458052,10.2981755 L34.9203898,10.3374102 C34.8747494,10.3120902 34.8279567,10.2885949 34.7801102,10.2670229 L34.8458052,10.2981755 C34.8070083,10.2788562 34.7674575,10.2608246 34.7272088,10.2441365 L34.7801102,10.2670229 C34.737973,10.248025 34.6950185,10.2305188 34.651314,10.2145715 L34.7272088,10.2441365 C34.5904195,10.1874203 34.4455691,10.1462232 34.2948538,10.1227413 L34.1484839,10.1057164 L34,10.1 Z" id="mix"  fill-rule="nonzero"></path>
</svg>