<?xml version="1.0" encoding="UTF-8"?>
<svg width="44px" height="44px" viewBox="0 0 44 44" version="1.1" xmlns="http://www.w3.org/2000/svg" xmlns:xlink="http://www.w3.org/1999/xlink">
    <title>cxhdcysh</title>
        <g id="编组-3">
            <path d="M34,19.85 C36.5681241,19.85 38.65,21.9318759 38.65,24.5 C38.65,25.8549 38.0705215,27.0744555 37.1458824,27.9243488 L37.15,28 L37.1496749,31.8497276 L38,31.85 C40.2225277,31.85 42.0369943,33.5971173 42.1449211,35.7928731 L42.15,36 L42.15,38 C42.15,38.6351275 41.6351275,39.15 41,39.15 L41,39.15 L27,39.15 C26.3648725,39.15 25.85,38.6351275 25.85,38 L25.85,38 L25.85,36 C25.85,33.7080183 27.7080183,31.85 30,31.85 L30,31.85 L30.8496749,31.8497276 L30.85,28 C30.85,27.9744605 30.8508325,27.9491154 30.852472,27.9239905 C29.9294785,27.0744555 29.35,25.8549 29.35,24.5 C29.35,21.9318759 31.4318759,19.85 34,19.85 Z M14.1474172,34.2010713 C14.7144295,34.2010713 15.181241,34.630082 15.2409625,35.1812142 L15.2474172,35.3010713 C15.2474172,35.7598925 15.5907538,36.1385231 16.0345231,36.194059 L16.1474172,36.2010713 L23.5,36.2010713 C24.1075132,36.2010713 24.6,36.6935581 24.6,37.3010713 C24.6,37.8680837 24.1709893,38.3348952 23.6198571,38.3946167 L23.5,38.4010713 L16.1474172,38.4010713 C14.4353344,38.4010713 13.0474172,37.013154 13.0474172,35.3010713 C13.0474172,34.6935581 13.5399039,34.2010713 14.1474172,34.2010713 Z M38,34.15 L30,34.15 C28.9782732,34.15 28.15,34.9782732 28.15,36 L28.15,36 L28.15,36.85 L39.85,36.85 L39.85,36 C39.85,35.0269269 39.0987318,34.2293218 38.1445764,34.155566 L38.1445764,34.155566 L38,34.15 Z M22.741336,5.15278287 C24.1282276,5.02553473 25.4297402,5.8388101 25.9233436,7.14112194 L25.9233436,7.14112194 L29.0397528,15.3633842 C29.3830632,16.2691665 29.2832435,17.2833575 28.7699314,18.1048284 L28.7699314,18.1048284 L19.5407126,32.874666 C18.633447,34.3265945 16.7209423,34.768131 15.2690138,33.8608654 L15.2690138,33.8608654 L3.39634044,26.4419957 C1.94441194,25.5347301 1.50287544,23.6222254 2.41014106,22.1702969 L2.41014106,22.1702969 L11.6393599,7.40045931 C12.1526719,6.57898835 13.0204626,6.04467886 13.9850718,5.95617539 L13.9850718,5.95617539 Z M23.0621834,7.34055861 L22.942343,7.34358093 L14.1860788,8.14697345 C13.906031,8.17266801 13.6540918,8.32779012 13.5050657,8.56628169 L13.5050657,8.56628169 L4.27584687,23.3361193 C4.01244717,23.7576469 4.14063519,24.3128902 4.56216282,24.5762899 L4.56216282,24.5762899 L16.4348362,31.9951596 C16.8563638,32.2585593 17.4116071,32.1303713 17.6750068,31.7088436 L17.6750068,31.7088436 L26.9042256,16.9390061 C27.0532517,16.7005145 27.0822316,16.406072 26.9825609,16.1431029 L26.9825609,16.1431029 L23.8661517,7.92084066 C23.7228475,7.54275013 23.344989,7.30663792 22.942343,7.34358093 Z M34.85,29.15 L33.15,29.15 L33.15,31.85 L34.85,31.85 L34.85,29.15 Z M34,22.15 C32.7021308,22.15 31.65,23.2021308 31.65,24.5 C31.65,25.7978692 32.7021308,26.85 34,26.85 C35.2978692,26.85 36.35,25.7978692 36.35,24.5 C36.35,23.2021308 35.2978692,22.15 34,22.15 Z M19.5038685,13.6179727 C19.9847223,13.9184435 20.1532599,14.5296376 19.911851,15.0286718 L19.8538102,15.1337368 L19.4606749,15.7617276 L20.9034068,16.6627918 C21.4186072,16.9847248 21.5752814,17.6633555 21.2533485,18.1785559 C20.9528777,18.6594097 20.3416836,18.8279472 19.8426494,18.5865384 L19.7375844,18.5284976 L16.1707201,16.2996734 C15.7154244,16.0151731 15.1157011,16.1536301 14.8312008,16.6089258 C14.5670219,17.0317004 14.6675358,17.5790069 15.0477781,17.8828234 L15.1404532,17.9484451 L17.5926444,19.4807443 C19.0406844,20.3855801 19.4810384,22.2929628 18.5762026,23.7410028 C17.702568,25.1391104 15.8943356,25.5978294 14.4673199,24.81338 L14.315944,24.724561 L13.9886749,24.5197276 L13.4947791,25.310314 C13.1728461,25.8255144 12.4942154,25.9821887 11.979015,25.6602557 C11.4981612,25.3597849 11.3296236,24.7485908 11.5710325,24.2495567 L11.6290733,24.1444916 L12.1226749,23.3537276 L10.6808964,22.4531312 C10.165696,22.1311982 10.0090218,21.4525675 10.3309547,20.9373671 C10.6314255,20.4565133 11.2426196,20.2879757 11.7416538,20.5293846 L11.8467188,20.5874254 L15.4817664,22.8588552 C15.8994056,23.1198251 16.4495269,22.9928196 16.7104968,22.5751804 C16.9513921,22.1896674 16.8617048,21.6912701 16.5179968,21.4116148 L16.426822,21.3464501 L13.9746308,19.8141509 C12.4889342,18.8857847 12.0371287,16.9288001 12.965495,15.4431035 C13.8618486,14.0086378 15.7171045,13.5379897 17.18123,14.3428389 L17.3365425,14.4339676 L17.5956749,14.5957276 L17.9881044,13.9679145 C18.3100374,13.452714 18.9886681,13.2960398 19.5038685,13.6179727 Z M30.8910212,12.4031362 L31.0027883,12.4609047 L31.1093912,12.5326486 L33.1794578,14.1063217 C33.895512,14.650669 34.3370723,15.4767626 34.396499,16.3675627 L34.4033805,16.5741818 L34.4033805,17.9469204 C34.4033805,18.5544336 33.9108937,19.0469204 33.3033805,19.0469204 C32.7363681,19.0469204 32.2695566,18.6179097 32.2098351,18.0667775 L32.2033805,17.9469204 L32.2033805,16.5741818 C32.2033805,16.3331326 32.1068017,16.1039602 31.9382234,15.9362248 L31.8480481,15.8577063 L29.7779814,14.2840332 C29.2943499,13.9163745 29.2003353,13.2262675 29.567994,12.742636 C29.88313,12.3280947 30.4351668,12.1998026 30.8910212,12.4031362 Z" id="形状结合"  fill-rule="nonzero"></path>
        </g>
</svg>