<?xml version="1.0" standalone="no"?><!DOCTYPE svg PUBLIC "-//W3C//DTD SVG 1.1//EN" "http://www.w3.org/Graphics/SVG/1.1/DTD/svg11.dtd"><svg t="1633940466214" class="icon" viewBox="0 0 1026 1024" version="1.1" xmlns="http://www.w3.org/2000/svg" p-id="3271" xmlns:xlink="http://www.w3.org/1999/xlink" width="200.390625" height="200"><defs><style type="text/css"></style></defs><path d="M477 113C249.2 119.6 66.6 306.4 66.6 535.8c0 234 189 422.9 422.9 422.9 229.4 0 416.2-182.7 422.8-410.5 0.2-6.8-5.2-12.4-12-12.4h-399c-6.6 0-12-5.4-12-12V125c0-6.8-5.6-12.2-12.3-12z m365.8 486.7c-4.7 25.9-12.2 51.2-22.5 75.7-18.1 42.7-44 81.1-76.9 114.1-33 33-71.4 58.9-114.1 76.9-44.2 18.7-91.2 28.2-139.7 28.2-48.5 0-95.5-9.5-139.7-28.2-42.7-18.1-81.1-44-114.1-76.9-33-33-58.9-71.4-76.9-114.1-18.7-44.2-28.2-91.2-28.2-139.7 0-48.5 9.5-95.5 28.2-139.7 18.1-42.7 43.9-81.1 76.9-114.1 33-33 71.3-58.9 114-77 24.4-10.3 49.7-17.9 75.6-22.5v405.2c0 6.6 5.4 12 12 12h405.4v0.1zM526.4 80.5V479c0 6.6 5.4 12 12 12H937c6.8 0 12.2-5.6 12-12.4C942.5 255 762.4 75 538.8 68.5c-6.8-0.2-12.4 5.2-12.4 12z m64 57.5c25.9 4.7 51.2 12.2 75.6 22.5 42.7 18.1 81.1 43.9 114.1 76.9 33 33 58.9 71.3 76.9 114 10.3 24.4 17.9 49.7 22.5 75.6H590.4V138z" p-id="3272"></path></svg>