<?xml version="1.0" standalone="no"?><!DOCTYPE svg PUBLIC "-//W3C//DTD SVG 1.1//EN" "http://www.w3.org/Graphics/SVG/1.1/DTD/svg11.dtd"><svg t="1632451957076" class="icon" viewBox="0 0 1024 1024" version="1.1" xmlns="http://www.w3.org/2000/svg" p-id="5417" xmlns:xlink="http://www.w3.org/1999/xlink" width="200" height="200"><defs><style type="text/css"></style></defs><path d="M1002.709333 371.841219L851.709562 133.751467c-13.185219-20.7616-40.738133-26.904381-61.561905-13.833753L36.551924 596.655543c-20.766476 13.185219-26.904381 40.738133-13.861791 61.442438L173.689905 896.21821c13.186438 20.709181 40.738133 26.847086 61.505828 13.777676l753.623772-476.704915c20.823771-13.192533 27.079924-40.711314 13.889828-61.449752z m-30.076343 35.861943L219.009219 884.470248c-6.665752 4.199619-15.390476 2.233295-19.590095-4.404419L48.419352 641.946819c-4.200838-6.666971-2.233295-15.362438 4.432458-19.619352l753.653028-476.737829c6.671848-4.171581 15.42339-2.200381 19.562057 4.437333l151.061943 238.115353c4.052114 6.523124 2.056533 15.275886-4.495848 19.560838zM322.985448 256.618057l12.514742 30.014172 16.214553-28.166096 32.394971-2.614857-21.82339-24.143238 7.432533-31.575771-29.609447 13.309562-27.813791-16.833829 3.523048 32.338895-24.671086 21.033448 31.837867 6.637714z m191.885409-89.352533l-15.567238-28.575695-13.185219 29.752076-32.014629 6.109866 24.171277 21.675886-4.171581 32.219429 28.195352-16.301105 29.404648 13.953219-6.785219-31.837867 22.290285-23.61539-32.337676-3.380419z m292.548267 478.676114l-25.762134-19.799771-0.11459 32.457143-26.904381 18.243047 30.985752 10.220495 9.133105 31.161296 19.209753-26.229029 32.514438 0.910629-19.090286-26.372877 11.014095-30.461561-30.985752 9.870628zM702.266514 775.350857l-12.275809-30.104381-16.481524 28.052724-32.366933 2.349105 21.61859 24.260266-7.695848 31.542858 29.781334-13.009677 27.700419 17.209296-3.262172-32.366934 24.671086-21.000533-31.689143-6.932724z m-192.624152 88.00061l15.424609 28.695162 13.452191-29.666743 32.014628-5.723429-24.028647-21.914819 4.409295-32.190171-28.314819 16.009752-29.257143-14.1568 6.519467 31.775695-22.614553 23.530057 32.394972 3.641296zM221.09501 382.417676l25.614628 20.119162 0.380343-32.485181 27.023848-18.152838-30.813867-10.428952-8.900267-31.3088-19.44259 26.052266-32.514438-1.176381 18.82819 26.494781-11.223771 30.548115 31.047924-9.662172zM106.691048 522.665448c-3.4048-137.519543 63.47581-273.481143 188.071009-352.285258 124.623238-78.805333 276.124038-81.038629 399.190553-19.295085l29.724038-18.800153c-36.419048-20.353219-75.600457-35.247543-116.866438-44.500114-55.133867-12.395276-111.290514-13.948343-166.805943-4.814019-57.480533 9.513448-111.818362 30.251886-161.456762 61.70941-49.609143 31.456305-91.671162 71.637333-124.862172 119.514209-32.132876 46.171429-54.718171 97.604267-67.142704 152.646705-9.252571 41.205029-12.542781 82.972038-9.662172 124.596419l29.810591-18.772114z m809.285485-21.028572c3.552305 137.519543-63.328305 273.481143-187.923504 352.257219-124.5952 78.890667-276.122819 81.066667-399.162515 19.324343l-29.781333 18.828191c36.419048 20.294705 75.628495 35.220724 116.900571 44.470857 55.127771 12.395276 111.285638 14.010514 166.799848 4.814019 57.480533-9.514667 111.819581-30.223848 161.428724-61.681372s91.671162-71.638552 124.890209-119.486171c32.014629-46.228724 54.599924-97.628648 66.9952-152.643048 9.28061-41.237943 12.514743-83.03299 9.632915-124.656152l-29.780115 18.772114zM384.637562 312.189562c34.895238-22.02819 73.281829-33.781029 111.819581-36.128914l45.994667-29.080381c-60.771962-7.166781-121.628038 6.523124-174.143391 39.684876-52.371505 33.128838-90.761752 82.328381-110.2336 140.247771l45.966629-29.075504c18.681905-33.95779 45.73501-63.562362 80.596114-85.647848zM638.147048 712.084724c-34.895238 22.090362-73.252571 33.838324-111.790324 36.186209l-45.967848 29.080381c60.743924 7.166781 121.571962-6.552381 174.115353-39.714133 52.371505-33.099581 90.761752-82.328381 110.204342-140.247771l-45.93859 29.137676c-18.679467 33.80541-45.76061 63.529448-80.622933 85.557638z m-338.951315-63.914667" p-id="5418"></path><path d="M155.215238 608.926476l26.474057-1.788343c-3.997257 3.347505-7.336229 15.221029-10.025447 35.637638-2.3296 20.976152-8.213943 41.892571-17.643277 62.728534l-3.456-1.288534c4.717714-18.600229 7.494705-36.154514 8.317562-52.656761 0.816762-16.479086-0.410819-30.699276-3.666895-42.632534z m51.504762 80.304762L275.748571 796.854857l-10.793447 13.933714c-7.883581-13.639924-15.345371-25.979124-22.430476-37.026133l-39.823848-62.090971c-3.139048 18.371048-8.5248 36.6336-16.169448 54.771809l-3.456-1.286095c6.242743-25.8048 9.375695-49.631086 9.406172-71.466667 0.0256-21.814857-1.015467-37.121219-3.130514-45.897143l25.541485-1.193447c-3.641295 3.90461-6.370743 18.107733-8.172495 42.631314z m46.2848-93.950781c-9.201371-14.345752-17.128838-26.002286-23.764114-35.001295l27.677257-6.065981-4.671391 11.17379 13.805715 21.523505 28.890209-18.528305 4.410514-15.683047 24.869791 3.911924-54.985143 35.267047 21.239467 33.116648 46.598095-29.88861 4.811581-17.106895 26.333867 4.141105-120.222477 77.108419c-8.081067 5.18339-15.006476 10.793448-20.77379 16.83139l-13.165714-2.071162 63.37219-40.646704-21.239467-33.115429-27.958857 17.932191-11.053104 9.426895-11.702858-1.840762 47.528229-30.484724z m84.946895 140.645181c17.290971-7.199695 28.192914-12.440381 32.677791-15.700114 4.477562-3.274362 5.305295-7.111924 2.475885-11.521219l-37.168761-57.952305-74.556953 47.819581-7.325257 7.037562-11.705295-1.8432 90.399695-57.981562c-3.8912-6.0672-9.520762-14.140952-16.860648-24.238324l27.274972-4.642133-5.201676 10.347276 6.902247 10.760533 13.047467-8.366323 4.8128-17.106896 26.332648 4.139886-41.006324 26.299733 39.292343 61.264457c6.371962 9.9328 4.444648 21.283352-5.764877 34.078477-6.112305-5.428419-19.774171-4.845714-40.973409 1.7408l-2.652648-4.136229z m-59.677257-37.671009c19.594971-0.886248 31.5392-0.366933 35.847314 1.543314 4.293486 1.921219 7.33501 4.259352 9.102629 7.016838 1.06179 1.654248 1.762743 4.126476 2.118705 7.402057 0.340114 3.287771-0.607086 6.230552-2.872076 8.855162-2.26499 2.618514-6.627962 0.944762-13.096229-5.040762-6.459733-5.968457-17.412876-11.413943-32.835048-16.329143l1.734705-3.447466z" p-id="5419"></path><path d="M264.2176 821.692952l-4.539733-7.854323c-7.914057-13.692343-15.412419-26.069333-22.284191-36.785981l-31.720838-49.456762c-3.270705 13.822781-7.798248 27.629714-13.524114 41.214781l-2.267429 5.382095-14.001981-5.207772 1.272686-5.258971c6.098895-25.209905 9.206248-48.775314 9.235505-70.0416 0.0256-21.244343-0.971581-36.203276-2.961067-44.462324l-1.728609-7.171657 47.854933-2.235733-10.200991 10.94339c-0.454705 0.521752-2.21379 3.240229-4.047238 15.213715l53.706362-34.447848-14.657828-22.853486-22.479238 14.417676-12.870705 10.977524-30.317714-4.767695 55.886019-35.846095c-7.639771-11.761371-14.433524-21.685638-20.234972-29.552153l-5.574705-7.560533 48.301105-10.58621-7.957943 19.037867 8.788115 13.700876 21.809981-13.987352 5.249219-18.667276 46.064152 7.246019-63.355124 40.635733 14.657829 22.854705 39.517866-25.346438 5.650286-20.088686 47.52701 7.4752-53.032229 34.012648 22.044038-3.75101-9.055086 18.011429 1.735924 2.707505 5.968457-3.82781 5.651505-20.088686 47.52701 7.472762-49.377524 31.669638 36.002133 56.133486c5.432076 8.467505 8.778362 22.485333-6.131809 41.169676l-4.008229 5.022476-4.804267-4.266666c-1.57501-1.399467-4.637257-2.139429-8.852723-2.139429-6.442667 0-15.279543 1.731048-26.264381 5.143162l-4.432457 1.377524-9.08922-14.166553 6.714515-2.796495c20.8896-8.697905 28.625676-12.959695 31.438019-15.004038 2.0736-1.515276 1.877333-1.822476 0.928914-3.298743l-33.878552-52.822552-51.126857 32.791162c4.259352-0.149943 8.139581-0.225524 11.578514-0.225524 14.567619 0 19.432838 1.327543 22.044038 2.484419 5.406476 2.41859 9.35741 5.545448 11.763809 9.300114 1.584762 2.46979 2.581943 5.753905 3.0464 10.033981 0.514438 4.972495-0.980114 9.628038-4.317866 13.494857-1.848076 2.135771-4.4288 3.309714-7.2704 3.309715-4.208152 0-8.705219-2.423467-14.578591-7.8592-5.766095-5.328457-16.043886-10.374095-30.545676-14.995505l-6.802286-2.167467 2.748953-5.466209-5.463772 3.504762-9.077028 8.721066-30.534705-4.806704L324.266667 643.983848c-3.337752-4.951771-7.573943-10.959238-12.821943-18.18941L251.288381 664.380952c-7.639771 4.900571-14.253105 10.25219-19.657143 15.909791l-2.204038 2.307657-15.826895-2.489295c-0.223086 2.328381-0.440076 4.839619-0.649753 7.547124l70.250058 109.530209-18.98301 24.506514z m-64.877714-126.550552l48.313295 75.32861c5.635657 8.786895 11.678476 18.6624 18.016305 29.44l2.624609-3.387734-67.803428-105.713371 0.148723-2.026057c0.2816-3.838781 0.581486-7.355733 0.893562-10.575238l-3.158552-0.496153c0.14019 4.872533 0.206019 10.196114 0.199924 15.984153a237.533867 237.533867 0 0 1-0.097524 6.48899l0.863086-5.0432z m169.339124 33.409219c4.304457 0 8.044495 0.60221 11.1872 1.796876 7.653181-11.585829 5.116343-18.49539 2.347885-22.812038l-51.258514-79.915886 1.349486-2.683123-5.76 0.980114c4.699429 6.601143 8.404114 12.014933 11.229866 16.414476l40.458972 63.083276c4.59459 7.160686 3.095162 14.538362-4.010667 19.732724-1.367771 0.994743-3.21219 2.128457-5.544228 3.403581z m-69.694172-24.572343c6.030629 2.992762 10.843429 6.170819 14.527391 9.5744 2.592914 2.399086 4.299581 3.560838 5.307733 4.120381 0.430324-0.872838 0.570514-1.777371 0.4608-2.831847-0.349867-3.2256-0.995962-4.44221-1.184914-4.73722-1.091048-1.700571-3.324343-3.34019-6.462172-4.745752-0.649752-0.285257-3.39139-1.162971-12.648838-1.379962z m-102.375619-50.423466c0.8704 6.111086 1.448229 13.834971 1.742019 23.287466l3.5584-2.283276c1.066667-9.862095 2.275962-16.644876 3.542552-21.416229l-8.842971 0.412039z m64.817981-56.43581l21.028571 32.787505 2.786743-1.787124-39.851885-62.133638 1.383619-3.310933-7.169219 1.571352c5.497905 7.809219 11.669943 17.047162 18.427123 27.577295l3.395048 5.295543z m105.699962 22.282971l-1.408 5.006629 6.546286-4.1984-5.138286-0.808229z m-20.8384-34.540495l-1.408 5.007848 6.547505-4.199619-5.139505-0.808229z m-42.533791-25.298895l-1.006933 3.581562 4.683581-3.004953-3.676648-0.576609zM157.227886 713.205029l-13.91421-5.185829 1.34461-5.301638c4.603124-18.149181 7.341105-35.463314 8.138362-51.462095 0.78019-15.750095-0.384-29.45219-3.459658-40.724724l-1.960228-7.185067 52.576305-3.551086-14.34941 12.014934c-0.427886 0.37181-4.291048 4.425143-7.887238 31.701333-2.39421 21.495467-8.497981 43.198171-18.140648 64.505905l-2.347885 5.188267z m5.546666-98.679467c1.816381 9.257448 2.62339 19.653486 2.411277 31.054019 0.151162-1.159314 0.291352-2.31741 0.420571-3.475505l0.014629-0.123124c1.765181-13.403429 3.665676-22.162286 5.5808-28.024685l-8.427277 0.569295z" p-id="5420"></path><path d="M499.398705 468.795733l-6.133029 10.94461c3.079314 14.382324 6.690133 29.594819 10.845867 45.622857 4.498286 16.594895 7.482514 34.928152 8.97219 55.004648 13.37661 3.104914 30.922362 1.397029 52.616534-5.122438 21.686857-6.496305 55.793371-25.451276 102.303695-56.852724l1.593295 2.484419c-8.448 10.091276-11.342019 18.557562-8.680838 25.429333-39.592229 23.057067-69.857524 37.393067-90.778819 43.034819-20.935924 5.650286-40.851505 6.740114-59.730895 3.259733-1.969981 10.609371-6.086705 22.999771-12.355048 37.13341-6.280533 14.14339-16.026819 29.357105-29.258362 45.639924l-3.457219-1.288534c10.036419-15.785448 17.616457-30.978438 22.740114-45.548495 5.124876-14.568838 8.612571-27.908876 10.496-40.032305-26.138819-12.04541-46.659048-26.926324-61.530209-44.664685 2.717257 24.747886 1.980952 48.206019-2.222324 70.364647l-5.319924-0.092647c1.461638-30.531048-2.221105-60.885333-11.053104-91.0592-8.822248-30.161676-15.937829-50.133333-21.335772-59.927162l26.744686-5.468648c-0.715581 4.36541-0.920381 9.170895-0.618057 14.417676 0.296229 5.268724 2.568533 16.663162 6.804724 34.193067l40.073752-25.7024 4.410514-15.681828 24.872229 3.911923z m-68.033829 43.634591a13746.505143 13746.505143 0 0 0 5.288229 24.650362c20.366629 18.102857 40.7552 30.728533 61.138895 37.902628-2.185752-26.641067-10.032762-56.660114-23.556876-90.049828l-42.870248 27.496838z m102.907124-58.992153l40.355352 62.918705c5.308952 8.278552 11.282286 16.916724 17.922438 25.89501l-11.194514 15.357562a659.382857 659.382857 0 0 0-19.776609-32.885029l-57.346438-89.409829c-4.597029-7.165562-11.470019-17.178819-20.578743-30.033676l27.807695-3.813181-3.738819 10.577677 23.895771 37.254095c24.123733-6.125714 43.360305-9.298895 57.6768-9.535391 14.325029-0.224305 22.501181 3.296305 24.528457 10.558172 2.03581 7.275276 2.11261 11.496838 0.248686 12.692724-2.489295 1.596952-6.389029 0.995962-11.704076-1.840762-11.875962-4.834743-34.578286-7.416686-68.096-7.736077z" p-id="5421"></path><path d="M470.765714 682.613029l-14.611504-5.444267 4.039923-6.353676c9.732876-15.307581 17.180038-30.211657 22.134248-44.30141 4.33859-12.333105 7.51421-23.905524 9.462248-34.472228-18.591695-8.995352-34.440533-19.575467-47.335619-31.587962 0.878933 19.063467-0.338895 37.462552-3.644953 54.8864l-0.958171 5.049295-16.739962-0.292571 0.301105-6.275658c1.422629-29.714286-2.216229-59.677257-10.815391-89.056304-8.650362-29.574095-15.656229-49.321448-20.823771-58.697143l-3.998477-7.254553 43.527315-8.900266-1.431162 8.7296c-0.638781 3.898514-0.822857 8.300495-0.547353 13.080381 0.160914 2.8672 1.143467 9.490286 4.671391 24.768609l30.882133-19.808305 5.249219-18.663619 38.870553 6.114743-9.287924 16.574172c2.9696 13.702095 6.431695 28.196571 10.302171 43.123809 4.199619 15.492876 7.150933 32.776533 8.772267 51.386514 11.785752 1.622552 26.972648-0.34499 45.162057-5.812419 4.188648-1.2544 8.885638-3.00861 14.090972-5.258971l-1.995581-3.552305a656.939886 656.939886 0 0 0-19.593753-32.580266l-57.346438-89.409829c-4.46781-6.964419-11.14819-16.711924-20.421486-29.799619l-5.808761-8.198095 47.669638-6.537753-6.078172 17.194667 19.924114 31.060114c22.496305-5.51619 40.917333-8.427276 54.807162-8.657676 0.465676-0.007314 0.9216-0.010971 1.368991-0.010971 16.547352 0 26.348495 5.054171 29.130362 15.023543 2.107733 7.531276 3.479162 15.736686-2.332038 19.463314-1.8944 1.21539-4.098438 1.832229-6.549943 1.832228-3.215848 0-6.82179-1.069105-11.012876-3.268266-9.841371-3.911924-28.0576-6.251276-54.243962-6.970515l34.204038 53.327239c5.252876 8.190781 11.205486 16.789943 17.692038 25.56099l2.6624 3.598629-12.896305 17.693257c19.921676-9.685333 45.816686-25.269638 77.380267-46.578591l5.173638-3.492571 7.377676 11.507809-2.873295 3.431619c-4.725029 5.64541-9.891352 13.58019-7.670248 19.318248l1.877334 4.85059-4.494629 2.616077c-39.837257 23.199695-70.877867 37.886781-92.259962 43.652876-13.420495 3.62301-26.641067 5.458895-39.292343 5.458895-5.813638 0-11.602895-0.386438-17.277562-1.154438-2.334476 9.697524-6.200076 20.657981-11.529752 32.676571-6.479238 14.589562-16.607086 30.405486-30.099505 47.012572l-2.762362 3.397486z m27.362743-101.050515c0.991086 0.47299 1.989486 0.941105 2.996419 1.405562l4.177676 1.924876-0.705828 4.545829a176.967924 176.967924 0 0 1-1.234895 6.992457c0.403505-1.695695 0.75459-3.345067 1.052038-4.946895l1.111771-5.984305 5.986743 1.103238a115.727848 115.727848 0 0 0 20.920076 1.887086c11.579733 0 23.732419-1.694476 36.117943-5.037105 19.665676-5.304076 48.392533-18.814781 85.425981-40.172495-0.288914-2.817219 0-5.763657 0.864305-8.828343-38.922971 25.404952-67.613257 40.704-87.391086 46.628571-15.190552 4.565333-28.689067 6.881524-40.117638 6.881524h-0.001219c-5.621029 0-10.878781-0.558324-15.624533-1.660343l-4.367848-1.013028-0.331581-4.472686c-1.457981-19.632762-4.410514-37.755124-8.777143-53.861181-4.142324-15.976838-7.812876-31.412419-10.923886-45.942247l-0.481523-2.249143 2.975695-5.310172-10.870248-1.710324-1.418971 5.041981 2.373485 5.858743c13.686248 33.790781 21.755124 64.689981 23.982324 91.838172l0.768 9.3696-6.506057-2.289372z m-55.939657-47.726933c16.112152 14.100724 32.37059 24.761295 48.471771 31.787886-2.844038-21.613714-9.337905-45.615543-19.367009-71.561753l-33.084952 21.219962a13423.993905 13423.993905 0 0 0 3.98019 18.553905z m-36.15939-66.312533c5.024914 11.37981 11.044571 29.124267 18.267428 53.818514a291.306057 291.306057 0 0 1 7.555657 32.613181 264.891733 264.891733 0 0 0-0.867962-9.448838l-1.073981-9.777981c-1.465295-6.808381-2.923276-13.624076-4.381257-20.438553l-1.008152-4.711619 0.045105-0.028038-0.447391-1.851733c-4.367848-18.080914-6.647467-29.621638-6.965638-35.282895a82.59901 82.59901 0 0 1-0.110933-7.144838l-11.012876 2.2528z m88.376076-57.563429c6.460952 9.230629 11.384686 16.494933 14.957714 22.064762l57.346438 89.409829a674.523429 674.523429 0 0 1 15.263695 24.977066l3.024457-4.148419c-5.625905-7.738514-10.831238-15.329524-15.503847-22.615771l-68.514133-106.821486 1.399466-3.960686-7.97379 1.094705z m70.204952 38.465829c18.275962 1.26659 31.492876 3.618133 40.054248 7.102171l0.572952 0.26941c1.746895 0.932571 3.030552 1.432381 3.941181 1.699352-0.16579-1.209295-0.515657-2.987886-1.227581-5.532038-1.410438-5.054171-10.235124-6.114743-17.390933-6.114743-0.384 0-0.777752 0.002438-1.172724 0.009752-6.972952 0.11459-15.255162 0.974019-24.777143 2.566096z" p-id="5422"></path><path d="M680.812495 489.142857c15.812267-16.364495 26.414324-27.83939 31.840305-34.440533l-35.576686-55.467886-4.6592 2.987886c-8.083505 5.18339-15.007695 10.794667-20.775009 16.830171l-13.166934-2.069943 35.414553-22.714514-32.388876-50.500267-6.524343 4.183772c-8.082286 5.18339-15.006476 10.793448-20.773791 16.828952l-13.166933-2.069943 58.71299-37.6576 4.811581-17.108114 25.401296 4.739657-36.347124 23.313067 32.390095 50.500267 9.319619-5.976991 4.8128-17.108114L725.539352 368.152381l-36.347123 23.313067 33.451885 52.155733 30.777296-36.097219 3.054933 2.7136a2324.074057 2324.074057 0 0 0-51.713219 75.232305l-3.208534 11.40419-20.742095-7.7312z m66.247924-99.740038c-10.71421-18.050438-21.369905-35.369448-31.990248-51.926552-10.619124-16.557105-21.907505-33.451886-33.852952-50.729448l16.894781-0.31939 77.352229-49.6128 1.744457-11.634591 20.350781 0.967924-4.270324 9.748724 24.956343 38.909562c11.333486 17.670095 20.483657 31.263695 27.48099 40.796647l-8.928305 12.737829-6.373181-9.934019-33.549409 21.518628 22.831543 35.598629 27.027505-17.334857 4.810361-17.106895 25.401296 4.740876-54.053791 34.668495 21.769753 33.941943 39.1424-25.105067 5.211428-18.533181 26.864153 4.968838-126.746819 81.29341c-8.081067 5.18339-15.006476 10.794667-20.773791 16.830171l-13.166933-2.071162 78.2848-50.210133-21.769753-33.941943-20.501943 13.151086c-8.082286 5.18339-15.007695 10.793448-20.77379 16.828952l-13.166933-2.071162 51.257295-32.875276-22.832762-35.598628-34.480762 22.117181 5.308952 8.279771-9.457371 11.906438z m-45.761829-98.00899l21.238248 33.114209 34.4832-22.117181-21.240686-33.114209-34.480762 22.117181z m24.42362 38.081828l22.302476 34.769676 34.480762-22.117181-22.300038-34.769676-34.4832 22.117181z m21.241904-67.371886l21.239467 33.11421 33.549409-21.518629-21.239466-33.114209-33.54941 21.518628z m24.424838 38.083048l22.301258 34.769676 33.549409-21.518628-22.301257-34.769677-33.54941 21.518629z" p-id="5423"></path><path d="M705.629867 504.89661l-35.669334-13.292496 6.469486-6.695009c13.168152-13.627733 22.781562-23.927467 28.661029-30.706591l-29.852038-46.544457c-7.43619 4.8128-13.889829 10.062019-19.189029 15.607467l-2.202819 2.305219-32.163352-5.05661 43.785752-28.084419-25.808457-40.238324-1.393372 0.893562c-7.634895 4.896914-14.248229 10.249752-19.658362 15.909791l-2.202819 2.305219-32.163352-5.05661 70.265905-45.06819 5.692952-20.241067 26.750781 4.990781a1954.296686 1954.296686 0 0 0-10.748343-15.709866l-6.462171-9.34522 26.531352-0.502247 73.5744-47.189333 2.1504-14.346972 34.700191 1.650591-6.514591 14.872381 23.1936 36.163047c11.254248 17.54941 20.4288 31.16739 27.262781 40.479695l2.588038 3.525486-16.654628 23.759238L828.586667 326.826667l-23.288686 14.93699 16.251124 25.337905 19.946057-12.792686 5.691733-20.241066 45.993448 8.584533-61.865448 39.68 15.189334 23.68 32.062171-20.562895 6.090362-21.658819 47.490438 8.784457-139.719924 89.614628c-7.633676 4.896914-14.24701 10.249752-19.658362 15.91101l-2.202819 2.305219-32.162133-5.059048 86.654781-55.578819-15.188114-23.68-15.372191 9.859657c-7.638552 4.899352-14.251886 10.25219-19.657143 15.908572l-2.204038 2.306438-16.732647-2.631924a2334.610286 2334.610286 0 0 0-45.532648 66.505143l-4.742095 16.860648z m-13.986134-18.221105l5.835581 2.174781 1.672534-5.944076 0.521752-0.791162c3.031771-4.600686 6.08061-9.191619 9.147733-13.7728-4.549486 5.007848-10.286324 11.132343-17.1776 18.333257z m-12.725638-95.861029l40.065219 62.466438 1.347048-1.978514-71.740952-111.850057-1.854172 1.188571 32.182857 50.173562z m18.695315 2.489295l25.725561 40.107886 29.481448-34.575847 8.072533 7.169219 39.211886-25.150172-16.251124-25.337905-24.221257 15.535543 4.372724 6.818134-17.670095 22.247619-4.514134-7.604419a1924.281295 1924.281295 0 0 0-11.964952-19.887543l-32.24259 20.677485z m119.332571-8.768609l21.560076 33.615238 0.922819-0.591238-97.489676-152.00061-0.924038 0.592458 75.930819 118.384152z m76.435505-6.735238l-1.768838 6.290286 8.006704-5.135848-6.237866-1.154438z m-153.264762-11.756495c2.544152 4.167924 5.098057 8.390705 7.658057 12.661028l1.261714-1.589638-7.631238-11.897905-1.288533 0.826515z m-78.08-28.206324l25.808457 40.238324 2.23939-1.436039 5.695391-20.241066 27.216457 5.078552a1601.529905 1601.529905 0 0 0-13.057219-20.709181 1639.107048 1639.107048 0 0 0-15.506286-23.708038l-32.39619 20.777448z m42.459428 32.5888l-1.366552 4.856685 6.174476-3.960685-4.807924-0.896zM739.171962 364.495238l2.011428 0.375467-35.3536-55.120457-1.134933 0.727771a1653.419886 1653.419886 0 0 1 15.506286 23.708038A1673.747505 1673.747505 0 0 1 739.171962 364.495238z m-5.027352-33.178819l15.720838 24.508952 24.220038-15.535542-15.719619-24.508953-24.221257 15.535543z m121.760914 16.777752l-1.366553 4.856686 6.174477-3.960686-4.807924-0.896z m-76.095391-46.067809l15.720838 24.508952 23.288686-14.93699-15.720838-24.508953-23.288686 14.936991z m-110.888228 12.932876l-1.366553 4.856686 6.173258-3.959467-4.806705-0.897219z m165.321143-1.891962l2.779428 4.333714 1.220267-1.73958c-6.670629-9.314743-14.927238-21.661257-25.12701-37.563734l-26.717866-41.656076 2.026057-4.623848-6.002591-0.285257-0.098743 0.655848 0.031696-0.020724 51.888762 80.899657z m-124.523277-19.833905l14.65661 22.853486 24.221257-15.535543-14.656609-22.852266-24.221258 15.534323z m-5.970895 15.823239l1.859048 0.347428-10.786134-16.817981-2.168685 0.041448c3.777829 5.530819 7.478857 11.011657 11.095771 16.429105z m51.636419-45.112077l14.65661 22.853486 23.288685-14.93699-14.656609-22.853486-23.288686 14.93699z" p-id="5424"></path></svg>