<?xml version="1.0" encoding="UTF-8"?>
<svg width="44px" height="44px" viewBox="0 0 44 44" version="1.1" xmlns="http://www.w3.org/2000/svg" xmlns:xlink="http://www.w3.org/1999/xlink">
    <title>dfh</title>

        <path d="M14.8965423,9 L15.3554408,9.0047566 L15.7431139,9.02018779 C16.2196828,9.04865337 16.5492466,9.11023009 16.9035228,9.22350018 C17.4144744,9.38686291 17.8649684,9.64336596 18.2662194,9.99939475 C18.5792097,10.2771101 18.8199752,10.5613181 19.1360475,11.0487741 L19.1360475,11.0487741 L19.359538,11.4060148 L21.9993162,15.854 L24.640462,11.4060148 L24.8639525,11.0487741 C25.1800248,10.5613181 25.4207903,10.2771101 25.7337806,9.99939475 C26.1350316,9.64336596 26.5855256,9.38686291 27.0964772,9.22350018 C27.4507534,9.11023009 27.7803172,9.04865337 28.2568861,9.02018779 L28.2568861,9.02018779 L28.6445592,9.0047566 L29.1034577,9 L36.7265493,9 C38.132365,9 39.2720038,10.1396388 39.2720038,11.5454545 C39.2720038,11.8660604 39.211437,12.1837805 39.0934893,12.4819021 L39.0934893,12.4819021 L36.9083162,18.003 L36.9090909,31.037632 C36.9090909,32.3509588 36.789912,33.0556727 36.4535095,33.743103 L36.3780627,33.8903604 C36.0154792,34.5683326 35.4774235,35.1063883 34.7994513,35.4689717 C34.0623319,35.8631875 33.3538587,36 31.9467229,36 L31.9467229,36 L12.0532771,36 C10.6461413,36 9.9376681,35.8631875 9.20054869,35.4689717 C8.52257651,35.1063883 7.98452083,34.5683326 7.62193734,33.8903604 C7.22772157,33.153241 7.09090909,32.4447678 7.09090909,31.037632 L7.09090909,31.037632 L7.09031621,18.003 L4.90651073,12.4819021 C4.41001247,11.2269662 4.98039429,9.81374361 6.18336812,9.2451209 L6.33700319,9.17851456 C6.63512474,9.06056684 6.95284484,9 7.27345071,9 L7.27345071,9 L14.8965423,9 Z M34.9083162,25 L9.09031621,25 L9.09194938,31.2494379 L9.1006179,31.6214769 L9.11883976,31.9332836 C9.15379918,32.3609386 9.22411716,32.6198629 9.34381598,32.8655456 L9.34381598,32.8655456 L9.38556374,32.9471627 C9.56174763,33.2765979 9.81431118,33.5291615 10.1437464,33.7053454 C10.4155905,33.8507292 10.6824533,33.9332255 11.1576255,33.9720693 L11.1576255,33.9720693 L11.4694322,33.9902912 C11.526135,33.9925064 11.5853474,33.9943236 11.6472828,33.9957619 L11.6472828,33.9957619 L12.0532771,34 L31.9467229,34 C32.0204033,34 32.0909342,33.9996596 32.1585288,33.9989597 L32.1585288,33.9989597 L32.5305678,33.9902912 L32.8423745,33.9720693 C33.3175467,33.9332255 33.5844095,33.8507292 33.8562536,33.7053454 C34.1856888,33.5291615 34.4382524,33.2765979 34.6144363,32.9471627 C34.7598201,32.6753185 34.8423164,32.4084558 34.8811602,31.9332836 L34.8811602,31.9332836 L34.8993821,31.6214769 L34.9080506,31.2494379 L34.9083162,25 Z M34.909,18.812 L9.09,18.812 L9.09031621,23 L34.9083162,23 L34.909,18.812 Z M36.7265493,11 L29.1034577,11 L28.7392379,11.0028292 L28.4475499,11.0119089 L28.2133653,11.0281277 C28.1081441,11.0381698 28.0188511,11.0512223 27.9370329,11.0677848 L27.9370329,11.0677848 L27.7808581,11.1057377 L27.7055491,11.1285018 C27.4599076,11.207039 27.25408,11.3242334 27.0611774,11.4953954 C27.0414605,11.5128901 27.0221823,11.5305186 27.003167,11.5485409 L27.003167,11.5485409 L26.8908248,11.6634766 C26.8721584,11.6841127 26.8534035,11.705662 26.8343845,11.7283844 L26.8343845,11.7283844 L26.7156945,11.8808741 C26.694916,11.9093279 26.6735219,11.9394745 26.6513364,11.9715735 L26.6513364,11.9715735 L26.5073229,12.1896755 L26.335885,12.4671071 L23.755,16.812 L35.229,16.812 L37.2337507,11.7461219 C37.2506004,11.7035331 37.2619852,11.6590778 37.2677029,11.613817 L37.2677029,11.613817 L37.2720038,11.5454545 C37.2720038,11.2442083 37.0277955,11 36.7265493,11 L36.7265493,11 Z M15.0886579,11.0006888 L7.27345071,11 C7.20474945,11 7.13666658,11.0129786 7.07278338,11.0382531 C6.79266377,11.1490786 6.65542378,11.4660023 6.76624929,11.7461219 L6.76624929,11.7461219 L8.77,16.812 L20.244,16.812 L17.7627538,12.6319686 L17.5744409,12.3201957 L17.4177694,12.0739877 L17.2843055,11.8808741 L17.1656155,11.7283844 C17.1465965,11.705662 17.1278416,11.6841127 17.1091752,11.6634766 L17.1091752,11.6634766 L16.996833,11.5485409 L16.9388226,11.4953954 C16.74592,11.3242334 16.5400924,11.207039 16.2944509,11.1285018 C16.2693435,11.1204745 16.2443449,11.1128926 16.2191419,11.1057377 L16.2191419,11.1057377 L16.0629671,11.0677848 C15.9811489,11.0512223 15.8918559,11.0381698 15.7866347,11.0281277 L15.7866347,11.0281277 L15.5524501,11.0119089 C15.5090448,11.0098254 15.4632436,11.0080393 15.4147333,11.0065322 L15.4147333,11.0065322 L15.0886579,11.0006888 Z" id="mix" fill-rule="nonzero"></path>
</svg>