<?xml version="1.0" encoding="UTF-8"?>
<svg width="44px" height="44px" viewBox="0 0 44 44" version="1.1" xmlns="http://www.w3.org/2000/svg" xmlns:xlink="http://www.w3.org/1999/xlink">
    <title>dpzfkje</title>
        <g id="编组">
            <path d="M27.8369501,5.69935484 C30.1515577,5.69935484 32.0279179,7.57571501 32.0279179,9.89032258 L32.0279179,9.89032258 L32.0273548,10.0123548 L32.2434765,10.029761 L32.4639327,10.0569055 L32.5927599,10.0770611 L32.8796894,10.1360955 L33.1002843,10.1958687 L33.3360119,10.274709 C33.8346435,10.4556817 34.2778812,10.7227712 34.6791799,11.0904756 L34.8763967,11.2827795 L35.0223098,11.4422575 L35.1131183,11.5510018 L35.2210455,11.6909792 L35.3617882,11.8924997 C35.4224637,11.9851755 35.4822897,12.0837528 35.5480946,12.2006698 L35.6161453,12.3241606 L35.7741491,12.6322058 L36.002083,13.1186728 L38.619,18.974 L38.7083152,19.1338396 C39.0520581,19.7922996 39.2527163,20.5163766 39.2930633,21.2668303 L39.3006452,21.5494102 C39.3006452,23.6772706 38.0257412,25.5057839 36.1884575,26.3589516 L35.7905241,33.3701712 C35.6381494,36.062356 33.4666903,38.1832581 30.7967187,38.2959349 L30.5730997,38.3006452 L13.4269003,38.3006452 C10.7304068,38.3006452 8.49018783,36.2525049 8.22681498,33.5931667 L8.20947587,33.3701712 L7.81254416,26.3594166 C5.97472217,25.5064485 4.69935484,23.6776573 4.69935484,21.5494102 C4.69935484,20.7916484 4.86236298,20.0547576 5.15595486,19.4105304 L5.27210961,19.173429 L8.26211122,12.8690088 L8.44262248,12.510497 L8.61341325,12.1980755 L8.76068292,11.9537597 L8.86710886,11.7946576 L9.03776839,11.564924 L9.12471813,11.4605286 L9.32162739,11.245606 L9.35207297,11.2147609 C9.72009175,10.8450675 10.1407453,10.5593444 10.6354712,10.3501355 L10.8891062,10.2518727 L11.1089526,10.181167 C11.3721324,10.1045894 11.6406293,10.054924 11.9704898,10.024493 L11.9720821,9.89032258 C11.9720821,7.57571501 13.8484423,5.69935484 16.1630499,5.69935484 L16.1630499,5.69935484 Z M31.1021172,12.5863594 L12.8771981,12.5869994 L12.5114796,12.5954052 C12.4138903,12.5992781 12.3292944,12.6041457 12.2555816,12.6098801 L12.0649829,12.6295562 L11.9270228,12.6536669 L11.8738259,12.6671456 L11.7251661,12.7148983 C11.570095,12.7698691 11.4368234,12.843411 11.3145885,12.9423344 L11.1815319,13.0629568 L11.0898758,13.1644046 L10.9721767,13.3229772 L10.871917,13.4874908 L10.7487395,13.7133309 L10.5999781,14.0093036 L7.5994825,20.334198 C7.40363369,20.708121 7.30064516,21.1204938 7.30064516,21.5494102 C7.30064516,23.0432423 8.56668178,24.2707834 10.1481481,24.2707834 C10.5998472,24.2707834 11.0335931,24.1709089 11.4246466,23.9828368 L11.6165012,23.8815051 C12.2386009,23.5223605 13.0340566,23.7355279 13.3932012,24.3576276 C13.7523457,24.9797274 13.5391784,25.7751831 12.9170786,26.1343277 C12.1690503,26.566172 11.3254382,26.8176363 10.4467582,26.8641805 L10.8066096,33.2231762 C10.8821148,34.5572155 11.9447825,35.6119456 13.2610934,35.6941895 L13.4269003,35.6993548 L30.5730997,35.6993548 C31.9092741,35.6993548 33.0223685,34.6979864 33.1788638,33.3884263 L33.1933904,33.2231762 L33.5533548,26.8633548 L33.5384222,26.8633767 C32.7062759,26.8170985 31.9055943,26.586977 31.1876383,26.1933257 C30.5577761,25.8479758 30.3271333,25.0574102 30.6724832,24.427548 C30.9962487,23.8370522 31.7113171,23.5974328 32.3184264,23.8543466 L32.4382609,23.9123929 C32.8643652,24.1460235 33.3469238,24.2707834 33.8518519,24.2707834 C35.4333182,24.2707834 36.6993548,23.0432423 36.6993548,21.5494102 C36.6993548,21.1416859 36.6062123,20.7488121 36.4290695,20.3902808 L36.3335405,20.2139674 L36.2657163,20.0827769 L33.5808689,14.0778321 L33.443057,13.7858527 L33.2817574,13.4767839 L33.2094155,13.3526984 L33.0827979,13.1753606 L32.9836758,13.0669512 C32.8285337,12.9064251 32.6583958,12.7960946 32.4485459,12.719932 L32.3861078,12.6968221 L32.2949365,12.669216 L32.1376053,12.6378662 L32.0126248,12.6205933 L31.7864961,12.6022452 L31.4895374,12.5904719 L31.1021172,12.5863594 Z M22,14.1919359 C22.5670123,14.1919359 23.0338239,14.6209466 23.0935453,15.1720788 L23.1,15.2919359 L23.0993548,16.4953548 L25.6235985,16.4958954 C26.2311118,16.4958954 26.7235985,16.9883821 26.7235985,17.5958954 C26.7235985,18.1629077 26.2945878,18.6297192 25.7434556,18.6894407 L25.6235985,18.6958954 L20.0494613,18.6958954 C19.2489459,18.6958954 18.6,19.3448413 18.6,20.1453567 C18.6,20.8987829 19.1748448,21.5179469 19.9098685,21.5881828 L20.0494613,21.594818 L24.0494613,21.594818 C26.0103697,21.594818 27.6,23.1844483 27.6,25.1453567 C27.6,27.0430099 26.1112723,28.5929522 24.2380267,28.6909738 L24.0494613,28.6958954 L23.0993548,28.6953548 L23.1,30.5958954 C23.1,31.2034086 22.6075132,31.6958954 22,31.6958954 C21.4329877,31.6958954 20.9661761,31.2668847 20.9064547,30.7157525 L20.9,30.5958954 L20.8993548,28.6953548 L18.3764015,28.6958954 C17.7688882,28.6958954 17.2764015,28.2034086 17.2764015,27.5958954 C17.2764015,27.028883 17.7054122,26.5620715 18.2565444,26.50235 L18.3764015,26.4958954 L24.0494613,26.4958954 C24.7953432,26.4958954 25.4,25.8912386 25.4,25.1453567 C25.4,24.4433502 24.8643871,23.8664427 24.1795272,23.8010004 L24.0494613,23.794818 L20.0494613,23.794818 C18.0339195,23.794818 16.4,22.1608985 16.4,20.1453567 C16.4,18.1948323 17.9302056,16.6017066 19.8556422,16.500954 L20.0494613,16.4958954 L20.8993548,16.4953548 L20.9,15.2919359 C20.9,14.6844227 21.3924868,14.1919359 22,14.1919359 Z M27.8369501,8.30064516 L16.1630499,8.30064516 C15.2850953,8.30064516 14.5733724,9.01236798 14.5733724,9.89032258 L14.5733724,9.89032258 L14.573,9.985 L29.426,9.985 L29.4266276,9.89032258 C29.4266276,9.06114324 28.7917884,8.38023854 27.9816432,8.30714165 L27.9816432,8.30714165 L27.8369501,8.30064516 Z" id="形状结合"  fill-rule="nonzero"></path>
        </g>
</svg>