<?xml version="1.0" encoding="UTF-8"?>
<svg width="44px" height="44px" viewBox="0 0 44 44" version="1.1" xmlns="http://www.w3.org/2000/svg" xmlns:xlink="http://www.w3.org/1999/xlink">
    <title>dqh</title>

        <path d="M10.8458278,9 L33.4193798,9.00181725 C34.6167829,9.01894119 35.2646034,9.15935514 35.9368674,9.51888586 C36.6000248,9.8735463 37.1264537,10.3999752 37.4811141,11.0631326 C37.8663256,11.7834154 38,12.4756382 38,13.8458278 L38,13.8458278 L37.9981828,30.4193798 C37.9810588,31.6167829 37.8406449,32.2646034 37.4811141,32.9368674 C37.1264537,33.6000248 36.6000248,34.1264537 35.9368674,34.4811141 C35.2165846,34.8663256 34.5243618,35 33.1541722,35 L33.1541722,35 L10.8458278,35 C9.47563815,35 8.78341544,34.8663256 8.06313259,34.4811141 C7.39997522,34.1264537 6.8735463,33.6000248 6.51888586,32.9368674 C6.13367437,32.2165846 6,31.5243618 6,30.1541722 L6,30.1541722 L6.00181725,13.5806202 C6.01894119,12.3832171 6.15935514,11.7353966 6.51888586,11.0631326 C6.8735463,10.3999752 7.39997522,9.8735463 8.06313259,9.51888586 C8.78341544,9.13367437 9.47563815,9 10.8458278,9 L10.8458278,9 Z M27.403347,27.4029401 C27.403347,28.2313672 26.7317741,28.9029401 25.903347,28.9029401 C25.7421239,28.9029401 25.5819551,28.8769482 25.4290054,28.825965 L25.4290054,28.825965 L21.904347,27.650653 L18.3776887,28.825965 C17.638004,29.0725266 16.8420126,28.7107899 16.5325185,28.0121571 L16.5325185,28.0121571 L16.4803221,27.8772817 C16.4293388,27.724332 16.403347,27.5641632 16.403347,27.4029401 L16.403347,27.4029401 L16.403,19.999 L8,19.999 L8,30.1541722 L8.00467769,30.5719151 C8.02375106,31.3313085 8.10330814,31.6585871 8.28251225,31.9936697 C8.45077309,32.3082901 8.69170989,32.5492269 9.0063303,32.7174877 C9.34141286,32.8966919 9.66869148,32.9762489 10.4280849,32.9953223 L10.4280849,32.9953223 L10.8458278,33 L33.1541722,33 L33.5719151,32.9953223 C34.3313085,32.9762489 34.6585871,32.8966919 34.9936697,32.7174877 C35.3082901,32.5492269 35.5492269,32.3082901 35.7174877,31.9936697 C35.9265592,31.60274 36,31.2224324 36,30.1541722 L36,30.1541722 L36,19.999 L27.403,19.999 Z M25.403347,11.096653 L18.403347,11.096653 L18.403347,26.708653 L21.4290054,25.7006743 C21.6855889,25.6151465 21.9595214,25.6008918 22.221888,25.6579104 L22.221888,25.6579104 L22.3776887,25.7006743 L25.403347,26.708653 L25.403347,11.096653 Z M33.1541722,11 L27.403,11 L27.403,17.999 L36,17.999 L36,13.8458278 L35.9953223,13.4280849 C35.9762489,12.6686915 35.8966919,12.3414129 35.7174877,12.0063303 C35.5492269,11.6917099 35.3082901,11.4507731 34.9936697,11.2825123 C34.60274,11.0734408 34.2224324,11 33.1541722,11 L33.1541722,11 Z M16.403,17.999 L16.403,11 L10.8458278,11 L10.4280849,11.0046777 C9.66869148,11.0237511 9.34141286,11.1033081 9.0063303,11.2825123 C8.69170989,11.4507731 8.45077309,11.6917099 8.28251225,12.0063303 C8.07344079,12.39726 8,12.7775676 8,13.8458278 L8,13.8458278 L8,17.999 L16.403,17.999 Z" id="mix"  fill-rule="nonzero"></path>
</svg>