<?xml version="1.0" encoding="UTF-8"?>
<svg width="44px" height="44px" viewBox="0 0 44 44" version="1.1" xmlns="http://www.w3.org/2000/svg" xmlns:xlink="http://www.w3.org/1999/xlink">
    <title>dqrzfpz</title>

        <path d="M32,5 C34.6887547,5 36.8818181,7.12230671 36.9953805,9.78311038 L37,10 L37,19 C37,19.5522847 36.5522847,20 36,20 C35.4871642,20 35.0644928,19.6139598 35.0067277,19.1166211 L35,19 L35,10 C35,8.40231912 33.75108,7.09633912 32.1762728,7.00509269 L32,7 L12,7 C10.4023191,7 9.09633912,8.24891996 9.00509269,9.82372721 L9,10 L9,33 C9,34.5976809 10.24892,35.9036609 11.8237272,35.9949073 L12,36 L23,36 C23.5522847,36 24,36.4477153 24,37 C24,37.5128358 23.6139598,37.9355072 23.1166211,37.9932723 L23,38 L12,38 C9.3112453,38 7.11818189,35.8776933 7.00461951,33.2168896 L7,33 L7,10 C7,7.3112453 9.12230671,5.11818189 11.7831104,5.00461951 L12,5 L32,5 Z M31.65,34.7734723 C32.3127417,34.7734723 32.85,35.3107306 32.85,35.9734723 C32.85,36.636214 32.3127417,37.1734723 31.65,37.1734723 C30.9872583,37.1734723 30.45,36.636214 30.45,35.9734723 C30.45,35.3107306 30.9872583,34.7734723 31.65,34.7734723 Z M31.65,21.8278866 C34.2181241,21.8278866 36.3,23.9097625 36.3,26.4778866 C36.3,28.017473 35.7040185,29.01632 34.4032046,30.2595923 L33.6822002,30.9275547 C33.0716057,31.5006 32.8365654,31.8334733 32.8040183,32.1556772 L32.8,32.2361387 L32.8,33.0299729 C32.8,33.6651003 32.2851275,34.1799729 31.65,34.1799729 C31.0572144,34.1799729 30.5691841,33.7314617 30.506748,33.1552781 L30.5,33.0299729 L30.5,32.2361387 C30.5,31.1433154 30.9573237,30.3727712 31.910897,29.4394398 L32.6201426,28.7788502 C33.6448556,27.8333311 34,27.286406 34,26.4778866 C34,25.1800174 32.9478692,24.1278866 31.65,24.1278866 C30.3521308,24.1278866 29.3,25.1800174 29.3,26.4778866 C29.3,27.113014 28.7851275,27.6278866 28.15,27.6278866 C27.5148725,27.6278866 27,27.113014 27,26.4778866 C27,23.9097625 29.0818759,21.8278866 31.65,21.8278866 Z M20,29 C20.5522847,29 21,29.4477153 21,30 C21,30.5128358 20.6139598,30.9355072 20.1166211,30.9932723 L20,31 L13,31 C12.4477153,31 12,30.5522847 12,30 C12,29.4871642 12.3860402,29.0644928 12.8833789,29.0067277 L13,29 L20,29 Z M20,24 C20.5522847,24 21,24.4477153 21,25 C21,25.5128358 20.6139598,25.9355072 20.1166211,25.9932723 L20,26 L13,26 C12.4477153,26 12,25.5522847 12,25 C12,24.4871642 12.3860402,24.0644928 12.8833789,24.0067277 L13,24 L20,24 Z M17.2138118,10.7564237 C18.8706661,10.7564237 20.2138118,12.0995695 20.2138118,13.7564237 L20.2138118,13.7564237 L20.2138118,16.7564237 C20.2138118,18.413278 18.8706661,19.7564237 17.2138118,19.7564237 L17.2138118,19.7564237 L14.2138118,19.7564237 C12.5569576,19.7564237 11.2138118,18.413278 11.2138118,16.7564237 L11.2138118,16.7564237 L11.2138118,13.7564237 C11.2138118,12.0995695 12.5569576,10.7564237 14.2138118,10.7564237 L14.2138118,10.7564237 Z M31,17 C31.5522847,17 32,17.4477153 32,18 C32,18.5128358 31.6139598,18.9355072 31.1166211,18.9932723 L31,19 L24,19 C23.4477153,19 23,18.5522847 23,18 C23,17.4871642 23.3860402,17.0644928 23.8833789,17.0067277 L24,17 L31,17 Z M17.2138118,12.7564237 L14.2138118,12.7564237 C13.6615271,12.7564237 13.2138118,13.204139 13.2138118,13.7564237 L13.2138118,13.7564237 L13.2138118,16.7564237 C13.2138118,17.3087085 13.6615271,17.7564237 14.2138118,17.7564237 L14.2138118,17.7564237 L17.2138118,17.7564237 C17.7660966,17.7564237 18.2138118,17.3087085 18.2138118,16.7564237 L18.2138118,16.7564237 L18.2138118,13.7564237 C18.2138118,13.204139 17.7660966,12.7564237 17.2138118,12.7564237 L17.2138118,12.7564237 Z M31,12 C31.5522847,12 32,12.4477153 32,13 C32,13.5128358 31.6139598,13.9355072 31.1166211,13.9932723 L31,14 L24,14 C23.4477153,14 23,13.5522847 23,13 C23,12.4871642 23.3860402,12.0644928 23.8833789,12.0067277 L24,12 L31,12 Z" id="mix" fill-rule="nonzero"></path>
</svg>