<?xml version="1.0" encoding="UTF-8"?>
<svg width="140px" height="140px" viewBox="0 0 140 140" version="1.1" xmlns="http://www.w3.org/2000/svg" xmlns:xlink="http://www.w3.org/1999/xlink">
    <title>img_dsh</title>
    <g id="img_dsh" stroke="none" stroke-width="1" fill="none" fill-rule="evenodd">
        <path d="M69.8535534,9.14644661 C103.266781,9.14644661 130.353553,36.2332192 130.353553,69.6464466 C130.353553,103.059674 103.266781,130.146447 69.8535534,130.146447 C36.440326,130.146447 9.35355339,103.059674 9.35355339,69.6464466 C9.35355339,36.2332192 36.440326,9.14644661 69.8535534,9.14644661 Z M69.8535534,12.1464466 C38.0971803,12.1464466 12.3535534,37.8900735 12.3535534,69.6464466 C12.3535534,101.40282 38.0971803,127.146447 69.8535534,127.146447 C101.609927,127.146447 127.353553,101.40282 127.353553,69.6464466 C127.353553,37.8900735 101.609927,12.1464466 69.8535534,12.1464466 Z M69.8535534,14.1464466 C100.505357,14.1464466 125.353553,38.994643 125.353553,69.6464466 C125.353553,100.29825 100.505357,125.146447 69.8535534,125.146447 C39.2017498,125.146447 14.3535534,100.29825 14.3535534,69.6464466 C14.3535534,38.994643 39.2017498,14.1464466 69.8535534,14.1464466 Z M69.8535534,15.1464466 C39.7540345,15.1464466 15.3535534,39.5469277 15.3535534,69.6464466 C15.3535534,99.7459655 39.7540345,124.146447 69.8535534,124.146447 C99.9530723,124.146447 124.353553,99.7459655 124.353553,69.6464466 C124.353553,39.5469277 99.9530723,15.1464466 69.8535534,15.1464466 Z M68.3991485,111.881821 L69.6674169,112.548589 C69.7839465,112.609852 69.9231602,112.609852 70.0396898,112.548589 L71.3079583,111.881821 C71.5523806,111.75332 71.8546942,111.847294 71.9831946,112.091716 C72.0343641,112.189046 72.0520215,112.30053 72.033433,112.408909 L71.7912153,113.821147 C71.7689601,113.950904 71.8119795,114.083304 71.906254,114.175199 L72.9323047,115.175352 C73.1300465,115.368102 73.1340927,115.684659 72.9413421,115.882401 C72.8645878,115.961142 72.7640166,116.012386 72.655198,116.028198 L71.2372308,116.234241 C71.1069467,116.253172 70.9943205,116.335 70.9360557,116.453057 L70.3019214,117.737954 C70.1797103,117.985581 69.8798974,118.08725 69.6322705,117.965039 C69.5336642,117.916374 69.4538505,117.83656 69.4051854,117.737954 L68.7710511,116.453057 C68.7127863,116.335 68.6001601,116.253172 68.469876,116.234241 L67.0519087,116.028198 C66.7786363,115.988489 66.5892956,115.734768 66.6290044,115.461496 C66.6448166,115.352677 66.6960602,115.252106 66.7748021,115.175352 L67.8008528,114.175199 C67.8951272,114.083304 67.9381466,113.950904 67.9158915,113.821147 L67.6736737,112.408909 C67.6269932,112.136741 67.8097871,111.878263 68.0819554,111.831582 C68.1903342,111.812994 68.3018182,111.830651 68.3991485,111.881821 Z M47.2267367,105.294047 C47.3298897,105.332138 47.417609,105.403172 47.4763147,105.496151 L48.2412834,106.707723 C48.3115693,106.819044 48.4321319,106.888651 48.5636811,106.89386 L49.995418,106.950556 C50.2713441,106.961482 50.4861687,107.194023 50.4752422,107.469949 C50.4708912,107.579824 50.4304408,107.685201 50.3601534,107.769765 L49.4442678,108.87169 C49.3601155,108.972936 49.3311713,109.109107 49.3668679,109.235828 L49.7553778,110.615011 C49.8302519,110.880808 49.6754777,111.156978 49.4096799,111.231852 C49.3038378,111.261667 49.1911188,111.25576 49.088973,111.215044 L47.757956,110.684499 C47.635661,110.635752 47.49721,110.650303 47.3877225,110.723412 L46.1960979,111.519098 C45.9664466,111.672443 45.6559662,111.610585 45.5026207,111.380934 C45.4415577,111.289485 45.4123438,111.180458 45.4195017,111.070729 L45.5127735,109.640909 C45.5213434,109.509536 45.4647201,109.382358 45.3613565,109.300821 L44.2363822,108.413399 C44.0195757,108.242374 43.9824625,107.927975 44.1534876,107.711168 C44.2215907,107.624835 44.3162545,107.563359 44.4228241,107.536259 L45.8114862,107.183127 C45.9390777,107.150681 46.0425337,107.057529 46.0881389,106.934028 L46.5844911,105.589885 C46.6801487,105.330841 46.9676918,105.198389 47.2267367,105.294047 Z M92.9205114,105.340307 C93.0134906,105.399013 93.0845243,105.486732 93.1226157,105.589885 L93.6189679,106.934028 C93.6645731,107.057529 93.7680291,107.150681 93.8956205,107.183127 L95.2842827,107.536259 C95.5519074,107.604315 95.7136898,107.876438 95.6456338,108.144063 C95.6185335,108.250633 95.5570581,108.345296 95.4707246,108.413399 L94.3457503,109.300821 C94.2423867,109.382358 94.1857634,109.509536 94.1943333,109.640909 L94.2876051,111.070729 C94.3055805,111.346286 94.0967697,111.584241 93.821213,111.602216 C93.7114848,111.609374 93.6024572,111.580161 93.5110088,111.519098 L92.3193843,110.723412 C92.2098968,110.650303 92.0714458,110.635752 91.9491508,110.684499 L90.6181337,111.215044 C90.3616185,111.317291 90.0707839,111.192233 89.9685365,110.935717 C89.9278211,110.833572 89.9219137,110.720853 89.951729,110.615011 L90.3402388,109.235828 C90.3759355,109.109107 90.3469913,108.972936 90.2628389,108.87169 L89.3469534,107.769765 C89.1704428,107.557401 89.199508,107.242155 89.4118723,107.065645 C89.4964369,106.995357 89.6018136,106.954907 89.7116888,106.950556 L91.1434256,106.89386 C91.2749749,106.888651 91.3955374,106.819044 91.4658234,106.707723 L92.230792,105.496151 C92.3782178,105.262655 92.6870156,105.192882 92.9205114,105.340307 Z M69.8535534,33.6464466 C89.7358044,33.6464466 105.853553,49.7641956 105.853553,69.6464466 C105.853553,89.5286976 89.7358044,105.646447 69.8535534,105.646447 C49.9713024,105.646447 33.8535534,89.5286976 33.8535534,69.6464466 C33.8535534,49.7641956 49.9713024,33.6464466 69.8535534,33.6464466 Z M69.8535534,35.6464466 C51.0758719,35.6464466 35.8535534,50.8687651 35.8535534,69.6464466 C35.8535534,88.4241281 51.0758719,103.646447 69.8535534,103.646447 C88.6312349,103.646447 103.853553,88.4241281 103.853553,69.6464466 C103.853553,50.8687651 88.6312349,35.6464466 69.8535534,35.6464466 Z M69.8535534,38.1464466 C87.250523,38.1464466 101.353553,52.249477 101.353553,69.6464466 C101.353553,87.0434162 87.250523,101.146447 69.8535534,101.146447 C52.4565838,101.146447 38.3535534,87.0434162 38.3535534,69.6464466 C38.3535534,52.249477 52.4565838,38.1464466 69.8535534,38.1464466 Z M69.8535534,39.1464466 C53.0088685,39.1464466 39.3535534,52.8017617 39.3535534,69.6464466 C39.3535534,86.4911315 53.0088685,100.146447 69.8535534,100.146447 C86.6982383,100.146447 100.353553,86.4911315 100.353553,69.6464466 C100.353553,52.8017617 86.6982383,39.1464466 69.8535534,39.1464466 Z M107.677055,89.0247578 C107.786931,89.0291088 107.892307,89.0695592 107.976872,89.1398466 L109.078797,90.0557322 C109.180043,90.1398845 109.316214,90.1688287 109.442935,90.1331321 L110.822117,89.7446222 C111.087915,89.6697481 111.364084,89.8245223 111.438958,90.0903201 C111.468774,90.1961622 111.462866,90.3088812 111.422151,90.411027 L110.891605,91.742044 C110.842858,91.864339 110.85741,92.00279 110.930519,92.1122775 L111.726204,93.3039021 C111.87955,93.5335534 111.817692,93.8440338 111.58804,93.9973793 C111.496592,94.0584423 111.387564,94.0876562 111.277836,94.0804983 L109.848016,93.9872265 C109.716643,93.9786566 109.589465,94.0352799 109.507928,94.1386435 L108.620506,95.2636178 C108.449481,95.4804243 108.135082,95.5175375 107.918275,95.3465124 C107.831942,95.2784093 107.770466,95.1837455 107.743366,95.0771759 L107.390234,93.6885138 C107.357788,93.5609223 107.264636,93.4574663 107.141135,93.4118611 L105.796992,92.9155089 C105.537947,92.8198513 105.405496,92.5323082 105.501153,92.2732633 C105.539245,92.1701103 105.610279,92.082391 105.703258,92.0236853 L106.91483,91.2587166 C107.026151,91.1884307 107.095757,91.0678681 107.100967,90.9363189 L107.157663,89.504582 C107.168589,89.2286559 107.401129,89.0138313 107.677055,89.0247578 Z M32.4343553,89.2047655 C32.5046427,89.2893301 32.545093,89.3947068 32.549444,89.504582 L32.6061401,90.9363189 C32.6113494,91.0678681 32.6809562,91.1884307 32.7922765,91.2587166 L34.003849,92.0236853 C34.2373447,92.171111 34.3071183,92.4799088 34.1596926,92.7134046 C34.1009869,92.8063838 34.0132675,92.8774176 33.9101145,92.9155089 L32.5659719,93.4118611 C32.4424709,93.4574663 32.3493188,93.5609223 32.3168727,93.6885138 L31.9637408,95.0771759 C31.8956848,95.3448006 31.6235618,95.506583 31.3559371,95.438527 C31.2493675,95.4114267 31.1547036,95.3499513 31.0866006,95.2636178 L30.1991787,94.1386435 C30.1176416,94.0352799 29.9904636,93.9786566 29.8590905,93.9872265 L28.4292705,94.0804983 C28.1537138,94.0984737 27.915759,93.8896629 27.8977835,93.6141062 C27.8906256,93.5043781 27.9198395,93.3953504 27.9809025,93.3039021 L28.7765882,92.1122775 C28.8496965,92.00279 28.8642483,91.864339 28.8155013,91.742044 L28.2849559,90.411027 C28.1827085,90.1545117 28.3077674,89.8636771 28.5642827,89.7614297 C28.6664284,89.7207143 28.7791474,89.7148069 28.8849895,89.7446222 L30.2641722,90.1331321 C30.3908927,90.1688287 30.5270642,90.1398845 30.62831,90.0557322 L31.7302349,89.1398466 C31.9425992,88.963336 32.2578446,88.9924012 32.4343553,89.2047655 Z M116.089507,66.5586579 C116.168249,66.6354122 116.219493,66.7359834 116.235305,66.844802 L116.441348,68.2627692 C116.460279,68.3930533 116.542107,68.5056795 116.660164,68.5639443 L117.945061,69.1980786 C118.192687,69.3202897 118.294357,69.6201026 118.172146,69.8677295 C118.123481,69.9663358 118.043667,70.0461495 117.945061,70.0948146 L116.660164,70.7289489 C116.542107,70.7872137 116.460279,70.8998399 116.441348,71.030124 L116.235305,72.4480913 C116.195596,72.7213637 115.941875,72.9107044 115.668602,72.8709956 C115.559784,72.8551834 115.459213,72.8039398 115.382458,72.7251979 L114.382306,71.6991472 C114.290411,71.6048728 114.158011,71.5618534 114.028253,71.5841085 L112.616016,71.8263263 C112.343847,71.8730068 112.08537,71.6902129 112.038689,71.4180446 C112.020101,71.3096658 112.037758,71.1981818 112.088927,71.1008515 L112.755696,69.8325831 C112.816959,69.7160535 112.816959,69.5768398 112.755696,69.4603102 L112.088927,68.1920417 C111.960427,67.9476194 112.0544,67.6453058 112.298823,67.5168054 C112.396153,67.4656359 112.507637,67.4479785 112.616016,67.466567 L114.028253,67.7087847 C114.158011,67.7310399 114.290411,67.6880205 114.382306,67.593746 L115.382458,66.5676953 C115.575209,66.3699535 115.891766,66.3659073 116.089507,66.5586579 Z M24.0385045,66.4218976 C24.147323,66.4377099 24.2478942,66.4889535 24.3246485,66.5676953 L25.3248008,67.593746 C25.4166957,67.6880205 25.5490957,67.7310399 25.6788534,67.7087847 L27.0910911,67.466567 C27.3632593,67.4198864 27.6217373,67.6026804 27.6684178,67.8748486 C27.6870062,67.9832274 27.6693488,68.0947114 27.6181793,68.1920417 L26.9514111,69.4603102 C26.8901479,69.5768398 26.8901479,69.7160535 26.9514111,69.8325831 L27.6181793,71.1008515 C27.7466797,71.3452738 27.6527065,71.6475874 27.4082842,71.7760878 C27.3109539,71.8272574 27.1994699,71.8449147 27.0910911,71.8263263 L25.6788534,71.5841085 C25.5490957,71.5618534 25.4166957,71.6048728 25.3248008,71.6991472 L24.3246485,72.7251979 C24.1318979,72.9229397 23.8153413,72.9269859 23.6175995,72.7342353 C23.5388577,72.657481 23.4876141,72.5569098 23.4718018,72.4480913 L23.2657591,71.030124 C23.2468277,70.8998399 23.165,70.7872137 23.0469426,70.7289489 L21.7620463,70.0948146 C21.5144194,69.9726035 21.4127499,69.6727906 21.5349611,69.4251638 C21.5836262,69.3265575 21.66344,69.2467437 21.7620463,69.1980786 L23.0469426,68.5639443 C23.165,68.5056795 23.2468277,68.3930533 23.2657591,68.2627692 L23.4718018,66.844802 C23.5115106,66.5715295 23.765232,66.3821888 24.0385045,66.4218976 Z M108.35117,43.8543662 C108.457739,43.8814665 108.552403,43.9429419 108.620506,44.0292754 L109.507928,45.1542497 C109.589465,45.2576133 109.716643,45.3142366 109.848016,45.3056667 L111.277836,45.2123949 C111.553393,45.1944195 111.791348,45.4032303 111.809323,45.678787 C111.816481,45.7885152 111.787267,45.8975428 111.726204,45.9889912 L110.930519,47.1806157 C110.85741,47.2901032 110.842858,47.4285542 110.891605,47.5508492 L111.422151,48.8818663 C111.524398,49.1383815 111.399339,49.4292161 111.142824,49.5314635 C111.040678,49.5721789 110.927959,49.5780863 110.822117,49.548271 L109.442935,49.1597612 C109.316214,49.1240645 109.180043,49.1530087 109.078797,49.2371611 L107.976872,50.1530466 C107.764508,50.3295572 107.449262,50.300492 107.272752,50.0881277 C107.202464,50.0035631 107.162014,49.8981864 107.157663,49.7883112 L107.100967,48.3565744 C107.095757,48.2250251 107.026151,48.1044626 106.91483,48.0341766 L105.703258,47.269208 C105.469762,47.1217822 105.399988,46.8129844 105.547414,46.5794886 C105.60612,46.4865094 105.693839,46.4154757 105.796992,46.3773843 L107.141135,45.8810321 C107.264636,45.8354269 107.357788,45.7319709 107.390234,45.6043795 L107.743366,44.2157173 C107.811422,43.9480926 108.083545,43.7863102 108.35117,43.8543662 Z M31.7888317,43.9463808 C31.8751651,44.0144839 31.9366405,44.1091477 31.9637408,44.2157173 L32.3168727,45.6043795 C32.3493188,45.7319709 32.4424709,45.8354269 32.5659719,45.8810321 L33.9101145,46.3773843 C34.1691594,46.4730419 34.3016109,46.7605851 34.2059533,47.0196299 C34.1678619,47.1227829 34.0968282,47.2105023 34.003849,47.269208 L32.7922765,48.0341766 C32.6809562,48.1044626 32.6113494,48.2250251 32.6061401,48.3565744 L32.549444,49.7883112 C32.5385175,50.0642373 32.3059775,50.2790619 32.0300514,50.2681354 C31.9201761,50.2637844 31.8147995,50.2233341 31.7302349,50.1530466 L30.62831,49.2371611 C30.5270642,49.1530087 30.3908927,49.1240645 30.2641722,49.1597612 L28.8849895,49.548271 C28.6191917,49.6231451 28.3430225,49.4683709 28.2681484,49.2025731 C28.2383331,49.096731 28.2442405,48.984012 28.2849559,48.8818663 L28.8155013,47.5508492 C28.8642483,47.4285542 28.8496965,47.2901032 28.7765882,47.1806157 L27.9809025,45.9889912 C27.8275569,45.7593398 27.889415,45.4488594 28.1190664,45.2955139 C28.2105148,45.2344509 28.3195424,45.205237 28.4292705,45.2123949 L29.8590905,45.3056667 C29.9904636,45.3142366 30.1176416,45.2576133 30.1991787,45.1542497 L31.0866006,44.0292754 C31.2576256,43.8124689 31.5720252,43.7753557 31.7888317,43.9463808 Z M94.2044861,27.9119596 C94.2655491,28.003408 94.294763,28.1124356 94.2876051,28.2221638 L94.1943333,29.6519837 C94.1857634,29.7833568 94.2423867,29.9105348 94.3457503,29.9920719 L95.4707246,30.8794938 C95.6875311,31.0505188 95.7246443,31.3649184 95.5536192,31.5817249 C95.4855161,31.6680583 95.3908523,31.7295338 95.2842827,31.756634 L93.8956205,32.109766 C93.7680291,32.142212 93.6645731,32.2353642 93.6189679,32.3588651 L93.1226157,33.7030077 C93.0269581,33.9620526 92.7394149,34.0945041 92.4803701,33.9988465 C92.3772171,33.9607551 92.2894977,33.8897214 92.230792,33.7967422 L91.4658234,32.5851697 C91.3955374,32.4738494 91.2749749,32.4042426 91.1434256,32.3990333 L89.7116888,32.3423373 C89.4357627,32.3314107 89.2209381,32.0988707 89.2318646,31.8229446 C89.2362156,31.7130694 89.2766659,31.6076927 89.3469534,31.5231281 L90.2628389,30.4212032 C90.3469913,30.3199574 90.3759355,30.1837859 90.3402388,30.0570654 L89.951729,28.6778827 C89.8768549,28.4120849 90.0316291,28.1359157 90.2974269,28.0610416 C90.403269,28.0312263 90.515988,28.0371337 90.6181337,28.0778491 L91.9491508,28.6083946 C92.0714458,28.6571415 92.2098968,28.6425897 92.3193843,28.5694814 L93.5110088,27.7737957 C93.7406602,27.6204502 94.0511406,27.6823083 94.2044861,27.9119596 Z M45.8858938,27.6906768 C45.9956219,27.6835188 46.1046496,27.7127327 46.1960979,27.7737957 L47.3877225,28.5694814 C47.49721,28.6425897 47.635661,28.6571415 47.757956,28.6083946 L49.088973,28.0778491 C49.3454883,27.9756018 49.6363229,28.1006606 49.7385703,28.3571759 C49.7792857,28.4593216 49.7851931,28.5720406 49.7553778,28.6778827 L49.3668679,30.0570654 C49.3311713,30.1837859 49.3601155,30.3199574 49.4442678,30.4212032 L50.3601534,31.5231281 C50.536664,31.7354924 50.5075988,32.0507379 50.2952345,32.2272485 C50.2106699,32.2975359 50.1052932,32.3379863 49.995418,32.3423373 L48.5636811,32.3990333 C48.4321319,32.4042426 48.3115693,32.4738494 48.2412834,32.5851697 L47.4763147,33.7967422 C47.328889,34.0302379 47.0200912,34.1000115 46.7865954,33.9525858 C46.6936162,33.8938801 46.6225824,33.8061608 46.5844911,33.7030077 L46.0881389,32.3588651 C46.0425337,32.2353642 45.9390777,32.142212 45.8114862,32.109766 L44.4228241,31.756634 C44.1551994,31.688578 43.993417,31.416455 44.061473,31.1488303 C44.0885733,31.0422607 44.1500487,30.9475969 44.2363822,30.8794938 L45.3613565,29.9920719 C45.4647201,29.9105348 45.5213434,29.7833568 45.5127735,29.6519837 L45.4195017,28.2221638 C45.4015263,27.9466071 45.6103371,27.7086522 45.8858938,27.6906768 Z M70.0748362,21.3278543 C70.1734425,21.3765194 70.2532563,21.4563332 70.3019214,21.5549395 L70.9360557,22.8398358 C70.9943205,22.9578932 71.1069467,23.0397209 71.2372308,23.0586523 L72.655198,23.264695 C72.9284705,23.3044038 73.1178112,23.5581253 73.0781024,23.8313977 C73.0622901,23.9402162 73.0110465,24.0407874 72.9323047,24.1175417 L71.906254,25.117694 C71.8119795,25.2095889 71.7689601,25.341989 71.7912153,25.4717466 L72.033433,26.8839843 C72.0801136,27.1561525 71.8973196,27.4146305 71.6251514,27.461311 C71.5167726,27.4798994 71.4052886,27.4622421 71.3079583,27.4110725 L70.0396898,26.7443043 C69.9231602,26.6830411 69.7839465,26.6830411 69.6674169,26.7443043 L68.3991485,27.4110725 C68.1547262,27.5395729 67.8524126,27.4455997 67.7239122,27.2011774 C67.6727426,27.1038471 67.6550853,26.9923631 67.6736737,26.8839843 L67.9158915,25.4717466 C67.9381466,25.341989 67.8951272,25.2095889 67.8008528,25.117694 L66.7748021,24.1175417 C66.5770603,23.9247911 66.5730141,23.6082345 66.7657647,23.4104927 C66.842519,23.3317509 66.9430902,23.2805073 67.0519087,23.264695 L68.469876,23.0586523 C68.6001601,23.0397209 68.7127863,22.9578932 68.7710511,22.8398358 L69.4051854,21.5549395 C69.5273965,21.3073127 69.8272094,21.2056432 70.0748362,21.3278543 Z" id="bg" fill="#2172F0" fill-rule="nonzero" transform="translate(69.853553, 69.646447) rotate(-45.000000) translate(-69.853553, -69.646447) "></path>
        <path d="M-7,50 L-7.11514657,50.0061241 C-7.93953812,50.0949904 -8.31518065,51.1298898 -7.68874946,51.7249994 L-3.451,55.75 L-7.68874946,59.7750006 L-7.77715198,59.8704822 C-8.10129455,60.2694388 -8.07182705,60.8610757 -7.68874946,61.2249994 L-3.451,65.249 L-7.68874946,69.2750006 L-7.77715198,69.3704822 C-8.10129455,69.7694388 -8.07182705,70.3610757 -7.68874946,70.7249994 L-3.451,74.749 L-7.68874946,78.7750006 L-7.77715198,78.8704822 C-8.10129455,79.2694388 -8.07182705,79.8610757 -7.68874946,80.2249994 L-3.451,84.25 L-7.68874946,88.2750006 C-8.34365479,88.8971606 -7.9033184,90 -7,90 L146,90 L146.115147,89.9938759 C146.939538,89.9050096 147.315181,88.8701102 146.688749,88.2750006 L142.451,84.25 L146.688749,80.2249994 L146.777152,80.1295178 C147.101295,79.7305612 147.071827,79.1389243 146.688749,78.7750006 L142.451,74.75 L146.688749,70.7249994 L146.777152,70.6295178 C147.101295,70.2305612 147.071827,69.6389243 146.688749,69.2750006 L142.451,65.25 L146.688749,61.2249994 L146.777152,61.1295178 C147.101295,60.7305612 147.071827,60.1389243 146.688749,59.7750006 L142.451,55.75 L146.688749,51.7249994 C147.343655,51.1028394 146.903318,50 146,50 L-7,50 Z" id="silg" fill="#2172F0" fill-rule="nonzero" transform="translate(69.500000, 70.000000) rotate(-45.000000) translate(-69.500000, -70.000000) "></path>
        <path d="M143.495146,52.0003536 L140.311397,55.0253541 L140.222994,55.1208358 C139.898852,55.5197923 139.928319,56.1114293 140.311397,56.475353 L144.548146,60.5003536 L140.311397,64.5253541 L140.222994,64.6208358 C139.898852,65.0197923 139.928319,65.6114293 140.311397,65.975353 L144.548146,70.0003536 L140.311397,74.0253541 L140.222994,74.1208358 C139.898852,74.5197923 139.928319,75.1114293 140.311397,75.475353 L144.548146,79.5003536 L140.311397,83.5253541 L140.222994,83.6208358 C139.898852,84.0197923 139.928319,84.6114293 140.311397,84.975353 L143.496146,88.0003536 L-4.49685355,88.0003536 L-1.31110409,84.975353 L-1.22270157,84.8798713 C-0.898559,84.4809148 -0.928026506,83.8892778 -1.31110409,83.5253541 L-5.54885355,79.5003536 L-1.31110409,75.475353 L-1.22270157,75.3798713 C-0.898559,74.9809148 -0.928026506,74.3892778 -1.31110409,74.0253541 L-5.54885355,70.0003536 L-1.31110409,65.975353 L-1.22270157,65.8798713 C-0.898559,65.4809148 -0.928026506,64.8892778 -1.31110409,64.5253541 L-5.54885355,60.5003536 L-1.31110409,56.475353 L-1.22270157,56.3798713 C-0.898559,55.9809148 -0.928026506,55.3892778 -1.31110409,55.0253541 L-4.49585355,52.0003536 L143.495146,52.0003536 Z" id="bdw" fill="#FFFFFF" fill-rule="nonzero" transform="translate(69.499646, 70.000354) rotate(-45.000000) translate(-69.499646, -70.000354) "></path>
        <path d="M1.07469229,53.4919528 L0.987540663,53.4990705 C0.596111199,53.5644072 0.42469507,54.0641112 0.730317557,54.3544525 L2.222,55.771 L-2.39641579,60.1590564 L-2.45789738,60.2293473 C-2.60135442,60.4280318 -2.58086056,60.7088333 -2.39641579,60.8840558 L2.221,65.272 L-2.39641579,69.6590564 L-2.45789738,69.7293473 C-2.60135442,69.9280318 -2.58086056,70.2088333 -2.39641579,70.3840558 L2.221,74.772 L-2.39641579,79.1590564 L-2.45789738,79.2293473 C-2.60135442,79.4280318 -2.58086056,79.7088333 -2.39641579,79.8840558 L2.214,84.265 L0.828885781,85.5353458 C0.492679127,85.8434578 0.710666957,86.4039651 1.166702,86.4039651 L137.534519,86.4039651 L137.619932,86.3970994 C138.004126,86.3340515 138.18061,85.8513309 137.893072,85.5554828 L136.659,84.286 L141.292334,79.8840558 L141.353815,79.813765 C141.497272,79.6150804 141.476778,79.3342789 141.292334,79.1590564 L136.674,74.771 L141.292334,70.3840558 L141.353815,70.313765 C141.497272,70.1150804 141.476778,69.8342789 141.292334,69.6590564 L136.674,65.271 L141.292334,60.8840558 L141.353815,60.813765 C141.497272,60.6150804 141.476778,60.3342789 141.292334,60.1590564 L136.66,55.759 L138.049281,54.3419404 C138.359396,54.0255378 138.135235,53.4919528 137.692198,53.4919528 L1.07469229,53.4919528 Z M136.502,54.491 L135.590875,55.4215685 L135.533176,55.492186 C135.399147,55.6906621 135.42366,55.9631276 135.603584,56.1340558 L140.221,60.522 L135.603584,64.9090564 L135.542103,64.9793473 C135.398646,65.1780318 135.419139,65.4588333 135.603584,65.6340558 L140.221,70.021 L135.603584,74.4090564 L135.542103,74.4793473 C135.398646,74.6780318 135.419139,74.9588333 135.603584,75.1340558 L140.221,79.522 L135.603584,83.9090564 L135.543557,83.9773626 C135.402824,84.1703316 135.416949,84.442598 135.589406,84.6200384 L136.35,85.403 L2.452,85.403 L3.28577515,84.6401754 L3.34917785,84.5701126 C3.49743291,84.3714706 3.47906495,84.0864511 3.29233367,83.9090564 L-1.325,79.522 L3.29233367,75.1340558 L3.35381526,75.063765 C3.49727229,74.8650804 3.47677843,74.5842789 3.29233367,74.4090564 L-1.325,70.022 L3.29233367,65.6340558 L3.35381526,65.563765 C3.49727229,65.3650804 3.47677843,65.0842789 3.29233367,64.9090564 L-1.325,60.521 L3.29233367,56.1340558 L3.35381526,56.063765 C3.49727229,55.8650804 3.47677843,55.5842789 3.29233367,55.4090564 L2.326,54.491 L136.502,54.491 Z" id="silgl" fill="#2172F0" fill-rule="nonzero" opacity="0.600000024" transform="translate(69.447959, 69.947959) rotate(-45.000000) translate(-69.447959, -69.947959) "></path>
        <path d="M39.7511455,68.4138236 C42.0691455,66.7038236 43.6841455,64.8228236 44.6341455,62.7328236 L42.9241455,61.9158236 C42.1071455,63.6828236 40.8531455,65.2218236 39.1621455,66.5138236 L39.7511455,68.4138236 Z M56.7751455,69.3258236 L56.7751455,67.5018236 L51.9491455,67.5018236 L51.9491455,65.6968236 L55.9961455,65.6968236 L55.9961455,63.8918236 L51.9491455,63.8918236 L51.9491455,62.0298236 L50.0301455,62.0298236 L50.0301455,63.8918236 L46.0211455,63.8918236 L46.0211455,65.6968236 L50.0301455,65.6968236 L50.0301455,67.5018236 L45.3371455,67.5018236 L45.3371455,69.3258236 L56.7751455,69.3258236 Z M43.7031455,79.5288236 L43.7031455,69.8578236 C44.3491455,68.9838236 44.8811455,68.0528236 45.2991455,67.1028236 L43.6081455,66.3048236 C42.6581455,68.3948236 41.2331455,70.2188236 39.3331455,71.7578236 L39.9221455,73.6388236 C40.5681455,73.1258236 41.1951455,72.5938236 41.7841455,72.0428236 L41.7841455,79.5288236 L43.7031455,79.5288236 Z M52.3861455,79.4528236 C53.7921455,79.4528236 54.5141455,78.7118236 54.5141455,77.2488236 L54.5141455,72.9168236 L56.5091455,72.9168236 L56.5091455,71.0738236 L54.5141455,71.0738236 L54.5141455,69.8768236 L52.5381455,69.8768236 L52.5381455,71.0738236 L45.3941455,71.0738236 L45.3941455,72.9168236 L52.5381455,72.9168236 L52.5381455,76.7548236 C52.5381455,77.3628236 52.2531455,77.6858236 51.6831455,77.6858236 C50.9231455,77.6858236 50.1061455,77.6478236 49.2321455,77.5718236 L49.6881455,79.4528236 L52.3861455,79.4528236 Z M48.7951455,77.1158236 L50.3341455,76.0328236 C49.7831455,75.2348236 48.9851455,74.3228236 47.9591455,73.2968236 L46.4201455,74.2658236 C47.4081455,75.3108236 48.2061455,76.2608236 48.7951455,77.1158236 Z M62.6651455,67.0838236 L62.6651455,65.1078236 L75.1291455,65.1078236 L75.1291455,66.9888236 L77.0671455,66.9888236 L77.0671455,63.3028236 L69.8471455,63.3028236 C69.6951455,62.7708236 69.5431455,62.2958236 69.3911455,61.8778236 L67.2821455,62.2198236 C67.4531455,62.5618236 67.6241455,62.9228236 67.7761455,63.3028236 L60.7271455,63.3028236 L60.7271455,67.0838236 L62.6651455,67.0838236 Z M69.9801455,79.7188236 L69.9801455,75.9758236 L73.6851455,75.9758236 L73.6851455,76.9068236 L75.6231455,76.9068236 L75.6231455,67.3878236 L69.9801455,67.3878236 L69.9801455,65.8298236 L68.0041455,65.8298236 L68.0041455,67.3878236 L62.4181455,67.3878236 L62.4181455,76.9638236 L64.3561455,76.9638236 L64.3561455,75.9758236 L68.0041455,75.9758236 L68.0041455,79.7188236 L69.9801455,79.7188236 Z M73.6851455,70.8458236 L69.9801455,70.8458236 L69.9801455,69.2118236 L73.6851455,69.2118236 L73.6851455,70.8458236 Z M68.0041455,70.8458236 L64.3561455,70.8458236 L64.3561455,69.2118236 L68.0041455,69.2118236 L68.0041455,70.8458236 Z M68.0041455,74.1708236 L64.3561455,74.1708236 L64.3561455,72.5748236 L68.0041455,72.5748236 L68.0041455,74.1708236 Z M73.6851455,74.1708236 L69.9801455,74.1708236 L69.9801455,72.5748236 L73.6851455,72.5748236 L73.6851455,74.1708236 Z M88.2201455,75.4628236 C91.8871455,74.0948236 94.6611455,71.5298236 96.5611455,67.7488236 L94.9651455,66.8938236 C94.5851455,67.6158236 94.1861455,68.2998236 93.7301455,68.9458236 C92.7801455,69.0218236 91.8111455,69.0978236 90.8421455,69.1548236 C91.5261455,68.3948236 92.3051455,67.2738236 93.1791455,65.7538236 L98.3851455,65.7538236 L98.3851455,63.9488236 L94.2811455,63.9488236 C94.0531455,63.2458236 93.8251455,62.5998236 93.5781455,62.0298236 L91.5451455,62.3718236 C91.8301455,62.8468236 92.0961455,63.3788236 92.3431455,63.9488236 L87.9351455,63.9488236 L87.9351455,65.7538236 L91.1461455,65.7538236 C90.1201455,67.5018236 89.2651455,68.6038236 88.6001455,69.0218236 C88.5241455,69.0788236 88.4101455,69.1358236 88.2391455,69.1928236 L88.6381455,70.7888236 L92.3241455,70.6178236 C90.8991455,72.0618236 89.1701455,73.1258236 87.1371455,73.8288236 L88.2201455,75.4628236 Z M97.1691455,79.6428236 L98.6131455,78.1988236 C97.7011455,77.0968236 96.5991455,75.9758236 95.3451455,74.8738236 C96.4851455,73.6388236 97.4921455,72.1948236 98.3661455,70.5608236 L96.7131455,69.7058236 C94.5471455,73.7718236 91.2601455,76.5268236 86.8711455,77.9518236 L87.9731455,79.6428236 C90.2911455,78.8258236 92.3431455,77.6288236 94.1101455,76.0708236 C95.4021455,77.3248236 96.4091455,78.5028236 97.1691455,79.6428236 Z M83.6791455,71.2278236 L83.6791455,79.6428236 L85.5981455,79.6428236 L85.5981455,70.6938236 C86.0161455,71.3778236 86.4911455,72.2328236 87.0611455,73.2398236 L88.1821455,71.5298236 C87.3081455,70.3898236 86.4341455,69.3448236 85.5981455,68.4328236 L85.5981455,67.4638236 L87.6311455,67.4638236 L87.6311455,65.5828236 L85.5981455,65.5828236 L85.5981455,62.0868236 L83.6791455,62.0868236 L83.6791455,65.5828236 L81.2661455,65.5828236 L81.2661455,67.4638236 L83.6031455,67.4638236 C83.0331455,69.6678236 82.1401455,71.6438236 80.9241455,73.3538236 L81.7601455,75.4058236 C82.4251455,74.2753236 82.9883174,73.0720892 83.4751182,71.7833919 L83.6791455,71.2278236 Z" id="t" fill="#2172F0" fill-rule="nonzero" transform="translate(68.887646, 70.798324) rotate(-45.000000) translate(-68.887646, -70.798324) "></path>
    </g>
</svg>