<?xml version="1.0" encoding="UTF-8"?>
<svg width="44px" height="44px" viewBox="0 0 44 44" version="1.1" xmlns="http://www.w3.org/2000/svg" xmlns:xlink="http://www.w3.org/1999/xlink">
    <title>dtjzfpz</title>

        <path d="M32,5 C34.6887547,5 36.8818181,7.12230671 36.9953805,9.78311038 L37,10 L37,19 C37,19.5522847 36.5522847,20 36,20 C35.4871642,20 35.0644928,19.6139598 35.0067277,19.1166211 L35,19 L35,10 C35,8.40231912 33.75108,7.09633912 32.1762728,7.00509269 L32,7 L12,7 C10.4023191,7 9.09633912,8.24891996 9.00509269,9.82372721 L9,10 L9,33 C9,34.5976809 10.24892,35.9036609 11.8237272,35.9949073 L12,36 L22,36 C22.5522847,36 23,36.4477153 23,37 C23,37.5128358 22.6139598,37.9355072 22.1166211,37.9932723 L22,38 L12,38 C9.3112453,38 7.11818189,35.8776933 7.00461951,33.2168896 L7,33 L7,10 C7,7.3112453 9.12230671,5.11818189 11.7831104,5.00461951 L12,5 L32,5 Z M33.964526,23 C35.1625137,23 36.2104356,23.8410898 36.2104356,25 C36.2104356,25.3509264 36.108315,25.6906434 35.9202961,25.9877156 L35.8192036,26.1325524 L28.278,35.968 L28.3085485,35.9791734 C28.3309044,35.9858308 28.3547359,35.9910374 28.3795592,35.9945797 L28.4565202,36 L33.964526,36 L34.019894,35.998211 L34.107483,35.9879243 L34.152,35.979 L32.3237551,33.5954598 C31.9877147,33.157173 32.0706017,32.5294568 32.5088884,32.1934164 C32.9471752,31.857376 33.5748914,31.940263 33.9109318,32.3785498 L35.8192036,34.8674476 C36.0714381,35.196429 36.2104356,35.5905858 36.2104356,36 C36.2104356,37.1085228 35.2516564,37.926261 34.1198604,37.9952731 L33.964526,38 L28.4565202,38 C28.0743528,38 27.6966608,37.914197 27.3606921,37.748254 C26.2807518,37.2148456 25.8734892,35.9714133 26.5125256,34.9934256 L26.6018425,34.8674476 L34.152,25.02 L34.0446186,25.0037737 L33.964526,25 L28.4565202,25 C28.4038747,25 28.3532602,25.0075119 28.3085485,25.0208266 L28.278,25.032 L30.072202,27.3718173 C30.4082424,27.8101041 30.3253553,28.4378203 29.8870686,28.7738607 C29.4487818,29.1099011 28.8210656,29.0270141 28.4850252,28.5887273 L26.6018425,26.1325524 C25.8393467,25.1380535 26.2337979,23.808346 27.3606921,23.251746 C27.640666,23.1134602 27.9496145,23.0308271 28.2659819,23.007124 L28.4565202,23 L33.964526,23 Z M20,29 C20.5522847,29 21,29.4477153 21,30 C21,30.5128358 20.6139598,30.9355072 20.1166211,30.9932723 L20,31 L13,31 C12.4477153,31 12,30.5522847 12,30 C12,29.4871642 12.3860402,29.0644928 12.8833789,29.0067277 L13,29 L20,29 Z M20,24 C20.5522847,24 21,24.4477153 21,25 C21,25.5128358 20.6139598,25.9355072 20.1166211,25.9932723 L20,26 L13,26 C12.4477153,26 12,25.5522847 12,25 C12,24.4871642 12.3860402,24.0644928 12.8833789,24.0067277 L13,24 L20,24 Z M17.2138118,10.7564237 C18.8706661,10.7564237 20.2138118,12.0995695 20.2138118,13.7564237 L20.2138118,13.7564237 L20.2138118,16.7564237 C20.2138118,18.413278 18.8706661,19.7564237 17.2138118,19.7564237 L17.2138118,19.7564237 L14.2138118,19.7564237 C12.5569576,19.7564237 11.2138118,18.413278 11.2138118,16.7564237 L11.2138118,16.7564237 L11.2138118,13.7564237 C11.2138118,12.0995695 12.5569576,10.7564237 14.2138118,10.7564237 L14.2138118,10.7564237 Z M31,17 C31.5522847,17 32,17.4477153 32,18 C32,18.5128358 31.6139598,18.9355072 31.1166211,18.9932723 L31,19 L24,19 C23.4477153,19 23,18.5522847 23,18 C23,17.4871642 23.3860402,17.0644928 23.8833789,17.0067277 L24,17 L31,17 Z M17.2138118,12.7564237 L14.2138118,12.7564237 C13.6615271,12.7564237 13.2138118,13.204139 13.2138118,13.7564237 L13.2138118,13.7564237 L13.2138118,16.7564237 C13.2138118,17.3087085 13.6615271,17.7564237 14.2138118,17.7564237 L14.2138118,17.7564237 L17.2138118,17.7564237 C17.7660966,17.7564237 18.2138118,17.3087085 18.2138118,16.7564237 L18.2138118,16.7564237 L18.2138118,13.7564237 C18.2138118,13.204139 17.7660966,12.7564237 17.2138118,12.7564237 L17.2138118,12.7564237 Z M31,12 C31.5522847,12 32,12.4477153 32,13 C32,13.5128358 31.6139598,13.9355072 31.1166211,13.9932723 L31,14 L24,14 C23.4477153,14 23,13.5522847 23,13 C23,12.4871642 23.3860402,12.0644928 23.8833789,12.0067277 L24,12 L31,12 Z" id="mix"  ></path>
</svg>