<?xml version="1.0" standalone="no"?><!DOCTYPE svg PUBLIC "-//W3C//DTD SVG 1.1//EN" "http://www.w3.org/Graphics/SVG/1.1/DTD/svg11.dtd"><svg t="1635472095171" class="icon" viewBox="0 0 1024 1024" version="1.1" xmlns="http://www.w3.org/2000/svg" p-id="3444" xmlns:xlink="http://www.w3.org/1999/xlink" width="200" height="200"><defs><style type="text/css"></style></defs><path d="M370.623 767.638c10.55 0 20.542 1.942 29.98 5.83a79.322 79.322 0 0 1 24.978 16.234c7.22 6.943 12.77 15.131 16.654 24.562 3.888 9.442 5.83 19.436 5.83 29.983 0 10.544-1.942 20.541-5.83 29.973-3.888 9.44-9.438 17.626-16.654 24.562-7.216 6.936-15.544 12.493-24.979 16.654-9.437 4.167-19.428 6.243-29.979 6.243-11.1 0-21.23-2.076-30.392-6.243a87.262 87.262 0 0 1-24.563-16.654c-7.219-6.936-12.769-15.125-16.653-24.562-3.888-9.435-5.83-19.43-5.83-29.973 0-10.547 1.942-20.545 5.83-29.983a71.417 71.417 0 0 1 16.653-24.562 80.719 80.719 0 0 1 24.563-16.234c9.161-3.888 19.292-5.83 30.392-5.83z m346.399 1.67c10.547 0 20.678 1.938 30.389 5.816 9.714 3.89 18.04 9.304 24.979 16.24 6.939 6.943 12.489 15.135 16.657 24.566 4.164 9.441 6.243 19.422 6.243 29.97 0 10.56-2.08 20.544-6.243 29.982-4.168 9.434-9.718 17.626-16.657 24.569-6.94 6.932-15.268 12.486-24.98 16.654-9.714 4.16-19.84 6.243-30.388 6.243s-20.545-2.083-29.98-6.243c-9.437-4.168-17.626-9.722-24.562-16.654-6.936-6.943-12.49-15.138-16.653-24.57-4.165-9.44-6.243-19.421-6.243-29.982 0-10.547 2.078-20.531 6.243-29.969 4.164-9.434 9.717-17.623 16.653-24.566 6.936-6.936 15.128-12.35 24.563-16.24 9.437-3.878 19.435-5.817 29.979-5.817zM856.91 248.544c15.55 0 27.62 2.082 36.222 6.247 8.605 4.164 14.715 9.301 18.323 15.407 3.604 6.107 5.273 12.63 4.993 19.57-0.273 6.942-1.249 12.905-2.915 17.902s-59.122 241.828-62.453 252.375c-7.216 22.204-16.378 37.615-27.481 46.213-11.1 8.605-24.703 12.906-40.803 12.906H349.054l12.49 47.633h416.26c26.647 0 40.597 11.397 39.97 34.137-0.564 20.415-23.594 30.566-39.141 30.566h-436.32c-11.1 0-20.398-2.495-27.894-7.499-7.492-4.994-13.738-11.516-18.736-19.562a118.873 118.873 0 0 1-12.073-26.231c-3.054-9.438-5.41-18.313-7.079-26.641-0.553-3.338-2.082-11.387-4.577-24.153-2.499-12.766-5.554-28.727-9.161-47.879L250.72 515.42a35860.07 35860.07 0 0 1-13.326-71.195c-10.547-56.068-25.894-173.131-39.216-241.968h-62.454c-8.325 0-15.267-2.082-20.818-6.246a54.374 54.374 0 0 1-13.742-14.988c-4.67-7.55-3.96-7.127-4.952-11.903-1.386-6.659-1.209-5.946-1.209-11.503 0-11.1 3.748-13.434 11.24-20.65s17.623-10.824 30.393-10.824h84.1c11.104 0 19.986 1.662 26.649 4.994 6.66 3.335 11.936 7.496 15.82 12.49 3.885 4.996 6.663 10.27 8.33 15.823 1.661 5.55 3.054 10.271 4.163 14.152 1.11 4.444 2.219 10.69 3.332 18.736a4996.735 4996.735 0 0 1 3.331 24.566 1926.545 1926.545 0 0 1 4.994 31.638H856.91z" fill="#515151" p-id="3445"></path></svg>