<?xml version="1.0" standalone="no"?><!DOCTYPE svg PUBLIC "-//W3C//DTD SVG 1.1//EN" "http://www.w3.org/Graphics/SVG/1.1/DTD/svg11.dtd"><svg t="1632302524502" class="icon" viewBox="0 0 1024 1024" version="1.1" xmlns="http://www.w3.org/2000/svg" p-id="14546" xmlns:xlink="http://www.w3.org/1999/xlink" width="200" height="200"><defs><style type="text/css"></style></defs><path d="M254.464 722.432l38.4 0 0 38.4-38.4 0 0-38.4Z" p-id="14547"></path><path d="M254.464 382.976l38.4 0 0 297.472-38.4 0 0-297.472Z" p-id="14548"></path><path d="M383.488 722.432l80.896 0 0 38.4-80.896 0 0-38.4Z" p-id="14549"></path><path d="M383.488 382.976l37.376 0 0 297.472-37.376 0 0-297.472Z" p-id="14550"></path><path d="M523.264 722.432l34.816 0 0 38.4-34.816 0 0-38.4Z" p-id="14551"></path><path d="M523.264 382.976l35.84 0 0 297.472-35.84 0 0-297.472Z" p-id="14552"></path><path d="M602.624 722.432l71.168 0 0 38.4-71.168 0 0-38.4Z" p-id="14553"></path><path d="M635.904 382.976l37.376 0 0 297.472-37.376 0 0-297.472Z" p-id="14554"></path><path d="M734.72 722.432l35.84 0 0 38.4-35.84 0 0-38.4Z" p-id="14555"></path><path d="M734.72 382.976l35.84 0 0 297.472-35.84 0 0-297.472Z" p-id="14556"></path><path d="M952.832 228.352 811.52 87.04c-11.264-11.264-26.112-17.408-41.984-17.408l-214.528 0-38.912 0-23.552 0-38.912 0L254.976 69.632c-15.872 0-30.72 6.144-41.984 17.408L72.192 228.352c-11.264 11.264-17.408 25.6-17.408 41.472l0 521.216c0 74.752 60.928 135.68 135.68 135.68l643.584 0c74.752 0 135.68-60.928 135.68-135.68L969.728 269.824C969.728 253.952 963.584 239.104 952.832 228.352zM769.536 108.032c5.632 0 11.264 2.048 14.848 6.144l119.808 119.808-317.44 0-24.576-125.952L769.536 108.032zM523.264 108.032l24.576 125.952L460.8 233.984l24.576-125.952L523.264 108.032zM240.128 114.176c4.096-4.096 9.216-6.144 14.848-6.144l190.976 0-24.576 125.952L120.32 233.984 240.128 114.176zM931.328 790.528c0 53.76-43.52 97.28-97.28 97.28L190.464 887.808c-53.76 0-97.28-43.52-97.28-97.28L93.184 272.384l321.024 0 38.912 0 101.888 0 38.912 0 337.408 0L931.328 790.528z" p-id="14557"></path></svg>