<?xml version="1.0" standalone="no"?><!DOCTYPE svg PUBLIC "-//W3C//DTD SVG 1.1//EN" "http://www.w3.org/Graphics/SVG/1.1/DTD/svg11.dtd"><svg t="1632302590292" class="icon" viewBox="0 0 1024 1024" version="1.1" xmlns="http://www.w3.org/2000/svg" p-id="15511" xmlns:xlink="http://www.w3.org/1999/xlink" width="200" height="200"><defs><style type="text/css"></style></defs><path d="M777.577 355.68c-89.87-18.834-147.625-107.32-128.724-197.223 18.867-89.87 107.383-147.625 197.19-128.73a165.012 165.012 0 0 1 47.664 17.97c9.807 5.463 13.147 17.773 7.716 27.448-5.464 9.706-17.869 13.113-27.481 7.65-11.218-6.363-23.434-10.93-36.161-13.627-68.109-14.301-135.125 29.476-149.426 97.613-14.307 68.08 29.443 135.124 97.519 149.43 68.075 14.302 135.186-29.475 149.492-97.585 1.544-7.55 2.475-15.332 2.664-23.01 0.257-11.155 9.517-19.96 20.606-19.674 11.218 0.261 19.994 9.516 19.67 20.667-0.194 10.097-1.383 20.316-3.472 30.313-18.929 89.898-107.387 147.625-197.257 128.758zM212.17 679.223c-91.827 0-166.525-74.698-166.525-166.558 0-91.865 74.698-166.564 166.525-166.564 91.831 0 166.53 74.733 166.53 166.564 0 91.827-74.699 166.558-166.53 166.558z m0-292.784c-69.586 0-126.222 56.635-126.222 126.226 0 69.62 56.636 126.253 126.222 126.253s126.22-56.635 126.22-126.253c0-69.62-56.634-126.226-126.22-126.226z m599.641 612.76c-91.798 0-166.525-74.698-166.525-166.624 0-91.737 74.699-166.43 166.525-166.43 91.832 0 166.56 74.693 166.56 166.43-0.002 91.925-74.728 166.624-166.56 166.624z m0-292.751c-69.586 0-126.187 56.635-126.187 126.125 0 69.682 56.6 126.317 126.187 126.317s126.22-56.635 126.22-126.317c0-69.49-56.633-126.125-126.22-126.125z m-108.67-432.76l-361.244 171.22 351.31-166.497 9.934-4.723zM350.64 463.261l-17.39-36.74L681.57 242.348l17.39 36.736-348.321 184.176z m-15.077 134.29l347.841 189.093-347.84-189.094z m338.52 206.895L326.146 615.357l18.8-35.649 347.875 189.027-18.739 35.711z m0 0" p-id="15512"></path><path d="M811.81 1010.863c-98.227 0-178.194-79.968-178.194-178.29 0-11.735 1.159-23.433 3.472-34.973L340.352 636.343c-33.525 34.845-79.745 54.61-128.183 54.61-98.255 0.002-178.194-79.966-178.194-178.288 0-98.26 79.94-178.228 178.194-178.228 54.961 0 106.746 25.457 140.46 68.656L643.032 249.58c-10.186-30.086-12.148-62.194-5.592-93.5 17.195-82.03 90.545-141.62 174.308-141.62 12.244 0 24.588 1.289 36.736 3.826 17.998 3.791 35.164 10.253 51.043 19.252 15.171 8.614 20.667 28.027 12.054 43.297-8.325 14.787-28.574 20.507-43.394 12.083-10.124-5.688-21.148-9.863-32.85-12.34-7.778-1.61-15.65-2.446-23.56-2.446-53.87 0-100.987 38.314-112.044 91.062-6.271 29.857-0.484 60.46 16.264 86.106 16.743 25.652 42.361 43.264 72.318 49.53a114.39 114.39 0 0 0 23.59 2.477c53.841 0 101.026-38.248 112.015-90.996 1.51-6.941 2.285-13.982 2.413-20.891 0.385-17.133 14.624-31.049 31.819-31.049 9.26 0.195 17.228 3.697 23.082 9.835 5.882 6.14 8.965 14.24 8.77 22.759-0.256 10.67-1.51 21.599-3.79 32.431-17.228 82.025-90.544 141.581-174.337 141.581a178.06 178.06 0 0 1-36.674-3.824c-39.953-8.386-75.596-30.146-101.248-61.614L382.328 459.727c5.336 17.1 8.035 34.84 8.035 52.966 0 24.62-4.884 48.277-14.558 70.556l285.001 154.856c32.561-51.845 89.39-83.631 151.003-83.631 98.294 0 178.194 79.905 178.194 178.1 0.002 98.321-79.9 178.289-178.193 178.289z m0-292.78c-63.124 0-114.523 51.427-114.523 114.518 0 63.224 51.427 114.618 114.523 114.618 63.158 0 114.557-51.427 114.557-114.618 0.028-63.124-51.399-114.518-114.557-114.518zM212.17 398.108c-63.158 0-114.552 51.394-114.552 114.557 0 63.157 51.394 114.551 114.552 114.551 63.158 0 114.557-51.427 114.557-114.55 0-63.164-51.399-114.558-114.557-114.558z m0 0" p-id="15513"></path></svg>