<?xml version="1.0" standalone="no"?><!DOCTYPE svg PUBLIC "-//W3C//DTD SVG 1.1//EN" "http://www.w3.org/Graphics/SVG/1.1/DTD/svg11.dtd"><svg t="1632302555375" class="icon" viewBox="0 0 1024 1024" version="1.1" xmlns="http://www.w3.org/2000/svg" p-id="14713" xmlns:xlink="http://www.w3.org/1999/xlink" width="200" height="200"><defs><style type="text/css"></style></defs><path d="M221.604299 77.174353c38.651169 0 74.870641 14.974128 102.259218 42.362705 27.260592 27.260592 42.234721 63.608049 42.234721 102.259217v144.493939H221.604299a143.662042 143.662042 0 0 1-102.259217-42.234721c-27.324584-27.51656-42.362705-63.672041-42.362705-102.32321s14.974128-74.998625 42.362705-102.259217a143.470066 143.470066 0 0 1 102.259217-42.298713z m0-77.174353A221.540307 221.540307 0 0 0 0 221.732283 221.604299 221.604299 0 0 0 221.604299 443.464567h171.754531a49.913761 49.913761 0 0 0 49.849769-49.977753V221.732283A221.668291 221.668291 0 0 0 221.604299 0M221.604299 657.773778h144.493939v144.493939a144.045994 144.045994 0 0 1-144.493939 144.621922 143.662042 143.662042 0 0 1-102.259217-42.234721 143.534058 143.534058 0 0 1-42.362705-102.387201c0-38.651169 14.974128-74.870641 42.362705-102.259218 27.260592-27.1966 63.608049-42.234721 102.259217-42.234721z m0-77.110361a221.540307 221.540307 0 1 0 221.6043 221.6043V630.577178a49.913761 49.913761 0 0 0-49.849769-49.849769H221.604299v-0.063992M802.267717 77.174353a143.854018 143.854018 0 0 1 144.493938 144.621922 143.982002 143.982002 0 0 1-144.493938 144.493939h-144.621923V221.732283c0-38.651169 14.974128-74.998625 42.234721-102.451193a144.685914 144.685914 0 0 1 102.387202-42.106737z m0-77.174353a221.668291 221.668291 0 0 0-221.732284 221.732283v171.754531c0 27.644544 22.3972 49.977753 49.849769 49.977753h171.882515A221.668291 221.668291 0 0 0 1023.872016 221.732283 221.668291 221.668291 0 0 0 802.267717 0M802.267717 657.773778c38.651169 0 74.998625 14.974128 102.259217 42.234721 27.260592 27.388576 42.234721 63.608049 42.234721 102.259218a144.045994 144.045994 0 0 1-144.493938 144.621922 144.173978 144.173978 0 0 1-144.621923-144.621922v-144.493939h144.621923z m0-77.110361H630.449194a49.913761 49.913761 0 0 0-49.849769 49.849769v171.754531a221.668291 221.668291 0 1 0 221.668292-221.6043"  p-id="14714"></path></svg>