<?xml version="1.0" standalone="no"?><!DOCTYPE svg PUBLIC "-//W3C//DTD SVG 1.1//EN" "http://www.w3.org/Graphics/SVG/1.1/DTD/svg11.dtd"><svg t="1635423955805" class="icon" viewBox="0 0 1024 1024" version="1.1" xmlns="http://www.w3.org/2000/svg" p-id="2611" xmlns:xlink="http://www.w3.org/1999/xlink" width="200" height="200"><defs><style type="text/css"></style></defs><path d="M826 691.7c35.8 0 69.6 14 94.9 39.4 25.4 25.4 39.4 59.1 39.4 94.9 0 35.8-14 69.6-39.4 94.9-25.4 25.3-59.1 39.4-94.9 39.4-35.8 0-69.6-14-94.9-39.4-25.4-25.4-39.4-59.1-39.4-94.9 0-35.8 14-69.6 39.4-94.9 25.3-25.5 59.1-39.4 94.9-39.4m0-63.7c-109.4 0-198 88.6-198 198s88.6 198 198 198 198-88.6 198-198-88.6-198-198-198z m0 0" fill="" p-id="2612"></path><path d="M879.8 794.1H772.2c-17.5 0-31.9 14.3-31.9 31.9 0 17.5 14.3 31.9 31.9 31.9h107.6c17.5 0 31.9-14.3 31.9-31.9 0-17.5-14.4-31.9-31.9-31.9z m0 0" fill="" p-id="2613"></path><path d="M826 740.2c-17.5 0-31.9 14.3-31.9 31.9v107.6c0 17.5 14.3 31.9 31.9 31.9s31.9-14.3 31.9-31.9V772.1c0-17.6-14.4-31.9-31.9-31.9z m0 0M544.2 926H152C68.2 926 0 857.9 0 774V152C0 68.2 68.2 0 152 0h622c83.8 0 152 68.2 152 152v392.4c0 17.7-14.3 32-32 32s-32-14.3-32-32V152c0-48.5-39.5-88-88-88H152c-48.5 0-88 39.5-88 88v622c0 48.5 39.5 88 88 88h392.2c17.7 0 32 14.3 32 32s-14.4 32-32 32z" fill="" p-id="2614"></path><path d="M227.9 299.7c11 0 20 9 20 20s-9 20-20 20-20-9-20-20 9-20 20-20m0-64c-46.4 0-84 37.6-84 84s37.6 84 84 84 84-37.6 84-84-37.6-84-84-84zM703.8 299.7c11 0 20 9 20 20s-9 20-20 20-20-9-20-20 8.9-20 20-20m0-64c-46.4 0-84 37.6-84 84s37.6 84 84 84 84-37.6 84-84-37.6-84-84-84z" fill="" p-id="2615"></path><path d="M472.6 705.9h-13.9c-70.8 0-137.6-27.8-188-78.1s-78.1-117.2-78.1-188v-82.3h64v82.3c0 111.5 90.7 202.1 202.1 202.1h13.9c111.5 0 202.1-90.7 202.1-202.1v-92.3h64v92.3c0 70.8-27.8 137.6-78.1 188s-117.1 78.1-188 78.1z" fill="" p-id="2616"></path></svg>