<?xml version="1.0" encoding="UTF-8"?>
<svg width="44px" height="44px" viewBox="0 0 44 44" version="1.1" xmlns="http://www.w3.org/2000/svg" xmlns:xlink="http://www.w3.org/1999/xlink">
    <title>hkychspjc</title>
        <g id="编组-3备份" transform="translate(0.000000, 0.000000)">
            <path d="M32,4.85 C34.7713366,4.85 37.0314032,7.03900673 37.145482,9.78230226 L37.15,10 L37.15,18 C37.15,18.6351275 36.6351275,19.15 36,19.15 C35.4072144,19.15 34.9191841,18.7014888 34.856748,18.1253052 L34.85,18 L34.85,10 C34.85,8.48220316 33.663526,7.24152216 32.1674591,7.15483806 L32,7.15 L12,7.15 C10.4822032,7.15 9.24152216,8.33647397 9.15483806,9.83254085 L9.15,10 L9.15,34 C9.15,35.5177968 10.336474,36.7584778 11.8325409,36.8451619 L12,36.85 L22,36.85 C22.6351275,36.85 23.15,37.3648725 23.15,38 C23.15,38.5927856 22.7014888,39.0808159 22.1253052,39.143252 L22,39.15 L12,39.15 C9.22866345,39.15 6.96859681,36.9609933 6.85451801,34.2176977 L6.85,34 L6.85,10 C6.85,7.22866345 9.03900673,4.96859681 11.7823023,4.85451801 L12,4.85 L32,4.85 Z M36.5254834,21.8354293 C39.8366027,25.1465486 40.0795443,30.363989 37.2543083,33.9548474 L39.8255693,36.5446664 C40.2535557,36.9758276 40.250982,37.6723043 39.8198262,38.1002961 C39.4174036,38.4997446 38.7838672,38.5241329 38.3532154,38.1750593 L38.2641965,38.0945421 L35.6977959,35.5098507 C32.1071614,38.329225 26.8943818,38.0844359 23.5854293,34.7754834 C20.012132,31.2021861 20.012132,25.4087266 23.5854293,21.8354293 C27.1587266,18.262132 32.9521861,18.262132 36.5254834,21.8354293 Z M25.2117749,23.4617749 C22.5366835,26.1368663 22.5366835,30.4740464 25.2117749,33.1491378 C27.8868663,35.8242292 32.2240464,35.8242292 34.8991378,33.1491378 C37.5742292,30.4740464 37.5742292,26.1368663 34.8991378,23.4617749 C32.2240464,20.7866835 27.8868663,20.7866835 25.2117749,23.4617749 Z M17,25.7734723 C17.6627417,25.7734723 18.2,26.3107306 18.2,26.9734723 C18.2,27.636214 17.6627417,28.1734723 17,28.1734723 C16.3372583,28.1734723 15.8,27.636214 15.8,26.9734723 C15.8,26.3107306 16.3372583,25.7734723 17,25.7734723 Z M17,12.8278866 C19.5681241,12.8278866 21.65,14.9097625 21.65,17.4778866 C21.65,19.017473 21.0540185,20.01632 19.7532046,21.2595923 L19.0322002,21.9275547 C18.4216057,22.5006 18.1865654,22.8334733 18.1540183,23.1556772 L18.15,23.2361387 L18.15,24.0299729 C18.15,24.6651003 17.6351275,25.1799729 17,25.1799729 C16.4072144,25.1799729 15.9191841,24.7314617 15.856748,24.1552781 L15.85,24.0299729 L15.85,23.2361387 C15.85,22.1433154 16.3073237,21.3727712 17.260897,20.4394398 L17.9701426,19.7788502 C18.9948556,18.8333311 19.35,18.286406 19.35,17.4778866 C19.35,16.1800174 18.2978692,15.1278866 17,15.1278866 C15.7021308,15.1278866 14.65,16.1800174 14.65,17.4778866 C14.65,18.113014 14.1351275,18.6278866 13.5,18.6278866 C12.8648725,18.6278866 12.35,18.113014 12.35,17.4778866 C12.35,14.9097625 14.4318759,12.8278866 17,12.8278866 Z M31,13.85 C31.6351275,13.85 32.15,14.3648725 32.15,15 C32.15,15.5927856 31.7014888,16.0808159 31.1253052,16.143252 L31,16.15 L25,16.15 C24.3648725,16.15 23.85,15.6351275 23.85,15 C23.85,14.4072144 24.2985112,13.9191841 24.8746948,13.856748 L25,13.85 L31,13.85 Z" id="形状结合"  fill-rule="nonzero"></path>
        </g>
</svg>