<?xml version="1.0" encoding="UTF-8"?>
<svg width="44px" height="44px" viewBox="0 0 44 44" version="1.1" xmlns="http://www.w3.org/2000/svg" xmlns:xlink="http://www.w3.org/1999/xlink">
    <title>hwxchspsh</title>
        <g id="编组">
    
            <path d="M32,4.85 C34.7713366,4.85 37.0314032,7.03900673 37.145482,9.78230226 L37.15,10 L37.15,18 C37.15,18.6351275 36.6351275,19.15 36,19.15 C35.4072144,19.15 34.9191841,18.7014888 34.856748,18.1253052 L34.85,18 L34.85,10 C34.85,8.48220316 33.663526,7.24152216 32.1674591,7.15483806 L32,7.15 L12,7.15 C10.4822032,7.15 9.24152216,8.33647397 9.15483806,9.83254085 L9.15,10 L9.15,34 C9.15,35.5177968 10.336474,36.7584778 11.8325409,36.8451619 L12,36.85 L22,36.85 C22.6351275,36.85 23.15,37.3648725 23.15,38 C23.15,38.5927856 22.7014888,39.0808159 22.1253052,39.143252 L22,39.15 L12,39.15 C9.22866345,39.15 6.96859681,36.9609933 6.85451801,34.2176977 L6.85,34 L6.85,10 C6.85,7.22866345 9.03900673,4.96859681 11.7823023,4.85451801 L12,4.85 L32,4.85 Z M34,19.85 C36.5681241,19.85 38.65,21.9318759 38.65,24.5 C38.65,25.8549034 38.0705186,27.0744617 37.1458753,27.9243553 L37.15,28 L37.149,31.85 L38,31.85 C40.2225277,31.85 42.0369943,33.5971173 42.1449211,35.7928731 L42.15,36 L42.15,38 C42.15,38.5927856 41.7014888,39.0808159 41.1253052,39.143252 L41,39.15 L27,39.15 C26.4072144,39.15 25.9191841,38.7014888 25.856748,38.1253052 L25.85,38 L25.85,36 C25.85,33.7774723 27.5971173,31.9630057 29.7928731,31.8550789 L30,31.85 L30.85,31.85 L30.85,28 C30.85,27.9744605 30.8508325,27.9491154 30.852472,27.9239905 C29.9294814,27.0744617 29.35,25.8549034 29.35,24.5 C29.35,21.9318759 31.4318759,19.85 34,19.85 Z M38,34.15 L30,34.15 C29.0269269,34.15 28.2293218,34.9012682 28.155566,35.8554236 L28.15,36 L28.15,36.85 L39.85,36.85 L39.85,36 C39.85,35.0781412 39.1757316,34.3137663 38.2934665,34.173147 L38.1445764,34.155566 L38,34.15 Z M34.85,29.15 L33.15,29.15 L33.15,31.85 L34.85,31.85 L34.85,29.15 Z M22.7190338,12.7518806 C23.1011833,12.9787819 23.4293175,13.2847378 23.6819742,13.6482861 L23.8019133,13.8347602 L28.5919528,21.9021951 C28.9021119,22.4245682 28.7300784,23.0994689 28.2077052,23.409628 C27.720157,23.6991097 27.0997403,23.5685482 26.7670142,23.1251447 L26.7002724,23.0253804 L21.9102329,14.9579455 C21.8333793,14.8285077 21.7252862,14.7204147 21.5958485,14.6435611 C21.2013289,14.4093151 20.700475,14.5112291 20.4261607,14.864453 L20.3624944,14.9579455 L14.3759686,25.0405151 C14.2934085,25.1795637 14.2498379,25.3382883 14.2498379,25.5 C14.2498379,25.9588212 14.5931746,26.3374518 15.0369438,26.3929877 L15.1498379,26.4 L27.3916653,26.4 C27.9991786,26.4 28.4916653,26.8924868 28.4916653,27.5 C28.4916653,28.0670123 28.0626546,28.5338239 27.5115225,28.5935453 L27.3916653,28.6 L15.1498379,28.6 C13.4377552,28.6 12.0498379,27.2120827 12.0498379,25.5 C12.0498379,25.0126188 12.1647403,24.5331153 12.383974,24.0999989 L12.4842882,23.9173299 L18.4708139,13.8347602 C19.3448985,12.3626177 21.2468913,11.877796 22.7190338,12.7518806 Z M34,22.15 C32.7021308,22.15 31.65,23.2021308 31.65,24.5 C31.65,25.7978692 32.7021308,26.85 34,26.85 C35.2978692,26.85 36.35,25.7978692 36.35,24.5 C36.35,23.2021308 35.2978692,22.15 34,22.15 Z M21,23.3897 C21.6627417,23.3897 22.2,23.9269583 22.2,24.5897 C22.2,25.2524417 21.6627417,25.7897 21,25.7897 C20.3372583,25.7897 19.8,25.2524417 19.8,24.5897 C19.8,23.9269583 20.3372583,23.3897 21,23.3897 Z M21,17.7523138 C21.5670123,17.7523138 22.0338239,18.1813245 22.0935453,18.7324566 L22.1,18.8523138 L22.1,21.5651516 C22.1,22.1726648 21.6075132,22.6651516 21,22.6651516 C20.4329877,22.6651516 19.9661761,22.2361409 19.9064547,21.6850087 L19.9,21.5651516 L19.9,18.8523138 C19.9,18.2448005 20.3924868,17.7523138 21,17.7523138 Z" id="形状结合"  fill-rule="nonzero"></path>
        </g>
</svg>