<?xml version="1.0" encoding="UTF-8"?>
<svg width="44px" height="44px" viewBox="0 0 44 44" version="1.1" xmlns="http://www.w3.org/2000/svg" xmlns:xlink="http://www.w3.org/1999/xlink">
    <title>jrxrzsjs</title>
        <g id="编组-3">
        
            <path d="M27.8181818,5.9 C30.0323416,5.9 31.8272727,7.69493114 31.8272727,9.90909091 L31.8272727,9.90909091 L31.8287897,10.3456948 C32.428504,10.3774738 32.8255626,10.4570626 33.2517167,10.6136936 C33.8115151,10.8194449 34.2968179,11.1383324 34.7078417,11.5704981 C35.1382142,12.0230079 35.4129594,12.4828393 35.8411403,13.4731129 L35.8411403,13.4731129 L38.447,19.496 L38.5521677,19.694232 C38.8654506,20.3243244 39.0499225,21.0134531 39.0911455,21.7271277 L39.0911455,21.7271277 L39.1,22.0343906 C39.1,24.9367763 36.7507953,27.2904762 33.8518519,27.2904762 C32.3453496,27.2904762 30.9628854,26.6491299 29.9946444,25.5994866 L29.9946444,25.5994866 L29.9,25.493 L29.8078553,25.5988547 C28.8911112,26.593563 27.6018853,27.2218028 26.1874699,27.2851779 L26.1874699,27.2851779 L25.9506173,27.2904762 C24.4530059,27.2904762 23.0748043,26.6564288 22.1033296,25.6063085 L22.1033296,25.6063085 L22.001,25.491 L21.8943363,25.6119791 C20.9769079,26.6010999 19.6914141,27.2225598 18.2848829,27.2852367 L18.2848829,27.2852367 L18.0493827,27.2904762 C16.5428805,27.2904762 15.1604163,26.6491299 14.1921753,25.5994866 L14.1921753,25.5994866 L14.098,25.493 L14.0053862,25.5988547 C13.0886421,26.593563 11.7994162,27.2218028 10.3850008,27.2851779 L10.3850008,27.2851779 L10.232,27.288 L10.6114474,34.2052863 C10.6910535,35.658663 11.84961,36.8084988 13.2843546,36.8947977 L13.4577982,36.9 L24.5,36.9 C25.1075132,36.9 25.6,37.3924868 25.6,38 C25.6,38.5670123 25.1709893,39.0338239 24.6198571,39.0935453 L24.5,39.1 L13.4577982,39.1 C10.8502455,39.1 8.68480348,37.1184935 8.43171575,34.547398 L8.41474013,34.3256069 L8.00394418,26.8332227 C6.17427515,26.0119665 4.9,24.1719899 4.9,22.0343906 C4.9,21.1993305 5.09542812,20.3899483 5.44668758,19.6980164 L5.44668758,19.6980164 L8.34550784,13.3792937 L8.55474439,12.9371194 C8.88543391,12.2644837 9.13811945,11.8937066 9.49559741,11.5285647 C9.90610115,11.1092602 10.386494,10.8010417 10.9387358,10.6026517 C11.3174107,10.4666148 11.6721814,10.3910958 12.1717061,10.3552473 L12.1727273,9.90909091 C12.1727273,7.69493114 13.9676584,5.9 16.1818182,5.9 L16.1818182,5.9 Z M32.9156292,32.4815246 L33.0457528,32.5449325 L36.5457528,34.5449325 C37.073222,34.8463435 37.2564784,35.5182836 36.9550675,36.0457528 C36.6737506,36.5380574 36.0696616,36.7305144 35.5615147,36.508929 L35.4542472,36.4550675 L32.499,34.767 L29.5457528,36.4550675 C29.0534483,36.7363844 28.4352934,36.5955021 28.1100025,36.1466156 L28.0449325,36.0457528 C27.7636156,35.5534483 27.9044979,34.9352934 28.3533844,34.6100025 L28.4542472,34.5449325 L31.9542472,32.5449325 C32.2501511,32.3758446 32.6049912,32.3547086 32.9156292,32.4815246 Z M32.9156292,27.9815246 L33.0457528,28.0449325 L36.5457528,30.0449325 C37.073222,30.3463435 37.2564784,31.0182836 36.9550675,31.5457528 C36.6737506,32.0380574 36.0696616,32.2305144 35.5615147,32.008929 L35.4542472,31.9550675 L32.5,30.267 L29.5457528,31.9550675 C29.0534483,32.2363844 28.4352934,32.0955021 28.1100025,31.6466156 L28.0449325,31.5457528 C27.7636156,31.0534483 27.9044979,30.4352934 28.3533844,30.1100025 L28.4542472,30.0449325 L31.9542472,28.0449325 C32.2501511,27.8758446 32.6049912,27.8547086 32.9156292,27.9815246 Z M31.1907421,12.5289303 L31.0553528,12.5285714 L12.9036025,12.5293547 L12.5703813,12.5359819 L12.3047085,12.5501577 C12.1861704,12.5592931 12.0871379,12.5716198 11.9988734,12.5876788 L11.9988734,12.5876788 L11.8341131,12.6249332 C11.7822528,12.639117 11.7325895,12.6551198 11.6825341,12.673102 C11.4429573,12.7591687 11.2457298,12.8857092 11.0676426,13.0676143 L11.0676426,13.0676143 L10.9606807,13.1853254 C10.839902,13.3296325 10.7281569,13.5077024 10.5729166,13.8176126 L10.5729166,13.8176126 L10.4279765,14.117825 L7.34214213,20.8379197 C7.18323125,21.2118263 7.1,21.6162674 7.1,22.0343906 C7.1,23.2845624 7.84856278,24.3589876 8.92042123,24.8324399 L8.99594651,24.8238281 L8.99594651,24.8238281 C9.27636197,24.8084688 9.53798949,24.8995382 9.74155825,25.0618438 C9.87441952,25.0812888 10.0102165,25.0904762 10.1481481,25.0904762 C11.4829272,25.0904762 12.6506959,24.2223075 13.0495524,22.9686892 C13.3745303,21.9472736 14.8195689,21.946499 15.1456416,22.9675655 C15.5463062,24.2222093 16.7146259,25.0904762 18.0493827,25.0904762 C19.3306847,25.0904762 20.4616065,24.290581 20.8921251,23.1359408 L20.8921251,23.1359408 L20.9573797,22.9454761 C21.2956026,21.9582727 22.6898511,21.9528124 23.0357959,22.9373363 L23.0357959,22.9373363 L23.0952333,23.1071506 C23.537772,24.2904731 24.669334,25.0904762 25.9506173,25.0904762 C27.2853963,25.0904762 28.4531651,24.2223075 28.8520215,22.9686892 C29.1769994,21.9472736 30.622038,21.946499 30.9481108,22.9675655 C31.3487753,24.2222093 32.5170951,25.0904762 33.8518519,25.0904762 C35.5348264,25.0904762 36.9,23.7226903 36.9,22.0343906 C36.9,21.4938559 36.7608098,20.9762506 36.499628,20.5188941 L36.499628,20.5188941 L36.4452745,20.410173 L33.7420142,14.1637182 C33.7165611,14.1062371 33.6922377,14.0520873 33.6688949,14.0009764 L33.6688949,14.0009764 L33.5394125,13.7284349 C33.3792782,13.4074238 33.2628185,13.2434374 33.1137019,13.0866507 C32.9352879,12.8990594 32.7357503,12.7679454 32.4927573,12.6786344 L32.4927573,12.6786344 L32.3390081,12.628641 C32.2338065,12.5991952 32.1197046,12.5772949 31.9757256,12.5616151 L31.9757256,12.5616151 L31.7347272,12.5425949 L31.4331804,12.5319117 C31.3208254,12.5296296 31.1957569,12.5285714 31.0553528,12.5285714 Z M22.0565783,14.7571426 C22.6235839,14.7543931 23.0924802,15.1811242 23.1548864,15.7319589 L23.161925,15.8517831 L23.1835168,20.2803545 C23.1864636,20.8878605 22.6963823,21.3827411 22.0888763,21.3857146 C21.5218707,21.388464 21.0529743,20.9617329 20.9905681,20.4108983 L20.9835296,20.291074 L20.9619378,15.8625026 C20.958991,15.2549966 21.4490723,14.760116 22.0565783,14.7571426 Z M14.9268552,14.7584754 C15.4931806,14.7863765 15.9383163,15.237838 15.9708457,15.7912412 L15.9713947,15.9112708 L15.8259402,18.8636517 C15.7960462,19.470429 15.2799221,19.9380853 14.6731448,19.9081913 C14.1068194,19.8802902 13.6616837,19.4288287 13.6291543,18.8754254 L13.6286053,18.7553959 L13.7740598,15.803015 C13.8039538,15.1962377 14.3200779,14.7285814 14.9268552,14.7584754 Z M29.2185994,14.7584754 C29.7849248,14.7305743 30.2722813,15.1360948 30.3590501,15.6836207 L30.3713947,15.803015 L30.5168493,18.7553959 C30.5467433,19.3621732 30.079087,19.8782972 29.4723097,19.9081913 C28.9059843,19.9360923 28.4186278,19.5305718 28.331859,18.983046 L28.3195144,18.8636517 L28.1740598,15.9112708 C28.1441658,15.3044935 28.6118221,14.7883694 29.2185994,14.7584754 Z M27.8181818,8.1 L16.1818182,8.1 C15.1826849,8.1 14.3727273,8.90995759 14.3727273,9.90909091 L14.3727273,9.90909091 L14.372,10.328 L29.627,10.328 L29.6272727,9.90909091 C29.6272727,8.95991425 28.896286,8.1814687 27.9665554,8.10599708 L27.9665554,8.10599708 L27.8181818,8.1 Z" id="形状结合" fill-rule="nonzero"></path>
    </g>
</svg>