<?xml version="1.0" encoding="UTF-8"?>
<svg width="44px" height="44px" viewBox="0 0 44 44" version="1.1" xmlns="http://www.w3.org/2000/svg" xmlns:xlink="http://www.w3.org/1999/xlink">
    <title>jrxzyhzs</title>
        <g id="编组-2">
       
            <path d="M20.82,7.4 C25.1388667,7.4 28.64,10.9011333 28.64,15.22 C28.64,17.9132356 27.2784997,20.2884758 25.2062265,21.6949933 C26.8419548,22.352324 28.3546009,23.3769478 29.6652853,24.7176315 C30.0899743,25.152041 30.0820944,25.8484779 29.6476849,26.2731669 C29.2132755,26.6978559 28.5168386,26.6899759 28.0921496,26.2555665 C26.069983,24.187116 23.5152746,23.04 20.82,23.04 C14.6678852,23.04 9.6,29.0293189 9.6,36.5 C9.6,37.1075132 9.10751322,37.6 8.5,37.6 C7.89248678,37.6 7.4,37.1075132 7.4,36.5 C7.4,29.6660103 11.1556064,23.8167333 16.4323086,21.6928996 C14.3606257,20.2869498 13,17.9123705 13,15.22 C13,10.9011333 16.5011333,7.4 20.82,7.4 Z M32.9156292,31.9815246 L33.0457528,32.0449325 L36.5457528,34.0449325 C37.073222,34.3463435 37.2564784,35.0182836 36.9550675,35.5457528 C36.6737506,36.0380574 36.0696616,36.2305144 35.5615147,36.008929 L35.4542472,35.9550675 L32.499,34.267 L29.5457528,35.9550675 C29.0534483,36.2363844 28.4352934,36.0955021 28.1100025,35.6466156 L28.0449325,35.5457528 C27.7636156,35.0534483 27.9044979,34.4352934 28.3533844,34.1100025 L28.4542472,34.0449325 L31.9542472,32.0449325 C32.2501511,31.8758446 32.6049912,31.8547086 32.9156292,31.9815246 Z M32.9156292,27.4815246 L33.0457528,27.5449325 L36.5457528,29.5449325 C37.073222,29.8463435 37.2564784,30.5182836 36.9550675,31.0457528 C36.6737506,31.5380574 36.0696616,31.7305144 35.5615147,31.508929 L35.4542472,31.4550675 L32.5,29.767 L29.5457528,31.4550675 C29.0534483,31.7363844 28.4352934,31.5955021 28.1100025,31.1466156 L28.0449325,31.0457528 C27.7636156,30.5534483 27.9044979,29.9352934 28.3533844,29.6100025 L28.4542472,29.5449325 L31.9542472,27.5449325 C32.2501511,27.3758446 32.6049912,27.3547086 32.9156292,27.4815246 Z M20.82,9.6 C17.7161597,9.6 15.2,12.1161597 15.2,15.22 C15.2,18.3238403 17.7161597,20.84 20.82,20.84 C23.9238403,20.84 26.44,18.3238403 26.44,15.22 C26.44,12.1161597 23.9238403,9.6 20.82,9.6 Z" id="形状结合"  fill-rule="nonzero"></path>
    </g>
</svg>