<?xml version="1.0" encoding="UTF-8"?>
<svg width="44px" height="44px" viewBox="0 0 44 44" version="1.1" xmlns="http://www.w3.org/2000/svg" xmlns:xlink="http://www.w3.org/1999/xlink">
    <title>jrzfkje</title>
        <g id="编组-3">
    
            <path d="M22,6.85 C30.367114,6.85 37.15,13.632886 37.15,22 C37.15,30.367114 30.367114,37.15 22,37.15 C13.632886,37.15 6.85,30.367114 6.85,22 C6.85,13.632886 13.632886,6.85 22,6.85 Z M22,9.15 C14.903141,9.15 9.15,14.903141 9.15,22 C9.15,29.096859 14.903141,34.85 22,34.85 C29.096859,34.85 34.85,29.096859 34.85,22 C34.85,14.903141 29.096859,9.15 22,9.15 Z M22,13.1919359 C22.5670123,13.1919359 23.0338239,13.6209466 23.0935453,14.1720788 L23.1,14.2919359 L23.1,15.495 L25.6235985,15.4958954 C26.2311118,15.4958954 26.7235985,15.9883821 26.7235985,16.5958954 C26.7235985,17.1629077 26.2945878,17.6297192 25.7434556,17.6894407 L25.6235985,17.6958954 L20.0494613,17.6958954 C19.2489459,17.6958954 18.6,18.3448413 18.6,19.1453567 C18.6,19.8987829 19.1748448,20.5179469 19.9098685,20.5881828 L20.0494613,20.594818 L24.0494613,20.594818 C26.0103697,20.594818 27.6,22.1844483 27.6,24.1453567 C27.6,26.0430099 26.1112723,27.5929522 24.2380267,27.6909738 L24.0494613,27.6958954 L23.1,27.695 L23.1,29.5958954 C23.1,30.2034086 22.6075132,30.6958954 22,30.6958954 C21.4329877,30.6958954 20.9661761,30.2668847 20.9064547,29.7157525 L20.9,29.5958954 L20.9,27.695 L18.3764015,27.6958954 C17.7688882,27.6958954 17.2764015,27.2034086 17.2764015,26.5958954 C17.2764015,26.028883 17.7054122,25.5620715 18.2565444,25.50235 L18.3764015,25.4958954 L24.0494613,25.4958954 C24.7953432,25.4958954 25.4,24.8912386 25.4,24.1453567 C25.4,23.4433502 24.8643871,22.8664427 24.1795272,22.8010004 L24.0494613,22.794818 L20.0494613,22.794818 C18.0339195,22.794818 16.4,21.1608985 16.4,19.1453567 C16.4,17.1948323 17.9302056,15.6017066 19.8556422,15.500954 L20.0494613,15.4958954 L20.9,15.495 L20.9,14.2919359 C20.9,13.6844227 21.3924868,13.1919359 22,13.1919359 Z" id="形状结合"  fill-rule="nonzero"></path>
    </g>
</svg>