<svg t="1624608659293" class="icon" viewBox="0 0 1024 1024" version="1.1" xmlns="http://www.w3.org/2000/svg" p-id="1928" width="200" height="200"><path d="M328.45283 579.622642a115.924528 115.924528 0 0 1 115.924528 115.924528v212.528302a115.924528 115.924528 0 0 1-115.924528 115.924528H115.924528a115.924528 115.924528 0 0 1-115.924528-115.924528V695.54717a115.924528 115.924528 0 0 1 115.924528-115.924528h212.528302z m579.622642 0a115.924528 115.924528 0 0 1 115.924528 115.924528v212.528302a115.924528 115.924528 0 0 1-115.924528 115.924528H695.54717a115.924528 115.924528 0 0 1-115.924528-115.924528V695.54717a115.924528 115.924528 0 0 1 115.924528-115.924528h212.528302z m-579.622642 57.962264H115.924528a57.962264 57.962264 0 0 0-57.86566 54.561811L57.962264 695.54717v212.528302a57.962264 57.962264 0 0 0 54.561811 57.86566L115.924528 966.037736h212.528302a57.962264 57.962264 0 0 0 57.865661-54.561811L386.415094 908.075472V695.54717a57.962264 57.962264 0 0 0-57.962264-57.962264z m579.622642 0H695.54717a57.962264 57.962264 0 0 0-57.865661 54.561811L637.584906 695.54717v212.528302a57.962264 57.962264 0 0 0 54.561811 57.86566L695.54717 966.037736h212.528302a57.962264 57.962264 0 0 0 57.86566-54.561811L966.037736 908.075472V695.54717a57.962264 57.962264 0 0 0-57.962264-57.962264zM328.45283 0a115.924528 115.924528 0 0 1 115.924528 115.924528v212.528302a115.924528 115.924528 0 0 1-115.924528 115.924528H115.924528a115.924528 115.924528 0 0 1-115.924528-115.924528V115.924528a115.924528 115.924528 0 0 1 115.924528-115.924528h212.528302z m579.622642 0a115.924528 115.924528 0 0 1 115.924528 115.924528v212.528302a115.924528 115.924528 0 0 1-115.924528 115.924528H695.54717a115.924528 115.924528 0 0 1-115.924528-115.924528V115.924528a115.924528 115.924528 0 0 1 115.924528-115.924528h212.528302zM328.45283 57.962264H115.924528a57.962264 57.962264 0 0 0-57.86566 54.561811L57.962264 115.924528v212.528302a57.962264 57.962264 0 0 0 54.561811 57.865661L115.924528 386.415094h212.528302a57.962264 57.962264 0 0 0 57.865661-54.561811L386.415094 328.45283V115.924528a57.962264 57.962264 0 0 0-57.962264-57.962264z m579.622642 0H695.54717a57.962264 57.962264 0 0 0-57.865661 54.561811L637.584906 115.924528v212.528302a57.962264 57.962264 0 0 0 54.561811 57.865661L695.54717 386.415094h212.528302a57.962264 57.962264 0 0 0 57.86566-54.561811L966.037736 328.45283V115.924528a57.962264 57.962264 0 0 0-57.962264-57.962264z" p-id="1929"></path></svg>