<?xml version="1.0" standalone="no"?><!DOCTYPE svg PUBLIC "-//W3C//DTD SVG 1.1//EN" "http://www.w3.org/Graphics/SVG/1.1/DTD/svg11.dtd"><svg t="1632301338260" class="icon" viewBox="0 0 1024 1024" version="1.1" xmlns="http://www.w3.org/2000/svg" p-id="9249" xmlns:xlink="http://www.w3.org/1999/xlink" width="200" height="200"><defs><style type="text/css"></style></defs><path d="M271.36 662.308571L38.765714 429.933714v-0.073143l61.878857-61.878857a65.682286 65.682286 0 0 1 71.68-14.262857l156.379429 64.804572h0.146286l301.933714-232.813715v-0.146285L550.034286 104.813714V104.594286l46.445714-46.372572a65.755429 65.755429 0 0 1 93.037714 0l46.372572 46.372572 0.219428-0.219429 185.782857 185.929143-0.146285 0.219429 46.372571 46.445714a65.755429 65.755429 0 0 1 0 93.037714l-46.372571 46.372572H921.6L840.704 395.702857h-0.146286L607.817143 697.490286v0.146285l64.804571 156.525715a65.682286 65.682286 0 0 1-14.262857 71.68l-61.805714 61.805714h-0.146286L364.251429 755.346286h-0.146286l-232.009143 231.936H39.058286v-92.891429l232.155428-232.082286h0.073143z" p-id="9250"></path></svg>