<?xml version="1.0" standalone="no"?><!DOCTYPE svg PUBLIC "-//W3C//DTD SVG 1.1//EN" "http://www.w3.org/Graphics/SVG/1.1/DTD/svg11.dtd"><svg t="1632302317324" class="icon" viewBox="0 0 1024 1024" version="1.1" xmlns="http://www.w3.org/2000/svg" p-id="10441" xmlns:xlink="http://www.w3.org/1999/xlink" width="200" height="200"><defs><style type="text/css"></style></defs><path d="M850.112 192c31.616 0 60.48 12.416 81.28 35.008 20.864 22.72 30.848 52.8 28.16 84.672l-31.36 357.44c-5.44 63.232-61.568 114.816-124.928 114.816H150.4a27.968 27.968 0 1 1 0-56h652.928c35.072 0 66.176-28.608 69.184-63.808l30.272-345.92-334.4 241.216a27.904 27.904 0 0 1-34.176-1.088L218.624 298.624l-2.56-2.752a27.968 27.968 0 0 1-8.448-40c19.84-29.44 59.584-63.872 106.56-63.872h535.936z m-369.28 410.112a27.968 27.968 0 1 1 0 56H161.28a27.968 27.968 0 0 1 0-56h319.488zM384.576 484.288a27.968 27.968 0 0 1 0 55.936H91.968a27.968 27.968 0 0 1 0-55.936H384.64z m465.6-236.288H314.24c-14.912 0-30.976 8.832-43.904 20.608l282.88 232.832 333.12-240.192-1.6-1.472a53.696 53.696 0 0 0-34.496-11.776zM254.528 367.36a27.968 27.968 0 0 1 0 56H123.904a27.968 27.968 0 0 1 0-56h130.56z"  p-id="10442"></path></svg>