<?xml version="1.0" standalone="no"?><!DOCTYPE svg PUBLIC "-//W3C//DTD SVG 1.1//EN" "http://www.w3.org/Graphics/SVG/1.1/DTD/svg11.dtd"><svg t="1634557256391" class="icon" viewBox="0 0 1024 1024" version="1.1" xmlns="http://www.w3.org/2000/svg" p-id="1787" xmlns:xlink="http://www.w3.org/1999/xlink" width="200" height="200"><defs><style type="text/css"></style></defs><path d="M832 928 192 928c-23.466667 0-42.666667-19.2-42.666667-42.666667l0-640c0-23.466667 19.2-42.666667 42.666667-42.666667l85.333333 0 0 64c0 12.8 8.533333 21.333333 21.333333 21.333333l426.666667 0c12.8 0 21.333333-8.533333 21.333333-21.333333l0-64 85.333333 0c23.466667 0 42.666667 19.2 42.666667 42.666667l0 640C874.666667 908.8 855.466667 928 832 928zM704 373.333333 320 373.333333c-12.8 0-21.333333 8.533333-21.333333 21.333333 0 12.8 8.533333 21.333333 21.333333 21.333333l384 0c12.8 0 21.333333-8.533333 21.333333-21.333333C725.333333 381.866667 716.8 373.333333 704 373.333333zM704 544 320 544c-12.8 0-21.333333 8.533333-21.333333 21.333333 0 12.8 8.533333 21.333333 21.333333 21.333333l384 0c12.8 0 21.333333-8.533333 21.333333-21.333333C725.333333 552.533333 716.8 544 704 544zM704 714.666667 320 714.666667c-12.8 0-21.333333 8.533333-21.333333 21.333333 0 12.8 8.533333 21.333333 21.333333 21.333333l384 0c12.8 0 21.333333-8.533333 21.333333-21.333333C725.333333 723.2 716.8 714.666667 704 714.666667zM682.666667 245.333333 341.333333 245.333333c-12.8 0-21.333333-8.533333-21.333333-21.333333 0-12.8 8.533333-21.333333 21.333333-21.333333l64 0c0-59.733333 46.933333-106.666667 106.666667-106.666667s106.666667 46.933333 106.666667 106.666667l64 0c12.8 0 21.333333 8.533333 21.333333 21.333333C704 236.8 695.466667 245.333333 682.666667 245.333333zM512 138.666667c-36.266667 0-64 27.733333-64 64l128 0C576 166.4 548.266667 138.666667 512 138.666667z" p-id="1788"></path></svg>