<?xml version="1.0" standalone="no"?><!DOCTYPE svg PUBLIC "-//W3C//DTD SVG 1.1//EN" "http://www.w3.org/Graphics/SVG/1.1/DTD/svg11.dtd"><svg t="1632636484358" class="icon" viewBox="0 0 1024 1024" version="1.1" xmlns="http://www.w3.org/2000/svg" p-id="12228" xmlns:xlink="http://www.w3.org/1999/xlink" width="200" height="200"><defs><style type="text/css"></style></defs><path d="M453.79946 483.793588c0 30.860868 25.106818 55.962569 55.962569 55.962569s55.962569-25.101701 55.962569-55.962569c0-30.867008-25.106818-55.962569-55.962569-55.962569S453.79946 452.92658 453.79946 483.793588zM537.742291 483.793588c0 15.424294-12.550851 27.981285-27.981285 27.981285s-27.981285-12.55699-27.981285-27.981285c0-15.424294 12.550851-27.981285 27.981285-27.981285S537.742291 468.36827 537.742291 483.793588zM355.864964 427.831019c-30.854728 0-55.95643 25.095561-55.95643 55.962569 0 30.860868 25.101701 55.962569 55.95643 55.962569 30.860868 0 55.962569-25.101701 55.962569-55.962569C411.827533 452.92658 386.725832 427.831019 355.864964 427.831019zM355.864964 511.773849c-15.430434 0-27.981285-12.55699-27.981285-27.981285 0-15.424294 12.550851-27.981285 27.981285-27.981285 15.436574 0 27.981285 12.55699 27.981285 27.981285C383.846248 499.217882 371.301538 511.773849 355.864964 511.773849zM663.657049 427.831019c-30.860868 0-55.962569 25.095561-55.962569 55.962569 0 30.860868 25.101701 55.962569 55.962569 55.962569 30.854728 0 55.962569-25.101701 55.962569-55.962569C719.619618 452.92658 694.511777 427.831019 663.657049 427.831019zM663.657049 511.773849c-15.430434 0-27.981285-12.55699-27.981285-27.981285 0-15.424294 12.550851-27.981285 27.981285-27.981285s27.981285 12.55699 27.981285 27.981285C691.638333 499.217882 679.087483 511.773849 663.657049 511.773849zM565.723575 637.68963c0-30.867008-25.106818-55.962569-55.962569-55.962569s-55.962569 25.095561-55.962569 55.962569c0 30.860868 25.106818 55.962569 55.962569 55.962569S565.723575 668.549475 565.723575 637.68963zM509.761006 665.669892c-15.430434 0-27.981285-12.55699-27.981285-27.981285 0-15.424294 12.550851-27.981285 27.981285-27.981285s27.981285 12.55699 27.981285 27.981285C537.742291 653.113925 525.19144 665.669892 509.761006 665.669892zM355.864964 581.727061c-30.854728 0-55.95643 25.095561-55.95643 55.962569 0 30.860868 25.101701 55.962569 55.95643 55.962569 30.860868 0 55.962569-25.101701 55.962569-55.962569C411.827533 606.822622 386.725832 581.727061 355.864964 581.727061zM355.864964 665.669892c-15.430434 0-27.981285-12.55699-27.981285-27.981285 0-15.424294 12.550851-27.981285 27.981285-27.981285 15.436574 0 27.981285 12.55699 27.981285 27.981285C383.846248 653.113925 371.301538 665.669892 355.864964 665.669892zM663.657049 581.727061c-30.860868 0-55.962569 25.095561-55.962569 55.962569 0 30.860868 25.101701 55.962569 55.962569 55.962569 30.854728 0 55.962569-25.101701 55.962569-55.962569C719.619618 606.822622 694.511777 581.727061 663.657049 581.727061zM663.657049 665.669892c-15.430434 0-27.981285-12.55699-27.981285-27.981285 0-15.424294 12.550851-27.981285 27.981285-27.981285s27.981285 12.55699 27.981285 27.981285C691.638333 653.113925 679.087483 665.669892 663.657049 665.669892zM789.571806 797.711184 789.571806 158.449755c0-52.04433-47.491641-94.366228-105.867166-94.366228L335.818395 64.083527c-58.375525 0-105.86205 42.320874-105.86205 94.366228l0 640.2305c-87.364767 47.947012-125.914758 111.475907-125.914758 146.795321l0 13.990642 811.438836 0 0-13.990642C915.480424 909.915685 876.948853 845.768713 789.571806 797.711184zM257.93763 158.449755c0-36.602639 34.935674-66.391083 77.880765-66.391083l347.886245 0c42.951231 0 77.886905 29.788443 77.886905 66.391083l0 625.237017c-61.901839-28.184923-143.921877-48.063669-248.943792-48.063669-107.762329 0-191.676507 20.320814-254.709099 49.030693L257.938654 158.449755zM134.266983 931.484933c17.080004-57.967226 132.60104-167.886685 378.379747-167.886685 238.106979 0 354.782306 110.886483 372.46913 167.886685L134.266983 931.484933zM359.072005 371.869472l301.379025 0c32.627095 0 59.168588-26.546609 59.168588-59.173704L719.619618 179.213661c0-32.627095-26.541493-59.173704-59.168588-59.173704L359.072005 120.039957c-32.627095 0-59.162448 26.546609-59.162448 59.173704L299.909557 312.694745C299.909557 345.32184 326.44491 371.869472 359.072005 371.869472zM327.884702 179.213661c0-17.202801 13.996782-31.193443 31.187303-31.193443l301.379025 0c17.196661 0 31.187303 13.990642 31.187303 31.193443L691.638333 312.694745c0 17.202801-13.990642 31.193443-31.187303 31.193443L359.072005 343.888188c-17.190521 0-31.187303-13.990642-31.187303-31.193443L327.884702 179.213661zM607.601358 833.550437 423.14223 833.550437c-7.730055 0-13.990642 6.260587-13.990642 13.990642 0 7.735172 6.260587 13.990642 13.990642 13.990642l184.459129 0c7.723915 0 13.990642-6.254447 13.990642-13.990642C621.592001 839.811024 615.325273 833.550437 607.601358 833.550437z" p-id="12229"></path></svg>