<?xml version="1.0" standalone="no"?><!DOCTYPE svg PUBLIC "-//W3C//DTD SVG 1.1//EN" "http://www.w3.org/Graphics/SVG/1.1/DTD/svg11.dtd"><svg t="1631858453910" class="icon" viewBox="0 0 1024 1024" version="1.1" xmlns="http://www.w3.org/2000/svg" p-id="2449" xmlns:xlink="http://www.w3.org/1999/xlink" width="200" height="200"><defs><style type="text/css"></style></defs><path d="M736.3 428.83H928v179.19H736.3zM843.97 104.48H182.03c-46.22 0-84.03 37.81-84.03 84.03v173.65h184.75v-4.31c0-40.8 33.38-74.17 74.17-74.17h305.2c40.8 0 74.17 33.38 74.17 74.17v4.31H928V188.51c0-46.22-37.82-84.03-84.03-84.03zM98 428.83h184.75v179.19H98zM736.3 682.49c0 40.8-33.38 74.17-74.17 74.17h-305.2c-40.8 0-74.17-33.38-74.17-74.17v-7.78H98v163.23c0 46.22 37.81 84.03 84.03 84.03h661.93c46.22 0 84.03-37.81 84.03-84.03V674.71H736.3v7.78z" fill="#180809" p-id="2450"></path></svg>