<?xml version="1.0" encoding="UTF-8"?>
<svg width="44px" height="44px" viewBox="0 0 44 44" version="1.1" xmlns="http://www.w3.org/2000/svg" xmlns:xlink="http://www.w3.org/1999/xlink">
    <title>pltscl</title>
        <!-- <path d="M19.1277704,11 L35.8722296,11 C37.6552671,11 38.3018396,11.1856512 38.9536914,11.5342654 C39.6055433,11.8828796 40.1171204,12.3944567 40.4657346,13.0463086 C40.8143488,13.6981604 41,14.3447329 41,16.1277704 L41,36.8722296 C41,38.6552671 40.8143488,39.3018396 40.4657346,39.9536914 C40.1171204,40.6055433 39.6055433,41.1171204 38.9536914,41.4657346 C38.3018396,41.8143488 37.6552671,42 35.8722296,42 L19.1277704,42 C17.3447329,42 16.6981604,41.8143488 16.0463086,41.4657346 C15.3944567,41.1171204 14.8828796,40.6055433 14.5342654,39.9536914 C14.1856512,39.3018396 14,38.6552671 14,36.8722296 L14,16.1277704 C14,14.3447329 14.1856512,13.6981604 14.5342654,13.0463086 C14.8828796,12.3944567 15.3944567,11.8828796 16.0463086,11.5342654 C16.6981604,11.1856512 17.3447329,11 19.1277704,11 Z" id="bd" fill="#D5E5FF"></path> -->
        <path d="M35.6358503,15.5373563 C35.9817655,15.0046936 36.6939936,14.8533048 37.2266563,15.19922 L37.2266563,15.19922 L43.0973503,19.0116933 C43.630013,19.3576085 43.7814018,20.0698366 43.4354866,20.6024993 L43.4354866,20.6024993 L41.2569304,23.9571816 L32.8397817,36.918454 C32.7015436,37.131322 32.496766,37.2924769 32.2573664,37.3768003 L32.2573664,37.3768003 L26.8463875,39.2827026 C26.1346899,39.5333829 25.3784955,39.0423045 25.3180299,38.2901756 L25.3180299,38.2901756 L24.8583149,32.5718 C24.8379755,32.3188002 24.9019073,32.066179 25.0401454,31.853311 L25.0401454,31.853311 L33.4572941,18.8920385 L33.4572941,18.8920385 Z M32,4.85 C34.7713366,4.85 37.0314032,7.03900673 37.145482,9.78230226 L37.15,10 L37.15,12 C37.15,12.6351275 36.6351275,13.15 36,13.15 C35.4072144,13.15 34.9191841,12.7014888 34.856748,12.1253052 L34.85,12 L34.85,10 C34.85,8.48220316 33.663526,7.24152216 32.1674591,7.15483806 L32,7.15 L12,7.15 C10.4822032,7.15 9.24152216,8.33647397 9.15483806,9.83254085 L9.15,10 L9.15,34 C9.15,35.5177968 10.336474,36.7584778 11.8325409,36.8451619 L12,36.85 L22,36.85 C22.6351275,36.85 23.15,37.3648725 23.15,38 C23.15,38.5927856 22.7014888,39.0808159 22.1253052,39.143252 L22,39.15 L12,39.15 C9.22866345,39.15 6.96859681,36.9609933 6.85451801,34.2176977 L6.85,34 L6.85,10 C6.85,7.22866345 9.03900673,4.96859681 11.7823023,4.85451801 L12,4.85 L32,4.85 Z M34.7594681,21.1085215 L27.1819052,32.7769451 L27.4905427,36.6164694 L31.1236568,35.3367486 L38.7012197,23.668325 L38.264,23.384 L34.7594681,21.1085215 Z M18,28.85 C18.6351275,28.85 19.15,29.3648725 19.15,30 C19.15,30.5927856 18.7014888,31.0808159 18.1253052,31.143252 L18,31.15 L14,31.15 C13.3648725,31.15 12.85,30.6351275 12.85,30 C12.85,29.4072144 13.2985112,28.9191841 13.8746948,28.856748 L14,28.85 L18,28.85 Z M24,20.85 C24.6351275,20.85 25.15,21.3648725 25.15,22 C25.15,22.5927856 24.7014888,23.0808159 24.1253052,23.143252 L24,23.15 L14,23.15 C13.3648725,23.15 12.85,22.6351275 12.85,22 C12.85,21.4072144 13.2985112,20.9191841 13.8746948,20.856748 L14,20.85 L24,20.85 Z M36.9382768,17.7540591 L36.0123904,19.179799 L39.9541421,21.7396025 L40.8800285,20.3138625 L36.9382768,17.7540591 Z M30,12.85 C30.6351275,12.85 31.15,13.3648725 31.15,14 C31.15,14.5927856 30.7014888,15.0808159 30.1253052,15.143252 L30,15.15 L14,15.15 C13.3648725,15.15 12.85,14.6351275 12.85,14 C12.85,13.4072144 13.2985112,12.9191841 13.8746948,12.856748 L14,12.85 L30,12.85 Z" id="mix"  fill-rule="nonzero"></path>
</svg>