<?xml version="1.0" encoding="UTF-8"?>
<svg width="44px" height="44px" viewBox="0 0 44 44" version="1.1" xmlns="http://www.w3.org/2000/svg" xmlns:xlink="http://www.w3.org/1999/xlink">
    <title>ptzfkbs</title>
    
        <path d="M37.5,34.9 C38.1075132,34.9 38.6,35.3924868 38.6,36 C38.6,36.5670123 38.1709893,37.0338239 37.6198571,37.0935453 L37.5,37.1 L6.5,37.1 C5.89248678,37.1 5.4,36.6075132 5.4,36 C5.4,35.4329877 5.8290107,34.9661761 6.38014288,34.9064547 L6.5,34.9 L37.5,34.9 Z M34.5,5.4 C36.6957503,5.4 38.4883558,7.12606768 38.5949823,9.29536865 L38.6,9.5 L38.6,13.9 C38.6,14.5075132 38.1075132,15 37.5,15 C36.9329877,15 36.4661761,14.5709893 36.4064547,14.0198571 L36.4,13.9 L36.4,9.5 C36.4,8.5006276 35.6284272,7.68146567 34.6484839,7.6057164 L34.5,7.6 L9.5,7.6 C8.5006276,7.6 7.68146567,8.37157277 7.6057164,9.35151612 L7.6,9.5 L7.6,28.5 C7.6,29.4993724 8.37157277,30.3185343 9.35151612,30.3942836 L9.5,30.4 L34.5,30.4 C35.4993724,30.4 36.3185343,29.6284272 36.3942836,28.6484839 L36.4,28.5 L36.4,23.5 C36.4,22.8924868 36.8924868,22.4 37.5,22.4 C38.0670123,22.4 38.5338239,22.8290107 38.5935453,23.3801429 L38.6,23.5 L38.6,28.5 C38.6,30.6957503 36.8739323,32.4883558 34.7046314,32.5949823 L34.5,32.6 L9.5,32.6 C7.30424972,32.6 5.51164415,30.8739323 5.40501769,28.7046314 L5.4,28.5 L5.4,9.5 C5.4,7.30424972 7.12606768,5.51164415 9.29536865,5.40501769 L9.5,5.4 L34.5,5.4 Z M29,19.7461736 C29.3543827,19.7461736 29.6472582,20.0095172 29.6936098,20.3511878 L29.7,20.4461736 L29.7,20.8 L30.6104882,20.8 C30.9970876,20.8 31.3104882,21.1134007 31.3104882,21.5 C31.3104882,21.8543827 31.0471446,22.1472582 30.7054741,22.1936098 L30.6104882,22.2 L28.1661184,22.2 C27.9086883,22.2 27.7,22.4086883 27.7,22.6661184 C27.7,22.8949452 27.8648895,23.0852599 28.0823331,23.1247271 L28.1661184,23.1322369 L29.8791286,23.1322369 C30.8847681,23.1322369 31.7,23.9474688 31.7,24.9531083 C31.7,25.9084658 30.9642532,26.6919805 30.0284683,26.7679436 L29.8791286,26.7739797 L29.7,26.773 L29.7,27.4461736 C29.7,27.8327729 29.3865993,28.1461736 29,28.1461736 C28.6456173,28.1461736 28.3527418,27.88283 28.3063902,27.5411595 L28.3,27.4461736 L28.3,26.773 L27.3895118,26.7739797 C27.0029124,26.7739797 26.6895118,26.460579 26.6895118,26.0739797 C26.6895118,25.719597 26.9528554,25.4267215 27.2945259,25.3803699 L27.3895118,25.3739797 L29.8791286,25.3739797 C30.1115694,25.3739797 30.3,25.1855492 30.3,24.9531083 C30.3,24.7464942 30.1511166,24.5746537 29.9547807,24.5390177 L29.8791286,24.5322369 L28.1661184,24.5322369 C27.1354897,24.5322369 26.3,23.6967472 26.3,22.6661184 C26.3,21.6845672 27.0578138,20.8800129 28.0202824,20.8056145 L28.1661184,20.8 L28.3,20.8 L28.3,20.4461736 C28.3,20.0595743 28.6134007,19.7461736 29,19.7461736 Z M27,10 C28.5976809,10 29.9036609,11.24892 29.9949073,12.8237272 L30,13 L30,18 C30,18.5522847 29.5522847,19 29,19 C28.4871642,19 28.0644928,18.6139598 28.0067277,18.1166211 L28,18 L28,13 C28,12.4871642 27.6139598,12.0644928 27.1166211,12.0067277 L27,12 L17,12 C16.4871642,12 16.0644928,12.3860402 16.0067277,12.8833789 L16,13 L16,25 C16,25.5128358 16.3860402,25.9355072 16.8833789,25.9932723 L17,26 L24,26 C24.5522847,26 25,26.4477153 25,27 C25,27.5128358 24.6139598,27.9355072 24.1166211,27.9932723 L24,28 L17,28 C15.4023191,28 14.0963391,26.75108 14.0050927,25.1762728 L14,25 L14,13 C14,11.4023191 15.24892,10.0963391 16.8237272,10.0050927 L17,10 L27,10 Z M22,20.5 C22.5522847,20.5 23,20.9477153 23,21.5 C23,22.0128358 22.6139598,22.4355072 22.1166211,22.4932723 L22,22.5 L18,22.5 C17.4477153,22.5 17,22.0522847 17,21.5 C17,20.9871642 17.3860402,20.5644928 17.8833789,20.5067277 L18,20.5 L22,20.5 Z M26,15.5 C26.5522847,15.5 27,15.9477153 27,16.5 C27,17.0128358 26.6139598,17.4355072 26.1166211,17.4932723 L26,17.5 L18,17.5 C17.4477153,17.5 17,17.0522847 17,16.5 C17,15.9871642 17.3860402,15.5644928 17.8833789,15.5067277 L18,15.5 L26,15.5 Z" id="mix"  fill-rule="nonzero"></path>
</svg>