<?xml version="1.0" encoding="UTF-8"?>
<svg width="44px" height="44px" viewBox="0 0 44 44" version="1.1" xmlns="http://www.w3.org/2000/svg" xmlns:xlink="http://www.w3.org/1999/xlink">
    <title>ptzfkmjs</title>
  
        <path d="M37.5,34.9 C38.1075132,34.9 38.6,35.3924868 38.6,36 C38.6,36.5670123 38.1709893,37.0338239 37.6198571,37.0935453 L37.5,37.1 L6.5,37.1 C5.89248678,37.1 5.4,36.6075132 5.4,36 C5.4,35.4329877 5.8290107,34.9661761 6.38014288,34.9064547 L6.5,34.9 L37.5,34.9 Z M34.5,5.4 C36.6957503,5.4 38.4883558,7.12606768 38.5949823,9.29536865 L38.6,9.5 L38.6,13.9 C38.6,14.5075132 38.1075132,15 37.5,15 C36.9329877,15 36.4661761,14.5709893 36.4064547,14.0198571 L36.4,13.9 L36.4,9.5 C36.4,8.5006276 35.6284272,7.68146567 34.6484839,7.6057164 L34.5,7.6 L9.5,7.6 C8.5006276,7.6 7.68146567,8.37157277 7.6057164,9.35151612 L7.6,9.5 L7.6,28.5 C7.6,29.4993724 8.37157277,30.3185343 9.35151612,30.3942836 L9.5,30.4 L34.5,30.4 C35.4993724,30.4 36.3185343,29.6284272 36.3942836,28.6484839 L36.4,28.5 L36.4,23.5 C36.4,22.8924868 36.8924868,22.4 37.5,22.4 C38.0670123,22.4 38.5338239,22.8290107 38.5935453,23.3801429 L38.6,23.5 L38.6,28.5 C38.6,30.6957503 36.8739323,32.4883558 34.7046314,32.5949823 L34.5,32.6 L9.5,32.6 C7.30424972,32.6 5.51164415,30.8739323 5.40501769,28.7046314 L5.4,28.5 L5.4,9.5 C5.4,7.30424972 7.12606768,5.51164415 9.29536865,5.40501769 L9.5,5.4 L34.5,5.4 Z M29,19.3 C29.3543827,19.3 29.6472582,19.5633436 29.6936098,19.9050141 L29.7,20 L29.7,20.353 L30.6104882,20.3538264 C30.9970876,20.3538264 31.3104882,20.6672271 31.3104882,21.0538264 C31.3104882,21.4082091 31.0471446,21.7010846 30.7054741,21.7474362 L30.6104882,21.7538264 L28.1661184,21.7538264 C27.9086883,21.7538264 27.7,21.9625147 27.7,22.2199448 C27.7,22.4487716 27.8648895,22.6390863 28.0823331,22.6785534 L28.1661184,22.6860632 L29.8791286,22.6860632 C30.8847681,22.6860632 31.7,23.5012951 31.7,24.5069347 C31.7,25.4622922 30.9642532,26.2458069 30.0284683,26.32177 L29.8791286,26.3278061 L29.7,26.327 L29.7,27 C29.7,27.3865993 29.3865993,27.7 29,27.7 C28.6456173,27.7 28.3527418,27.4366564 28.3063902,27.0949859 L28.3,27 L28.3,26.327 L27.3895118,26.3278061 C27.0029124,26.3278061 26.6895118,26.0144054 26.6895118,25.6278061 C26.6895118,25.2734234 26.9528554,24.9805479 27.2945259,24.9341963 L27.3895118,24.9278061 L29.8791286,24.9278061 C30.1115694,24.9278061 30.3,24.7393755 30.3,24.5069347 C30.3,24.3003206 30.1511166,24.12848 29.9547807,24.092844 L29.8791286,24.0860632 L28.1661184,24.0860632 C27.1354897,24.0860632 26.3,23.2505736 26.3,22.2199448 C26.3,21.2383936 27.0578138,20.4338393 28.0202824,20.3594408 L28.1661184,20.3538264 L28.3,20.353 L28.3,20 C28.3,19.6134007 28.6134007,19.3 29,19.3 Z M22,10 C24.7614237,10 27,12.2385763 27,15 C27,16.6682285 26.1830098,18.1456388 24.9273116,19.0539483 C25.2675367,19.1866271 25.5977274,19.3435378 25.9167669,19.5229771 C26.3981379,19.7937175 26.5688877,20.4034243 26.2981473,20.8847954 C26.0274068,21.3661664 25.4177,21.5369162 24.936329,21.2661758 C24.0474221,20.7662224 23.0442098,20.5 22,20.5 C18.6862915,20.5 16,23.1862915 16,26.5 C16,27.0522847 15.5522847,27.5 15,27.5 C14.4477153,27.5 14,27.0522847 14,26.5 C14,23.1155846 16.1016148,20.2220276 19.0709998,19.0531738 C17.8165482,18.1448393 17,16.6677772 17,15 C17,12.2385763 19.2385763,10 22,10 Z M22,12 C20.3431458,12 19,13.3431458 19,15 C19,16.6568542 20.3431458,18 22,18 C23.6568542,18 25,16.6568542 25,15 C25,13.3431458 23.6568542,12 22,12 Z" id="mix" fill-rule="nonzero"></path>
</svg>