<?xml version="1.0" encoding="UTF-8"?>
<svg width="44px" height="44px" viewBox="0 0 44 44" version="1.1" xmlns="http://www.w3.org/2000/svg" xmlns:xlink="http://www.w3.org/1999/xlink">
    <title>ptzfkje</title>
   
        <path d="M37.5,34.9 C38.1075132,34.9 38.6,35.3924868 38.6,36 C38.6,36.5670123 38.1709893,37.0338239 37.6198571,37.0935453 L37.5,37.1 L6.5,37.1 C5.89248678,37.1 5.4,36.6075132 5.4,36 C5.4,35.4329877 5.8290107,34.9661761 6.38014288,34.9064547 L6.5,34.9 L37.5,34.9 Z M34.5,5.4 C36.6957503,5.4 38.4883558,7.12606768 38.5949823,9.29536865 L38.6,9.5 L38.6,13.9 C38.6,14.5075132 38.1075132,15 37.5,15 C36.9329877,15 36.4661761,14.5709893 36.4064547,14.0198571 L36.4,13.9 L36.4,9.5 C36.4,8.5006276 35.6284272,7.68146567 34.6484839,7.6057164 L34.5,7.6 L9.5,7.6 C8.5006276,7.6 7.68146567,8.37157277 7.6057164,9.35151612 L7.6,9.5 L7.6,28.5 C7.6,29.4993724 8.37157277,30.3185343 9.35151612,30.3942836 L9.5,30.4 L34.5,30.4 C35.4993724,30.4 36.3185343,29.6284272 36.3942836,28.6484839 L36.4,28.5 L36.4,23.5 C36.4,22.8924868 36.8924868,22.4 37.5,22.4 C38.0670123,22.4 38.5338239,22.8290107 38.5935453,23.3801429 L38.6,23.5 L38.6,28.5 C38.6,30.6957503 36.8739323,32.4883558 34.7046314,32.5949823 L34.5,32.6 L9.5,32.6 C7.30424972,32.6 5.51164415,30.8739323 5.40501769,28.7046314 L5.4,28.5 L5.4,9.5 C5.4,7.30424972 7.12606768,5.51164415 9.29536865,5.40501769 L9.5,5.4 L34.5,5.4 Z M22,10.1919359 C22.5670123,10.1919359 23.0338239,10.6209466 23.0935453,11.1720788 L23.1,11.2919359 L23.1,12.4949359 L25.6235985,12.4958954 C26.2311118,12.4958954 26.7235985,12.9883821 26.7235985,13.5958954 C26.7235985,14.1629077 26.2945878,14.6297192 25.7434556,14.6894407 L25.6235985,14.6958954 L20.0494613,14.6958954 C19.2489459,14.6958954 18.6,15.3448413 18.6,16.1453567 C18.6,16.8987829 19.1748448,17.5179469 19.9098685,17.5881828 L20.0494613,17.594818 L24.0494613,17.594818 C26.0103697,17.594818 27.6,19.1844483 27.6,21.1453567 C27.6,23.0430099 26.1112723,24.5929522 24.2380267,24.6909738 L24.0494613,24.6958954 L23.1,24.6949359 L23.1,26.5958954 C23.1,27.2034086 22.6075132,27.6958954 22,27.6958954 C21.4329877,27.6958954 20.9661761,27.2668847 20.9064547,26.7157525 L20.9,26.5958954 L20.9,24.6949359 L18.3764015,24.6958954 C17.7688882,24.6958954 17.2764015,24.2034086 17.2764015,23.5958954 C17.2764015,23.028883 17.7054122,22.5620715 18.2565444,22.50235 L18.3764015,22.4958954 L24.0494613,22.4958954 C24.7953432,22.4958954 25.4,21.8912386 25.4,21.1453567 C25.4,20.4433502 24.8643871,19.8664427 24.1795272,19.8010004 L24.0494613,19.794818 L20.0494613,19.794818 C18.0339195,19.794818 16.4,18.1608985 16.4,16.1453567 C16.4,14.1948323 17.9302056,12.6017066 19.8556422,12.500954 L20.0494613,12.4958954 L20.9,12.4949359 L20.9,11.2919359 C20.9,10.6844227 21.3924868,10.1919359 22,10.1919359 Z" id="mix" fill-rule="nonzero"></path>
</svg>