<?xml version="1.0" encoding="UTF-8"?>
<svg width="44px" height="44px" viewBox="0 0 44 44" version="1.1" xmlns="http://www.w3.org/2000/svg" xmlns:xlink="http://www.w3.org/1999/xlink">
    <title>qbsp</title>
     
        <path d="M16.5,22.9 C18.7643675,22.9 20.6,24.7356325 20.6,27 L20.6,27 L20.6,32 C20.6,34.2643675 18.7643675,36.1 16.5,36.1 L16.5,36.1 L11.5,36.1 C9.23563253,36.1 7.4,34.2643675 7.4,32 L7.4,32 L7.4,27 C7.4,24.7356325 9.23563253,22.9 11.5,22.9 L11.5,22.9 Z M32.5,22.9 C34.7643675,22.9 36.6,24.7356325 36.6,27 L36.6,27 L36.6,32 C36.6,34.2643675 34.7643675,36.1 32.5,36.1 L32.5,36.1 L27.5,36.1 C25.2356325,36.1 23.4,34.2643675 23.4,32 L23.4,32 L23.4,27 C23.4,24.7356325 25.2356325,22.9 27.5,22.9 L27.5,22.9 Z M16.5,25.1 L11.5,25.1 C10.450659,25.1 9.6,25.950659 9.6,27 L9.6,27 L9.6,32 C9.6,33.049341 10.450659,33.9 11.5,33.9 L11.5,33.9 L16.5,33.9 C17.549341,33.9 18.4,33.049341 18.4,32 L18.4,32 L18.4,27 C18.4,25.950659 17.549341,25.1 16.5,25.1 L16.5,25.1 Z M32.5,25.1 L27.5,25.1 C26.450659,25.1 25.6,25.950659 25.6,27 L25.6,27 L25.6,32 C25.6,33.049341 26.450659,33.9 27.5,33.9 L27.5,33.9 L32.5,33.9 C33.549341,33.9 34.4,33.049341 34.4,32 L34.4,32 L34.4,27 C34.4,25.950659 33.549341,25.1 32.5,25.1 L32.5,25.1 Z M16.5,6.9 C18.7643675,6.9 20.6,8.73563253 20.6,11 L20.6,11 L20.6,16 C20.6,18.2643675 18.7643675,20.1 16.5,20.1 L16.5,20.1 L11.5,20.1 C9.23563253,20.1 7.4,18.2643675 7.4,16 L7.4,16 L7.4,11 C7.4,8.73563253 9.23563253,6.9 11.5,6.9 L11.5,6.9 Z M32.5,6.9 C34.7643675,6.9 36.6,8.73563253 36.6,11 L36.6,11 L36.6,16 C36.6,18.2643675 34.7643675,20.1 32.5,20.1 L32.5,20.1 L27.5,20.1 C25.2356325,20.1 23.4,18.2643675 23.4,16 L23.4,16 L23.4,11 C23.4,8.73563253 25.2356325,6.9 27.5,6.9 L27.5,6.9 Z M16.5,9.1 L11.5,9.1 C10.450659,9.1 9.6,9.95065898 9.6,11 L9.6,11 L9.6,16 C9.6,17.049341 10.450659,17.9 11.5,17.9 L11.5,17.9 L16.5,17.9 C17.549341,17.9 18.4,17.049341 18.4,16 L18.4,16 L18.4,11 C18.4,9.95065898 17.549341,9.1 16.5,9.1 L16.5,9.1 Z M32.5,9.1 L27.5,9.1 C26.450659,9.1 25.6,9.95065898 25.6,11 L25.6,11 L25.6,16 C25.6,17.049341 26.450659,17.9 27.5,17.9 L27.5,17.9 L32.5,17.9 C33.549341,17.9 34.4,17.049341 34.4,16 L34.4,16 L34.4,11 C34.4,9.95065898 33.549341,9.1 32.5,9.1 L32.5,9.1 Z" id="mix"  fill-rule="nonzero"></path>
</svg>