<?xml version="1.0" standalone="no"?><!DOCTYPE svg PUBLIC "-//W3C//DTD SVG 1.1//EN" "http://www.w3.org/Graphics/SVG/1.1/DTD/svg11.dtd"><svg t="1632302374697" class="icon" viewBox="0 0 1024 1024" version="1.1" xmlns="http://www.w3.org/2000/svg" p-id="12810" xmlns:xlink="http://www.w3.org/1999/xlink" width="200" height="200"><defs><style type="text/css"></style></defs><path d="M512 16C238.086 16 16 238.166 16 512c0 273.994 222.086 496 496 496s496-222.006 496-496C1008 238.166 785.914 16 512 16z m0 896c-221.064 0-400-178.862-400-400 0-220.99 178.944-400 400-400 220.982 0 400 178.942 400 400 0 221.06-178.862 400-400 400z m214.488-510.4c0 134.104-144.842 136.168-144.842 185.726V600c0 13.254-10.746 24-24 24h-91.294c-13.254 0-24-10.746-24-24v-17.318c0-71.49 54.2-100.068 95.158-123.032 35.122-19.69 56.648-33.082 56.648-59.158 0-34.492-43.998-57.386-79.568-57.386-46.378 0-67.788 21.954-97.884 59.938-8.114 10.24-22.92 12.142-33.332 4.248l-55.648-42.196c-10.214-7.744-12.502-22.132-5.288-32.726C369.692 262.982 429.88 224 523.588 224c98.142 0 202.9 76.608 202.9 177.6zM596 736c0 46.318-37.682 84-84 84s-84-37.682-84-84 37.682-84 84-84 84 37.682 84 84z" p-id="12811"></path></svg>