<?xml version="1.0" standalone="no"?><!DOCTYPE svg PUBLIC "-//W3C//DTD SVG 1.1//EN" "http://www.w3.org/Graphics/SVG/1.1/DTD/svg11.dtd"><svg t="1632302498611" class="icon" viewBox="0 0 1024 1024" version="1.1" xmlns="http://www.w3.org/2000/svg" p-id="13758" xmlns:xlink="http://www.w3.org/1999/xlink" width="200" height="200"><defs><style type="text/css"></style></defs><path d="M654.368 107.837H205.035A129.393 129.393 0 0 0 75.5 237.347V818.99A129.4 129.4 0 0 0 205.035 948.5H786.8a129.4 129.4 0 0 0 129.536-129.51V376.343l-64.679 64.665V818.99a64.723 64.723 0 0 1-64.857 64.845H205.035a64.723 64.723 0 0 1-64.857-64.845V237.347a64.724 64.724 0 0 1 64.857-64.847H589.69zM348.946 671.3l196.209-55.694-140.148-139.255z m524.043-381.46L732.841 150.577 424.515 456.946l140.143 139.248z m65.134-116.978l-87.6-87.035c-14.51-14.423-38.822-13.636-54.3 1.738l-42.053 41.77L894.317 268.6l42.053-41.784c15.477-15.378 16.263-39.529 1.753-53.951z m0 0" p-id="13759"></path></svg>