<?xml version="1.0" standalone="no"?><!DOCTYPE svg PUBLIC "-//W3C//DTD SVG 1.1//EN" "http://www.w3.org/Graphics/SVG/1.1/DTD/svg11.dtd"><svg t="1632302464303" class="icon" viewBox="0 0 1024 1024" version="1.1" xmlns="http://www.w3.org/2000/svg" p-id="13556" xmlns:xlink="http://www.w3.org/1999/xlink" width="200" height="200"><defs><style type="text/css"></style></defs><path d="M394.4 281.8h-72.2c-8.6 0-15.6 6.3-15.6 14v399.4l51.7-51.6 51.7 51.6V295.9c0-7.8-7-14.1-15.6-14.1z m467.7 52.9c-0.1 0-0.2-0.1-0.3-0.1-3.1-2.6-6.8-4.3-10.8-4.9-9.8-9-16.6-29.5-16.6-53.4s6.8-44.3 16.6-53.4c4.1-0.6 7.9-2.4 10.9-4.9h0.2-0.2c4.8-4 7.9-10 7.9-16.7 0-12.1-9.6-21.8-21.6-22.1 0.2 0 0.4-0.1 0.6-0.1H847.6c-0.4 0-0.7 0.1-1.1 0.1-2.6 0.1-5.1 0.3-7.6 0.6-3.1-0.4-6.1-0.7-9.3-0.7h-610c-36.8 0-66.6 29.8-66.6 66.5v61.7c0 36.7 29.8 66.5 66.6 66.5H267V262.5c0-13.7 12.3-24.8 27.5-24.8H422c15.2 0 27.5 11.1 27.5 24.8v111.2h380c3.2 0 6.3-0.3 9.4-0.7-0.9-0.1-1.8-0.5-2.6-0.6 2 0.3 4.1 0.6 6.2 0.7 1.7 0.4 3.4 0.7 5.2 0.7 12.3 0 22.2-9.9 22.2-22.2 0-6.8-3.1-12.8-7.9-16.8l0.1-0.1zM153 481.8v61.7c0 36.7 29.8 66.5 66.6 66.5H267V415.3h-47.5c-36.7 0-66.5 29.7-66.5 66.5zM862.1 571c-0.1 0-0.2-0.1-0.3-0.1-3.1-2.6-6.9-4.3-10.9-4.9-9.8-9-16.6-29.5-16.6-53.4s6.8-44.4 16.6-53.4c4-0.6 7.7-2.3 10.8-4.9 0.1 0 0.2-0.1 0.3-0.1h-0.2c4.8-4 7.9-10 7.9-16.8 0-12.1-9.6-21.8-21.6-22.1 0.2 0 0.4-0.1 0.6-0.1h-1.1c-0.4 0-0.7 0.1-1.1 0.1-2.6 0.1-5.3 0.3-7.8 0.6-3-0.4-6-0.7-9.1-0.7h-380v194.7h380c3.2 0 6.3-0.3 9.4-0.7-1-0.1-1.9-0.5-2.9-0.7 2.1 0.3 4.3 0.6 6.4 0.7 1.7 0.4 3.4 0.7 5.2 0.7 12.3 0 22.2-9.9 22.2-22.2 0-6.8-3.1-12.7-7.9-16.8l0.1 0.1z m0 236.2c-0.1 0-0.2-0.1-0.3-0.1-3.1-2.6-6.9-4.3-10.9-4.9-9.8-9-16.6-29.5-16.6-53.4s6.8-44.4 16.6-53.4c4-0.6 7.7-2.3 10.8-4.9 0.1 0 0.2-0.1 0.3-0.1h-0.2c4.8-4 7.9-10 7.9-16.8 0-12.1-9.6-21.8-21.6-22.1 0.2 0 0.4-0.1 0.6-0.1h-1.1c-0.4 0-0.7 0.1-1.1 0.1-2.6 0.1-5.3 0.3-7.8 0.6-3-0.4-6-0.7-9.1-0.7h-380V798l-91.2-91.2L267 798V651.5h-47.5c-36.8 0-66.6 29.8-66.6 66.5v61.7c0 36.7 29.8 66.5 66.6 66.5h610c3.2 0 6.3-0.3 9.4-0.7-1-0.1-1.9-0.5-2.9-0.7 2.1 0.3 4.3 0.6 6.4 0.7 1.7 0.4 3.4 0.7 5.2 0.7 12.3 0 22.2-9.9 22.2-22.2 0-6.8-3.1-12.7-7.9-16.8h0.2z m0 0" p-id="13557"></path></svg>