<?xml version="1.0" encoding="UTF-8"?>
<svg width="44px" height="44px" viewBox="0 0 44 44" version="1.1" xmlns="http://www.w3.org/2000/svg" xmlns:xlink="http://www.w3.org/1999/xlink">
    <title>rzxxgzsh</title>
        <g id="编组">
            
            <path d="M32,4.85 C34.7713366,4.85 37.0314032,7.03900673 37.145482,9.78230226 L37.15,10 L37.15,18 C37.15,18.6351275 36.6351275,19.15 36,19.15 C35.4072144,19.15 34.9191841,18.7014888 34.856748,18.1253052 L34.85,18 L34.85,10 C34.85,8.48220316 33.663526,7.24152216 32.1674591,7.15483806 L32,7.15 L12,7.15 C10.4822032,7.15 9.24152216,8.33647397 9.15483806,9.83254085 L9.15,10 L9.15,34 C9.15,35.5177968 10.336474,36.7584778 11.8325409,36.8451619 L12,36.85 L22,36.85 C22.6351275,36.85 23.15,37.3648725 23.15,38 C23.15,38.5927856 22.7014888,39.0808159 22.1253052,39.143252 L22,39.15 L12,39.15 C9.22866345,39.15 6.96859681,36.9609933 6.85451801,34.2176977 L6.85,34 L6.85,10 C6.85,7.22866345 9.03900673,4.96859681 11.7823023,4.85451801 L12,4.85 L32,4.85 Z M34,19.85 C36.5681241,19.85 38.65,21.9318759 38.65,24.5 C38.65,25.8549034 38.0705186,27.0744617 37.1458753,27.9243553 L37.15,28 L37.149,31.85 L38,31.85 C40.2225277,31.85 42.0369943,33.5971173 42.1449211,35.7928731 L42.15,36 L42.15,38 C42.15,38.6351275 41.6351275,39.15 41,39.15 L41,39.15 L27,39.15 C26.3648725,39.15 25.85,38.6351275 25.85,38 L25.85,38 L25.85,36 C25.85,33.7080183 27.7080183,31.85 30,31.85 L30,31.85 L30.85,31.85 L30.85,28 C30.85,27.9744605 30.8508325,27.9491154 30.852472,27.9239905 C29.9294814,27.0744617 29.35,25.8549034 29.35,24.5 C29.35,21.9318759 31.4318759,19.85 34,19.85 Z M38,34.15 L30,34.15 C28.9782732,34.15 28.15,34.9782732 28.15,36 L28.15,36 L28.15,36.85 L39.85,36.85 L39.85,36 C39.85,35.0269269 39.0987318,34.2293218 38.1445764,34.155566 L38.1445764,34.155566 L38,34.15 Z M34.85,29.15 L33.15,29.15 L33.15,31.85 L34.85,31.85 L34.85,29.15 Z M23,28.85 C23.6351275,28.85 24.15,29.3648725 24.15,30 C24.15,30.5927856 23.7014888,31.0808159 23.1253052,31.143252 L23,31.15 L14,31.15 C13.3648725,31.15 12.85,30.6351275 12.85,30 C12.85,29.4072144 13.2985112,28.9191841 13.8746948,28.856748 L14,28.85 L23,28.85 Z M34,22.15 C32.7021308,22.15 31.65,23.2021308 31.65,24.5 C31.65,25.7978692 32.7021308,26.85 34,26.85 C35.2978692,26.85 36.35,25.7978692 36.35,24.5 C36.35,23.2021308 35.2978692,22.15 34,22.15 Z M30,12.85 C30.6351275,12.85 31.15,13.3648725 31.15,14 C31.15,14.5927856 30.7014888,15.0808159 30.1253052,15.143252 L30,15.15 L18,15.15 C16.4259885,15.15 15.15,16.4259885 15.15,18 C15.15,19.5177968 16.336474,20.7584778 17.8325409,20.8451619 L18,20.85 L21.223,20.85 L20.1868272,19.8131728 C19.769803,19.3961486 19.7400156,18.7385264 20.0974649,18.2871311 L20.1868272,18.1868272 C20.6038514,17.769803 21.2614736,17.7400156 21.7128689,18.0974649 L21.8131728,18.1868272 L24.8131728,21.1868272 C25.3971759,21.7708303 25.1769768,22.6890127 24.5329409,23.0230907 L21.7778175,25.7778175 C21.3482407,26.2073942 20.6517593,26.2073942 20.2221825,25.7778175 C19.8232899,25.3789248 19.7947975,24.7498949 20.1367055,24.3181254 L20.2221825,24.2221825 L21.295,23.149 L18,23.15 C15.1557335,23.15 12.85,20.8442665 12.85,18 C12.85,15.2286634 15.0390067,12.9685968 17.7823023,12.854518 L18,12.85 L30,12.85 Z" id="形状结合"  fill-rule="nonzero"></path>
        </g>
</svg>