<?xml version="1.0" standalone="no"?><!DOCTYPE svg PUBLIC "-//W3C//DTD SVG 1.1//EN" "http://www.w3.org/Graphics/SVG/1.1/DTD/svg11.dtd"><svg t="1632714712498" class="icon" viewBox="0 0 1024 1024" version="1.1" xmlns="http://www.w3.org/2000/svg" p-id="14735" xmlns:xlink="http://www.w3.org/1999/xlink" width="200" height="200"><defs><style type="text/css"></style></defs><path d="M870.912 87.04H153.088C95.744 87.04 48.64 133.632 48.64 190.976v550.4c0 57.344 46.592 103.936 103.936 103.936h239.616l72.192 72.192c12.8 12.8 29.696 19.456 47.616 19.456 17.92 0 34.816-7.168 47.616-19.456l72.192-72.192h239.616c57.344 0 103.936-46.592 103.936-103.936V190.976c0-57.344-47.104-103.936-104.448-103.936z m58.368 654.336c0 32.256-26.112 57.856-57.856 57.856h-258.56L527.36 884.736c-4.096 4.096-9.216 6.144-14.848 6.144-5.632 0-10.752-2.048-14.848-6.144l-85.504-85.504H153.088c-32.256 0-57.856-26.112-57.856-57.856V190.976C95.232 158.72 121.344 133.12 153.088 133.12h718.336c32.256 0 57.856 26.112 57.856 57.856v550.4z"  p-id="14736"></path><path d="M512 656.896m-43.52 0a43.52 43.52 0 1 0 87.04 0 43.52 43.52 0 1 0-87.04 0Z" p-id="14737"></path><path d="M512 254.976c-105.472 0-24.576 272.896 0 328.704 18.432-49.664 105.472-328.704 0-328.704z"  p-id="14738"></path></svg>