<?xml version="1.0" encoding="UTF-8"?>
<svg width="44px" height="44px" viewBox="0 0 44 44" version="1.1" xmlns="http://www.w3.org/2000/svg" xmlns:xlink="http://www.w3.org/1999/xlink">
    <title>shtksqcl</title>
        <!-- <path d="M19.1277704,11 L35.8722296,11 C37.6552671,11 38.3018396,11.1856512 38.9536914,11.5342654 C39.6055433,11.8828796 40.1171204,12.3944567 40.4657346,13.0463086 C40.8143488,13.6981604 41,14.3447329 41,16.1277704 L41,36.8722296 C41,38.6552671 40.8143488,39.3018396 40.4657346,39.9536914 C40.1171204,40.6055433 39.6055433,41.1171204 38.9536914,41.4657346 C38.3018396,41.8143488 37.6552671,42 35.8722296,42 L19.1277704,42 C17.3447329,42 16.6981604,41.8143488 16.0463086,41.4657346 C15.3944567,41.1171204 14.8828796,40.6055433 14.5342654,39.9536914 C14.1856512,39.3018396 14,38.6552671 14,36.8722296 L14,16.1277704 C14,14.3447329 14.1856512,13.6981604 14.5342654,13.0463086 C14.8828796,12.3944567 15.3944567,11.8828796 16.0463086,11.5342654 C16.6981604,11.1856512 17.3447329,11 19.1277704,11 Z" id="bd" fill="#D5E5FF"></path> -->
        <path d="M32.5,21.5766387 C33.2398595,21.5766387 33.8478745,22.1411325 33.9168456,22.8629208 L33.9233613,23 L33.923,24.03 L36.1235985,24.030653 C36.9096993,24.030653 37.5469599,24.6679136 37.5469599,25.4540143 C37.5469599,26.1938739 36.9824661,26.8018888 36.2606777,26.8708599 L36.1235985,26.8773757 L30.7627973,26.8773757 C30.0230473,26.8773757 29.4233613,27.4770616 29.4233613,28.2168116 C29.4233613,28.913047 29.954571,29.4852117 30.6338007,29.550116 L30.7627973,29.5562476 L34.344403,29.5562476 C36.5971495,29.5562476 38.4233613,31.3824594 38.4233613,33.6352059 C38.4233613,35.8196873 36.7061521,37.603093 34.5479842,37.7091723 L34.344403,37.7141642 L33.923,37.714 L33.9233613,39 C33.9233613,39.7861008 33.2861008,40.4233613 32.5,40.4233613 C31.7601405,40.4233613 31.1521255,39.8588675 31.0831544,39.1370792 L31.0766387,39 L31.076,37.714 L28.8764015,37.7141642 C28.0903007,37.7141642 27.4530401,37.0769036 27.4530401,36.2908029 C27.4530401,35.5509433 28.0175339,34.9429284 28.7393223,34.8739573 L28.8764015,34.8674415 L34.344403,34.8674415 C35.024948,34.8674415 35.5766387,34.3157508 35.5766387,33.6352059 C35.5766387,32.997195 35.0917543,32.472435 34.470392,32.4093322 L34.344403,32.4029703 L30.7627973,32.4029703 C28.4508457,32.4029703 26.5766387,30.5287632 26.5766387,28.2168116 C26.5766387,25.9749192 28.3389784,24.1446433 30.5538658,24.0357761 L30.7627973,24.030653 L31.076,24.03 L31.0766387,23 C31.0766387,22.2138992 31.7138992,21.5766387 32.5,21.5766387 Z M32,4.85 C34.7713366,4.85 37.0314032,7.03900673 37.145482,9.78230226 L37.15,10 L37.15,18 C37.15,18.6351275 36.6351275,19.15 36,19.15 C35.4072144,19.15 34.9191841,18.7014888 34.856748,18.1253052 L34.85,18 L34.85,10 C34.85,8.48220316 33.663526,7.24152216 32.1674591,7.15483806 L32,7.15 L12,7.15 C10.4822032,7.15 9.24152216,8.33647397 9.15483806,9.83254085 L9.15,10 L9.15,34 C9.15,35.5177968 10.336474,36.7584778 11.8325409,36.8451619 L12,36.85 L22,36.85 C22.6351275,36.85 23.15,37.3648725 23.15,38 C23.15,38.5927856 22.7014888,39.0808159 22.1253052,39.143252 L22,39.15 L12,39.15 C9.22866345,39.15 6.96859681,36.9609933 6.85451801,34.2176977 L6.85,34 L6.85,10 C6.85,7.22866345 9.03900673,4.96859681 11.7823023,4.85451801 L12,4.85 L32,4.85 Z M23,28.85 C23.6351275,28.85 24.15,29.3648725 24.15,30 C24.15,30.5927856 23.7014888,31.0808159 23.1253052,31.143252 L23,31.15 L14,31.15 C13.3648725,31.15 12.85,30.6351275 12.85,30 C12.85,29.4072144 13.2985112,28.9191841 13.8746948,28.856748 L14,28.85 L23,28.85 Z M30,12.85 C30.6351275,12.85 31.15,13.3648725 31.15,14 C31.15,14.5927856 30.7014888,15.0808159 30.1253052,15.143252 L30,15.15 L18,15.15 C16.4259885,15.15 15.15,16.4259885 15.15,18 C15.15,19.5177968 16.336474,20.7584778 17.8325409,20.8451619 L18,20.85 L21.223,20.85 L20.1868272,19.8131728 C19.769803,19.3961486 19.7400156,18.7385264 20.0974649,18.2871311 L20.1868272,18.1868272 C20.6038514,17.769803 21.2614736,17.7400156 21.7128689,18.0974649 L21.8131728,18.1868272 L24.8131728,21.1868272 C25.3971759,21.7708303 25.1769768,22.6890127 24.5329409,23.0230907 L21.7778175,25.7778175 C21.3482407,26.2073942 20.6517593,26.2073942 20.2221825,25.7778175 C19.8232899,25.3789248 19.7947975,24.7498949 20.1367055,24.3181254 L20.2221825,24.2221825 L21.294,23.15 L18,23.15 C15.1557335,23.15 12.85,20.8442665 12.85,18 C12.85,15.2286634 15.0390067,12.9685968 17.7823023,12.854518 L18,12.85 L30,12.85 Z" id="mix" fill-rule="nonzero"></path>
</svg>