<?xml version="1.0" standalone="no"?><!DOCTYPE svg PUBLIC "-//W3C//DTD SVG 1.1//EN" "http://www.w3.org/Graphics/SVG/1.1/DTD/svg11.dtd"><svg t="1635300099265" class="icon" viewBox="0 0 1024 1024" version="1.1" xmlns="http://www.w3.org/2000/svg" p-id="2054" xmlns:xlink="http://www.w3.org/1999/xlink" width="200" height="200"><defs><style type="text/css"></style></defs><path d="M295.497143 503.405714h251.977143v73.142857H295.497143zM295.68 337.92h361.691429v73.142857H295.68zM295.497143 669.074286h142.262857v73.142857h-142.262857z" fill="#4C4C4C" p-id="2055"></path><path d="M147.382857 174.262857h658.285714v369.371429h73.142858V137.691429c0-20.114286-16.457143-36.571429-36.571429-36.571429h-731.428571c-20.114286 0-36.571429 16.457143-36.571429 36.571429v804.571428c0 20.114286 16.457143 36.571429 36.571429 36.571429h365.714285v-73.142857h-329.142857v-731.428572z" fill="#4C4C4C" p-id="2056"></path><path d="M730.331429 569.417143c-121.051429 0-219.428571 98.377143-219.428572 219.428571s98.377143 219.428571 219.428572 219.428572 219.428571-98.377143 219.428571-219.428572-98.377143-219.428571-219.428571-219.428571z m0 365.714286c-80.64 0-146.285714-65.645714-146.285715-146.285715s65.645714-146.285714 146.285715-146.285714 146.285714 65.645714 146.285714 146.285714-65.645714 146.285714-146.285714 146.285715z" fill="#4C4C4C" p-id="2057"></path><path d="M771.291429 741.668571l-24.685715-49.737142c-6.217143-12.434286-26.697143-12.434286-32.731428 0l-24.502857 49.737142-55.04 8.045715a18.230857 18.230857 0 0 0-10.24 31.085714l39.862857 38.765714-9.325715 54.857143c-1.097143 6.948571 1.645714 13.714286 7.314286 17.92 5.668571 4.205714 13.165714 4.571429 19.2 1.462857l49.188572-25.782857 49.188571 25.782857a18.048 18.048 0 0 0 19.2-1.28c5.668571-4.022857 8.411429-10.971429 7.314286-17.92l-9.325715-54.857143 39.862858-38.765714a18.230857 18.230857 0 0 0-10.24-31.085714l-55.04-8.228572z m-7.131429 58.514286a18.285714 18.285714 0 0 0-5.302857 16.091429l4.754286 27.794285-24.868572-13.165714a17.499429 17.499429 0 0 0-17.005714 0l-24.868572 13.165714 4.754286-27.794285a17.627429 17.627429 0 0 0-5.302857-16.091429l-20.114286-19.565714 27.794286-4.022857c6.034286-0.914286 11.154286-4.571429 13.714286-10.057143l12.434285-25.234286 12.434286 25.234286c2.742857 5.302857 7.862857 9.142857 13.714286 10.057143l27.794286 4.022857-19.931429 19.565714z" fill="#4C4C4C" p-id="2058"></path></svg>