<?xml version="1.0" standalone="no"?><!DOCTYPE svg PUBLIC "-//W3C//DTD SVG 1.1//EN" "http://www.w3.org/Graphics/SVG/1.1/DTD/svg11.dtd"><svg t="1632642667098" class="icon" viewBox="0 0 1024 1024" version="1.1" xmlns="http://www.w3.org/2000/svg" p-id="13892" xmlns:xlink="http://www.w3.org/1999/xlink" width="200" height="200"><defs><style type="text/css"></style></defs><path d="M785.136142 441.479929c-130.877168 0-236.969912 106.092743-236.969912 236.965381 0 130.877168 106.092743 236.974442 236.969912 236.974442s236.969912-106.097274 236.969911-236.974442c0-130.872637-106.092743-236.965381-236.969911-236.965381m156.980106 250.118797a12.881558 12.881558 0 0 1-12.84531 12.845309H811.134867v118.136071a12.881558 12.881558 0 0 1-12.845309 12.84531h-26.302301a12.886088 12.886088 0 0 1-12.84531-12.84531v-118.136071h-118.140602a12.881558 12.881558 0 0 1-12.840779-12.845309v-26.306832a12.872496 12.872496 0 0 1 12.840779-12.840779h118.140602v-118.140602a12.877027 12.877027 0 0 1 12.84531-12.840778h26.302301a12.877027 12.877027 0 0 1 12.845309 12.840778v118.140602h118.136071a12.877027 12.877027 0 0 1 12.84531 12.840779v26.306832zM131.348389 186.290973h647.276744c22.002407 0 38.839504-16.837097 38.839504-38.853097s-16.837097-38.853097-38.839504-38.853097H131.348389c-22.006938 0-38.839504 16.837097-38.839504 38.853097s16.828035 38.853097 38.839504 38.853097M539.792991 846.734726H144.293381v-259.008567H79.572956v271.944496c0 23.32092 25.894513 51.80715 49.174655 51.80715h471.50669a299.393133 299.393133 0 0 1-60.46131-64.743079" p-id="13893"></path><path d="M228.438088 441.393841c0 60.869097 50.479575 111.366796 112.617346 111.366796s113.926796-49.206372 113.926796-111.366796c0 44.408071 26.882265 83.265699 65.545062 101.054301 49.392142-95.907115 149.304637-161.538265 264.60885-161.538266a296.692673 296.692673 0 0 1 106.921911 19.87285l-64.23108-162.702726H79.572956L1.893947 441.393841c0 60.869097 50.497699 111.366796 112.635469 111.366796 62.13777 0 113.908673-49.206372 113.908672-111.366796" p-id="13894"></path></svg>