<?xml version="1.0" standalone="no"?><!DOCTYPE svg PUBLIC "-//W3C//DTD SVG 1.1//EN" "http://www.w3.org/Graphics/SVG/1.1/DTD/svg11.dtd"><svg t="1632658215191" class="icon" viewBox="0 0 1024 1024" version="1.1" xmlns="http://www.w3.org/2000/svg" p-id="14264" xmlns:xlink="http://www.w3.org/1999/xlink" width="200" height="200"><defs><style type="text/css"></style></defs><path d="M984.574609 196.928174H630.143652a39.35913 39.35913 0 1 1 0-78.784522h354.430957a39.35913 39.35913 0 1 1 0 78.784522z m0 196.928174H630.143652a39.35913 39.35913 0 1 1 0-78.784522h354.430957a39.35913 39.35913 0 1 1 0 78.784522z m0 315.071826H630.143652a39.35913 39.35913 0 1 1 0-78.784522h354.430957a39.35913 39.35913 0 1 1 0 78.784522z m0 196.928174H630.143652a39.35913 39.35913 0 1 1 0-78.784522h354.430957a39.35913 39.35913 0 1 1 0 78.784522z m-630.143653-433.281739H118.143652A118.276174 118.276174 0 0 1 0 354.430956V118.143652A118.276174 118.276174 0 0 1 118.143652 0h236.287304a118.276174 118.276174 0 0 1 118.209914 118.143652v236.287304a118.276174 118.276174 0 0 1-118.209914 118.209914zM118.143652 78.784522a39.756697 39.756697 0 0 0-39.35913 39.35913v236.287304a39.756697 39.756697 0 0 0 39.35913 39.359131h236.287304a39.756697 39.756697 0 0 0 39.359131-39.359131V118.143652a39.756697 39.756697 0 0 0-39.359131-39.35913z m236.287304 945.215478H118.143652A118.276174 118.276174 0 0 1 0 905.856348V669.237738a118.276174 118.276174 0 0 1 118.143652-117.878608h236.287304A118.276174 118.276174 0 0 1 472.64087 669.237738v236.287304a118.276174 118.276174 0 0 1-118.143652 118.143652zM118.143652 630.143652a39.756697 39.756697 0 0 0-39.35913 39.094086v236.287304a39.756697 39.756697 0 0 0 39.35913 39.35913h236.287304a39.756697 39.756697 0 0 0 39.359131-39.35913V669.237738a39.756697 39.756697 0 0 0-39.359131-39.359131z" p-id="14265"></path></svg>