<?xml version="1.0" standalone="no"?><!DOCTYPE svg PUBLIC "-//W3C//DTD SVG 1.1//EN" "http://www.w3.org/Graphics/SVG/1.1/DTD/svg11.dtd"><svg t="1632474262140" class="icon" viewBox="0 0 1024 1024" version="1.1" xmlns="http://www.w3.org/2000/svg" p-id="8527" xmlns:xlink="http://www.w3.org/1999/xlink" width="200" height="200"><defs><style type="text/css"></style></defs><path d="M512 0a512 512 0 1 1 0 1024A512 512 0 0 1 512 0z m132.551111 688.355556a61.44 61.44 0 0 0-22.869333 4.266666 56.888889 56.888889 0 0 0-31.402667 29.866667 52.053333 52.053333 0 0 0-4.778667 21.959111c0 7.736889 1.592889 15.075556 4.778667 21.959111a58.595556 58.595556 0 0 0 31.402667 30.151111 60.188444 60.188444 0 0 0 45.966222 0c7.395556-3.015111 13.767111-7.054222 19.057778-12.117333a58.595556 58.595556 0 0 0 12.686222-18.033778 52.053333 52.053333 0 0 0 4.721778-21.959111 52.053333 52.053333 0 0 0-4.721778-21.959111 56.206222 56.206222 0 0 0-31.744-29.866667 63.943111 63.943111 0 0 0-23.153778-4.266666z m-263.964444-1.251556a63.146667 63.146667 0 0 0-23.438223 4.323556 56.888889 56.888889 0 0 0-31.402666 29.866666 52.053333 52.053333 0 0 0-4.721778 21.959111c0 7.736889 1.536 15.018667 4.721778 21.959111a58.595556 58.595556 0 0 0 31.402666 30.151112c7.224889 3.072 15.018667 4.551111 23.495112 4.551111a61.155556 61.155556 0 0 0 41.528888-16.782223 58.595556 58.595556 0 0 0 12.686223-17.92 52.053333 52.053333 0 0 0 4.778666-21.959111 52.053333 52.053333 0 0 0-4.778666-21.959111 56.888889 56.888889 0 0 0-31.402667-29.866666 61.44 61.44 0 0 0-22.812444-4.323556zM266.524444 252.245333H202.410667a32.711111 32.711111 0 0 0-23.153778 7.964445c-5.688889 5.290667-8.590222 11.946667-8.590222 20.081778 0 4.096 0.568889 8.533333 1.592889 13.425777a41.358222 41.358222 0 0 0 16.156444 24.746667c4.266667 3.015111 9.500444 4.551111 15.872 4.551111h47.559111a25959.651556 25959.651556 0 0 1 46.648889 236.316445 5086.947556 5086.947556 0 0 0 10.467556 52.792888c1.251556 6.087111 3.072 12.572444 5.404444 19.512889 2.275556 6.883556 5.347556 13.312 9.159111 19.228445 3.811556 5.859556 8.533333 10.638222 14.279111 14.336 5.688889 3.640889 12.8 5.461333 21.276445 5.461333h332.344889c11.832889 0 19.797333-2.958222 23.779555-8.817778a36.408889 36.408889 0 0 0 6.030222-21.048889c0-16.668444-10.126222-25.031111-30.435555-25.031111h-320.284445l-8.931555-54.897777h333.027555a49.152 49.152 0 0 0 30.72-9.443556c8.305778-6.257778 15.189333-17.635556 20.650667-33.848889 2.958222-7.736889 6.883556-18.318222 11.719111-31.687111l14.620445-40.561778c4.835556-13.653333 9.386667-26.168889 13.653333-37.546666l8.248889-22.528A46.08 46.08 0 0 0 796.444444 372.053333a24.860444 24.860444 0 0 0-3.811555-14.336 31.118222 31.118222 0 0 0-13.994667-11.264c-6.542222-3.072-15.701333-4.551111-27.591111-4.551111H317.212444a1394.517333 1394.517333 0 0 0-3.811555-23.210666 3876.408889 3876.408889 0 0 0-2.56-17.976889 132.551111 132.551111 0 0 0-2.503111-13.767111l-3.185778-10.353778a34.247111 34.247111 0 0 0-18.375111-20.764445 47.274667 47.274667 0 0 0-20.309333-3.640889zM587.093333 227.555556a46.648889 46.648889 0 0 0-32.028444 14.336L471.324444 322.389333h232.163556l-84.366222-81.123555a44.202667 44.202667 0 0 0-32.028445-13.653334z" p-id="8528"></path></svg>