<?xml version="1.0" encoding="UTF-8"?>
<svg width="44px" height="44px" viewBox="0 0 44 44" version="1.1" xmlns="http://www.w3.org/2000/svg" xmlns:xlink="http://www.w3.org/1999/xlink">
    <title>xszsp</title>
        <path d="M34.7826275,13.4343377 L34.8900214,13.504892 L37.787202,15.6569436 C38.5220517,16.2027965 38.9753539,17.0431647 39.0325282,17.950204 L39.0386749,18.145507 L39.0386749,36.1397276 C39.0386749,37.7927729 37.7448258,39.1436237 36.114587,39.2348202 L35.9386749,39.2397276 L21.9386749,39.2397276 C20.2856295,39.2397276 18.9347788,37.9458784 18.8435823,36.3156396 L18.8386749,36.1397276 L18.8386749,36 C18.8386749,35.3924868 19.3311617,34.9 19.9386749,34.9 C20.5056873,34.9 20.9724988,35.3290107 21.0322203,35.8801429 L21.0386749,36 L21.0386749,36.1397276 C21.0386749,36.5985487 21.3820116,36.9771793 21.8257808,37.0327153 L21.9386749,37.0397276 L35.9386749,37.0397276 C36.3974961,37.0397276 36.7761267,36.6963909 36.8316627,36.2526216 L36.8386749,36.1397276 L36.8386749,18.145507 C36.8386749,17.9014401 36.739676,17.6697133 36.5674437,17.5015616 L36.4753441,17.4230208 L33.5781635,15.2709692 C33.0904747,14.9087096 32.9887943,14.2196904 33.3510538,13.7320016 C33.6874377,13.2791478 34.3055685,13.1591276 34.7826275,13.4343377 Z M24.741336,5.15278287 C26.1282276,5.02553473 27.4297402,5.8388101 27.9233436,7.14112194 L27.9233436,7.14112194 L31.0397528,15.3633842 C31.3830632,16.2691665 31.2832435,17.2833575 30.7699314,18.1048284 L30.7699314,18.1048284 L21.5407126,32.874666 C20.633447,34.3265945 18.7209423,34.768131 17.2690138,33.8608654 L17.2690138,33.8608654 L5.39634044,26.4419957 C3.94441194,25.5347301 3.50287544,23.6222254 4.41014106,22.1702969 L4.41014106,22.1702969 L13.6393599,7.40045931 C14.1526719,6.57898835 15.0204626,6.04467886 15.9850718,5.95617539 L15.9850718,5.95617539 Z M25.0621834,7.34055861 L24.942343,7.34358093 L16.1860788,8.14697345 C15.906031,8.17266801 15.6540918,8.32779012 15.5050657,8.56628169 L15.5050657,8.56628169 L6.27584687,23.3361193 C6.01244717,23.7576469 6.14063519,24.3128902 6.56216282,24.5762899 L6.56216282,24.5762899 L18.4348362,31.9951596 C18.8563638,32.2585593 19.4116071,32.1303713 19.6750068,31.7088436 L19.6750068,31.7088436 L28.9042256,16.9390061 C29.0532517,16.7005145 29.0822316,16.406072 28.9825609,16.1431029 L28.9825609,16.1431029 L25.8661517,7.92084066 C25.7228475,7.54275013 25.344989,7.30663792 24.942343,7.34358093 Z M20,11.5040149 C22.7614237,11.5040149 25,13.7425912 25,16.5040149 C25,19.2654387 22.7614237,21.5040149 20,21.5040149 C17.2385763,21.5040149 15,19.2654387 15,16.5040149 C15,13.7425912 17.2385763,11.5040149 20,11.5040149 Z M20,13.5040149 C18.3431458,13.5040149 17,14.8471607 17,16.5040149 C17,18.1608692 18.3431458,19.5040149 20,19.5040149 C21.6568542,19.5040149 23,18.1608692 23,16.5040149 C23,14.8471607 21.6568542,13.5040149 20,13.5040149 Z" id="mix"  fill-rule="nonzero"></path>
</svg>