<?xml version="1.0" encoding="UTF-8"?>
<svg width="44px" height="44px" viewBox="0 0 44 44" version="1.1" xmlns="http://www.w3.org/2000/svg" xmlns:xlink="http://www.w3.org/1999/xlink">
    <title>zcyhzs</title>

        <g id="编组-2">
            <path d="M20.82,7.4 C25.1388667,7.4 28.64,10.9011333 28.64,15.22 C28.64,17.9132356 27.2784997,20.2884758 25.2062265,21.6949933 C26.8419548,22.352324 28.3546009,23.3769478 29.6652853,24.7176315 C30.0899743,25.152041 30.0820944,25.8484779 29.6476849,26.2731669 C29.2132755,26.6978559 28.5168386,26.6899759 28.0921496,26.2555665 C26.069983,24.187116 23.5152746,23.04 20.82,23.04 C14.6678852,23.04 9.6,29.0293189 9.6,36.5 C9.6,37.1075132 9.10751322,37.6 8.5,37.6 C7.89248678,37.6 7.4,37.1075132 7.4,36.5 C7.4,29.6660103 11.1556064,23.8167333 16.4323086,21.6928996 C14.3606257,20.2869498 13,17.9123705 13,15.22 C13,10.9011333 16.5011333,7.4 20.82,7.4 Z M31.212504,28.3264331 C31.7795163,28.3264331 32.2463279,28.7554438 32.3060494,29.306576 L32.312504,29.4264331 L32.312,31.613 L34.5,31.6139291 C35.1075132,31.6139291 35.6,32.1064159 35.6,32.7139291 C35.6,33.2809415 35.1709893,33.747753 34.6198571,33.8074745 L34.5,33.8139291 L32.312,33.813 L32.312504,36.0014251 C32.312504,36.6089383 31.8200172,37.1014251 31.212504,37.1014251 C30.6454917,37.1014251 30.1786801,36.6724144 30.1189587,36.1212822 L30.112504,36.0014251 L30.112,33.813 L27.925008,33.8139291 C27.3174948,33.8139291 26.825008,33.3214424 26.825008,32.7139291 C26.825008,32.1469168 27.2540187,31.6801053 27.8051509,31.6203838 L27.925008,31.6139291 L30.112,31.613 L30.112504,29.4264331 C30.112504,28.8189199 30.6049908,28.3264331 31.212504,28.3264331 Z M20.82,9.6 C17.7161597,9.6 15.2,12.1161597 15.2,15.22 C15.2,18.3238403 17.7161597,20.84 20.82,20.84 C23.9238403,20.84 26.44,18.3238403 26.44,15.22 C26.44,12.1161597 23.9238403,9.6 20.82,9.6 Z" id="形状结合" fill-rule="nonzero"></path>
    </g>
</svg>